<svg xmlns="http://www.w3.org/2000/svg" id="natnerd-109408" class="natnerd" viewBox="0 0 200 200" style="width: 200px; height: 200px;"><path class="shirt" stroke="#000000" stroke-width="2" transform="translate(50, 133.33333333333331)" fill="#0074d9" d="
    M10.81081081081081,0
    h78.37837837837839
    a10.81081081081081,10.81081081081081 0 0 1 10.81081081081081,10.81081081081081
    v58.37837837837838
    a10.81081081081081,10.81081081081081 0 0 1 -10.81081081081081,10.81081081081081
    h-78.37837837837839
    a10.81081081081081,10.81081081081081 0 0 1 -10.81081081081081,-10.81081081081081
    v-58.37837837837838
    a10.81081081081081,10.81081081081081 0 0 1 10.81081081081081,-10.81081081081081
    z
"></path><line class="left-inner-arm" x1="70" y1="200" x2="70" y2="160" stroke="#000000" stroke-width="2"></line><line class="right-inner-arm" x1="130" y1="200" x2="130" y2="160" stroke="#000000" stroke-width="2"></line><path class="cleavage" stroke="#000000" stroke-width="2" fill="#d9825b" transform="translate(100, 142.85714285714286)" d=" M  24.79483370507571   -14.196575366963907  A  28.571428571428573 28.571428571428573 -29.793805346802806 1 1 -24.674603296873315 -14.404529938674624"></path><circle id="head-109408" class="head" cx="100" cy="80" r="66.66666666666667" fill="#d9825b"></circle><circle class="left-eye-white" cx="80" cy="60" r="16.666666666666668" fill="white"></circle><circle class="left-eye" cx="73.1" cy="60" r="9" fill="#000000"></circle><circle class="left-eye-black" cx="70.26666666666667" cy="60" r="4.5" fill="black"></circle><circle class="left-eye-light" cx="75.35" cy="55.5" r="2.25" fill="white"></circle><circle class="right-eye-white" cx="120" cy="60" r="16.666666666666668" fill="white"></circle><circle class="right-eye" cx="113.1" cy="60" r="9" fill="#000000"></circle><circle class="right-eye-black" cx="110.26666666666667" cy="60" r="4.5" fill="black"></circle><circle class="right-eye-light" cx="115.35" cy="55.5" r="2.25" fill="white"></circle><path class="mouth-lips" stroke-width="6.666666666666667" stroke="#d9825b" fill="none" stroke-linecap="round" d="M 86.66666666666667 108.16901408450704 C 96.66666666666667 108.16901408450704, 103.33333333333333 108.16901408450704, 113.33333333333333 108.16901408450704"></path><path class="mouth" stroke-width="2" stroke="#000000" fill="none" stroke-linecap="round" d="M 89 108.16901408450704 C 99 108.16901408450704, 101 108.16901408450704, 111 108.16901408450704"></path><g class="glasses"><clipPath id="glasses-109408-cut-off"><circle cx="100" cy="80" r="66.66666666666667"></circle></clipPath><line x1="30.162204875047678" y1="59.662757570437094" x2="63.33333333333333" y2="60" stroke="#8b0000" stroke-width="4" clip-path="url(#glasses-109408-cut-off)"></line><circle id="mouth_stroke" cx="80" cy="60" r="16.666666666666668" fill="none" stroke="#8b0000" stroke-width="4"></circle><circle id="mouth_stroke" cx="120" cy="60" r="16.666666666666668" fill="none" stroke="#8b0000" stroke-width="4"></circle><line x1="169.83779512495232" y1="59.662757570437094" x2="136.66666666666666" y2="60" stroke="#8b0000" stroke-width="4" clip-path="url(#glasses-109408-cut-off)"></line><line x1="96.66666666666667" y1="60" x2="103.33333333333333" y2="60" stroke="#8b0000" stroke-width="4"></line></g><circle class="head-stroke" cx="100" cy="80" r="66.66666666666667" fill="none" stroke-width="2" stroke="#000000"></circle><g class="hair"><path fill="#712e1a" d="M 100 8.833333333333329 A 71.16666666666667 71.16666666666667 0 0 0 28.83333333333333 79.99999999999999 L 46.83333333333333 80 A 53.16666666666667 53.16666666666667 0 0 1 100 26.83333333333333 L 100 8.833333333333329 Z"></path><path fill="#712e1a" d="M 171.16666666666669 80 A 71.16666666666667 71.16666666666667 0 0 0 98.75797040854665 8.844172361370155 L 99.07211372441776 26.841430874185193 A 53.16666666666667 53.16666666666667 0 0 1 153.16666666666669 80 L 171.16666666666669 80 Z"></path><rect x="28.83333333333333" y="79" width="18" height="50.314465408805034" fill="#712e1a"></rect><rect x="153.16666666666669" y="79" width="18" height="50.314465408805034" fill="#712e1a"></rect><path fill="#000" d="M 100 8.833333333333329 A 71.16666666666667 71.16666666666667 0 0 0 28.83333333333333 79.99999999999999 L 29.83333333333333 79.99999999999999 A 70.16666666666667 70.16666666666667 0 0 1 100 9.833333333333329 L 100 8.833333333333329 Z"></path><path fill="#000" d="M 171.16666666666669 80 A 71.16666666666667 71.16666666666667 0 0 0 98.75797040854665 8.844172361370155 L 98.77542281498394 9.844020056526546 A 70.16666666666667 70.16666666666667 0 0 1 170.16666666666669 80 L 171.16666666666669 80 Z"></path><rect x="28.83333333333333" y="79" width="1" height="50.314465408805034" fill="#000"></rect><rect x="170.16666666666669" y="79" width="1" height="50.314465408805034" fill="#000"></rect><path fill="#000" d="M 100 10.833333333333329 A 69.16666666666667 69.16666666666667 0 0 0 30.83333333333333 79.99999999999999 L 31.83333333333333 79.99999999999999 A 68.16666666666667 68.16666666666667 0 0 1 100 11.833333333333329 L 100 10.833333333333329 Z"></path><path fill="#000" d="M 169.16666666666669 80 A 69.16666666666667 69.16666666666667 0 0 0 98.79287522142123 10.843867751682936 L 98.81032762785851 11.843715446839326 A 68.16666666666667 68.16666666666667 0 0 1 168.16666666666669 80 L 169.16666666666669 80 Z"></path><rect x="30.83333333333333" y="79" width="1" height="50.314465408805034" fill="#000"></rect><rect x="168.16666666666669" y="79" width="1" height="50.314465408805034" fill="#000"></rect><path fill="#000" d="M 100 12.833333333333329 A 67.16666666666667 67.16666666666667 0 0 0 32.83333333333333 79.99999999999999 L 33.83333333333333 79.99999999999999 A 66.16666666666667 66.16666666666667 0 0 1 100 13.833333333333329 L 100 12.833333333333329 Z"></path><path fill="#000" d="M 167.16666666666669 80 A 67.16666666666667 67.16666666666667 0 0 0 98.8277800342958 12.843563141995716 L 98.84523244073307 13.843410837152106 A 66.16666666666667 66.16666666666667 0 0 1 166.16666666666669 80 L 167.16666666666669 80 Z"></path><rect x="32.83333333333333" y="79" width="1" height="50.314465408805034" fill="#000"></rect><rect x="166.16666666666669" y="79" width="1" height="50.314465408805034" fill="#000"></rect><path fill="#000" d="M 100 14.833333333333329 A 65.16666666666667 65.16666666666667 0 0 0 34.83333333333333 79.99999999999999 L 35.83333333333333 79.99999999999999 A 64.16666666666667 64.16666666666667 0 0 1 100 15.833333333333329 L 100 14.833333333333329 Z"></path><path fill="#000" d="M 165.16666666666669 80 A 65.16666666666667 65.16666666666667 0 0 0 98.86268484717036 14.843258532308496 L 98.88013725360764 15.843106227464887 A 64.16666666666667 64.16666666666667 0 0 1 164.16666666666669 80 L 165.16666666666669 80 Z"></path><rect x="34.83333333333333" y="79" width="1" height="50.314465408805034" fill="#000"></rect><rect x="164.16666666666669" y="79" width="1" height="50.314465408805034" fill="#000"></rect><path fill="#000" d="M 100 16.83333333333333 A 63.16666666666667 63.16666666666667 0 0 0 36.83333333333333 79.99999999999999 L 37.83333333333333 79.99999999999999 A 62.16666666666667 62.16666666666667 0 0 1 100 17.83333333333333 L 100 16.83333333333333 Z"></path><path fill="#000" d="M 163.16666666666669 80 A 63.16666666666667 63.16666666666667 0 0 0 98.89758966004493 16.842953922621277 L 98.91504206648221 17.842801617777674 A 62.16666666666667 62.16666666666667 0 0 1 162.16666666666669 80 L 163.16666666666669 80 Z"></path><rect x="36.83333333333333" y="79" width="1" height="50.314465408805034" fill="#000"></rect><rect x="162.16666666666669" y="79" width="1" height="50.314465408805034" fill="#000"></rect><path fill="#000" d="M 100 18.83333333333333 A 61.16666666666667 61.16666666666667 0 0 0 38.83333333333333 79.99999999999999 L 39.83333333333333 79.99999999999999 A 60.16666666666667 60.16666666666667 0 0 1 100 19.83333333333333 L 100 18.83333333333333 Z"></path><path fill="#000" d="M 161.16666666666669 80 A 61.16666666666667 61.16666666666667 0 0 0 98.9324944729195 18.842649312934064 L 98.94994687935677 19.842497008090454 A 60.16666666666667 60.16666666666667 0 0 1 160.16666666666669 80 L 161.16666666666669 80 Z"></path><rect x="38.83333333333333" y="79" width="1" height="50.314465408805034" fill="#000"></rect><rect x="160.16666666666669" y="79" width="1" height="50.314465408805034" fill="#000"></rect><path fill="#000" d="M 100 20.83333333333333 A 59.16666666666667 59.16666666666667 0 0 0 40.83333333333333 79.99999999999999 L 41.83333333333333 79.99999999999999 A 58.16666666666667 58.16666666666667 0 0 1 100 21.83333333333333 L 100 20.83333333333333 Z"></path><path fill="#000" d="M 159.16666666666669 80 A 59.16666666666667 59.16666666666667 0 0 0 98.96739928579406 20.842344703246845 L 98.98485169223135 21.842192398403235 A 58.16666666666667 58.16666666666667 0 0 1 158.16666666666669 80 L 159.16666666666669 80 Z"></path><rect x="40.83333333333333" y="79" width="1" height="50.314465408805034" fill="#000"></rect><rect x="158.16666666666669" y="79" width="1" height="50.314465408805034" fill="#000"></rect><path fill="#000" d="M 100 22.83333333333333 A 57.16666666666667 57.16666666666667 0 0 0 42.83333333333333 80 L 43.83333333333333 80 A 56.16666666666667 56.16666666666667 0 0 1 100 23.83333333333333 L 100 22.83333333333333 Z"></path><path fill="#000" d="M 157.16666666666669 80 A 57.16666666666667 57.16666666666667 0 0 0 99.00230409866863 22.842040093559625 L 99.01975650510592 23.841887788716022 A 56.16666666666667 56.16666666666667 0 0 1 156.16666666666669 80 L 157.16666666666669 80 Z"></path><rect x="42.83333333333333" y="79" width="1" height="50.314465408805034" fill="#000"></rect><rect x="156.16666666666669" y="79" width="1" height="50.314465408805034" fill="#000"></rect><path fill="#000" d="M 100 24.83333333333333 A 55.16666666666667 55.16666666666667 0 0 0 44.83333333333333 80 L 45.83333333333333 80 A 54.16666666666667 54.16666666666667 0 0 1 100 25.83333333333333 L 100 24.83333333333333 Z"></path><path fill="#000" d="M 155.16666666666669 80 A 55.16666666666667 55.16666666666667 0 0 0 99.03720891154319 24.841735483872412 L 99.05466131798048 25.841583179028802 A 54.16666666666667 54.16666666666667 0 0 1 154.16666666666669 80 L 155.16666666666669 80 Z"></path><rect x="44.83333333333333" y="79" width="1" height="50.314465408805034" fill="#000"></rect><rect x="154.16666666666669" y="79" width="1" height="50.314465408805034" fill="#000"></rect><path fill="#000" d="M 100 26.83333333333333 A 53.16666666666667 53.16666666666667 0 0 0 46.83333333333333 80 L 47.83333333333333 80 A 52.16666666666667 52.16666666666667 0 0 1 100 27.83333333333333 L 100 26.83333333333333 Z"></path><path fill="#000" d="M 153.16666666666669 80 A 53.16666666666667 53.16666666666667 0 0 0 99.07211372441776 26.841430874185193 L 99.08956613085505 27.841278569341583 A 52.16666666666667 52.16666666666667 0 0 1 152.16666666666669 80 L 153.16666666666669 80 Z"></path><rect x="46.83333333333333" y="79" width="1" height="50.314465408805034" fill="#000"></rect><rect x="152.16666666666669" y="79" width="1" height="50.314465408805034" fill="#000"></rect></g><g class="headband"><defs><pattern id="cap-109408" x="33.33333333333333" y="13.333333333333329" width="2.9629629629629632" height="14.814814814814817" patternUnits="userSpaceOnUse"><rect x="0" y="0" width="139.33333333333334" height="14.814814814814817" fill="#000"></rect><line x1="0" y1="0" x2="0" y2="14.814814814814817" stroke="#583101" stroke-width="2.9629629629629632"></line></pattern></defs><clipPath id="head_clip-109408"><circle id="head_clip" cx="100" cy="80" r="70.66666666666667"></circle></clipPath><rect x="33.33333333333333" y="26.801346801346796" width="139.33333333333334" height="14.814814814814817" fill="url(#cap-109408)" clip-path="url(#head_clip-109408)"></rect></g></svg>