<svg xmlns="http://www.w3.org/2000/svg" id="natnerd-109419" viewBox="0 0 200 200" style="width: 200px; height: 200px;"><defs><pattern id="pattern_109419" x="0" y="0" width="10" height="10" patternUnits="userSpaceOnUse" patternTransform="rotate(90)"><rect x="0" y="0" width="200" height="200" stroke="none" fill="#85144b"></rect><line x1="0" y1="0" x2="200" y2="0" stroke="#7fdbff" stroke-width="1"></line></pattern></defs><path stroke="#000000" stroke-width="2" transform="translate(50, 133.33333333333331)" fill="url(#pattern_109419)" d="
        M10.81081081081081,0
        h78.37837837837839
        a10.81081081081081,10.81081081081081 0 0 1 10.81081081081081,10.81081081081081
        v58.37837837837838
        a10.81081081081081,10.81081081081081 0 0 1 -10.81081081081081,10.81081081081081
        h-78.37837837837839
        a10.81081081081081,10.81081081081081 0 0 1 -10.81081081081081,-10.81081081081081
        v-58.37837837837838
        a10.81081081081081,10.81081081081081 0 0 1 10.81081081081081,-10.81081081081081
        z
    "></path><line x1="70" y1="200" x2="70" y2="160" stroke="#000000" stroke-width="2"></line><line x1="130" y1="200" x2="130" y2="160" stroke="#000000" stroke-width="2"></line><circle id="head-109419" cx="100" cy="80" r="66.66666666666667" fill="#d9825b"></circle><circle id="left-eye-white" cx="80" cy="60" r="16.666666666666668" fill="white"></circle><circle id="left-eye" cx="73.55" cy="60" r="9.5" fill="#7bc4c4"></circle><circle id="left-eye-black" cx="70.46666666666667" cy="60" r="4.75" fill="black"></circle><circle id="left-eye-light" cx="75.925" cy="55.25" r="2.375" fill="white"></circle><circle cx="120" cy="60" r="16.666666666666668" fill="white"></circle><circle cx="113.55" cy="60" r="9.5" fill="#7bc4c4"></circle><circle cx="110.46666666666667" cy="60" r="4.75" fill="black"></circle><circle cx="115.925" cy="55.25" r="2.375" fill="white"></circle><clipPath id="beard-cut-off-109419"><circle cx="100" cy="80" r="66.66666666666667"></circle></clipPath><defs><pattern id="beard-109419" x="0" y="0" width="2.5" height="2.5" patternUnits="userSpaceOnUse" patternTransform="rotate(45)"><circle cx="0.5" cy="0.5" r="0.5" stroke="none" fill="#000"></circle></pattern></defs><rect x="33.33333333333333" y="92" width="133.33333333333334" height="66.66666666666667" fill="url(#beard-109419)" clip-path="url(#beard-cut-off-109419)"></rect><path stroke-width="6.666666666666667" stroke="#d9825b" fill="none" stroke-linecap="round" d="M 86.66666666666667 108.16901408450704 C 96.66666666666667 108.16901408450704, 103.33333333333333 108.16901408450704, 113.33333333333333 108.16901408450704"></path><path stroke-width="2" stroke="#000000" fill="none" stroke-linecap="round" d="M 89 108.16901408450704 C 99 108.16901408450704, 101 108.16901408450704, 111 108.16901408450704"></path><path fill="#000000" d="M 33.33333333333333 80.10000000000001 A 66.66666666666667 66.66666666666667 0 0 0 166.66666666666669 80.1 L 164 80.1 A 64 64 0 0 1 36 80.10000000000001 L 33.33333333333333 80.10000000000001 Z"></path><defs><pattern id="cap-109419" x="33.33333333333333" y="13.333333333333329" width="2.9629629629629632" height="14.814814814814817" patternUnits="userSpaceOnUse"><rect x="0" y="0" width="133.33333333333334" height="14.814814814814817" fill="#000"></rect><line x1="0" y1="0" x2="0" y2="14.814814814814817" stroke="#583101" stroke-width="2.9629629629629632"></line></pattern></defs><clipPath id="head_clip-109419"><circle id="head_clip" cx="100" cy="80" r="66.66666666666667"></circle></clipPath><rect x="33.33333333333333" y="26.801346801346796" width="133.33333333333334" height="14.814814814814817" fill="url(#cap-109419)" clip-path="url(#head_clip-109419)"></rect></svg>