<svg xmlns="http://www.w3.org/2000/svg" id="natnerd-109530" class="natnerd" viewBox="0 0 200 200" style="width: 200px; height: 200px;"><defs><pattern id="pattern_109530" class="pattern" x="0" y="0" width="15" height="15" patternUnits="userSpaceOnUse" patternTransform="rotate(-45)"><rect class="shirt-pattern-background" x="0" y="0" width="200" height="200" stroke="none" fill="#b10dc9"></rect><line class="shirt-line-pattern" x1="0" y1="0" x2="200" y2="0" stroke="#7fdbff" stroke-width="1"></line></pattern></defs><path class="shirt" stroke="#000000" stroke-width="2" transform="translate(50, 133.33333333333331)" fill="url(#pattern_109530)" d="
    M10.81081081081081,0
    h78.37837837837839
    a10.81081081081081,10.81081081081081 0 0 1 10.81081081081081,10.81081081081081
    v58.37837837837838
    a10.81081081081081,10.81081081081081 0 0 1 -10.81081081081081,10.81081081081081
    h-78.37837837837839
    a10.81081081081081,10.81081081081081 0 0 1 -10.81081081081081,-10.81081081081081
    v-58.37837837837838
    a10.81081081081081,10.81081081081081 0 0 1 10.81081081081081,-10.81081081081081
    z
"></path><line class="left-inner-arm" x1="70" y1="200" x2="70" y2="160" stroke="#000000" stroke-width="2"></line><line class="right-inner-arm" x1="130" y1="200" x2="130" y2="160" stroke="#000000" stroke-width="2"></line><circle id="head-109530" class="head" cx="100" cy="80" r="66.66666666666667" fill="#945245"></circle><circle class="left-eye-white" cx="80" cy="60" r="16.666666666666668" fill="white"></circle><circle class="left-eye" cx="69.5" cy="60" r="5" fill="#8e7618"></circle><circle class="left-eye-black" cx="68.66666666666666" cy="60" r="2.5" fill="black"></circle><circle class="left-eye-light" cx="70.75" cy="57.5" r="1.25" fill="white"></circle><circle class="right-eye-white" cx="120" cy="60" r="16.666666666666668" fill="white"></circle><circle class="right-eye" cx="109.5" cy="60" r="5" fill="#8e7618"></circle><circle class="right-eye-black" cx="108.66666666666666" cy="60" r="2.5" fill="black"></circle><circle class="right-eye-light" cx="110.75" cy="57.5" r="1.25" fill="white"></circle><g class="beard"><clipPath id="beard-cut-off-109530" class="beard-cut-off"><circle cx="100" cy="80" r="66.66666666666667"></circle></clipPath><defs><pattern id="beard-109530" class="beard" x="0" y="0" width="2.5" height="2.5" patternUnits="userSpaceOnUse" patternTransform="rotate(45)"><circle cx="0.5" cy="0.5" r="0.5" stroke="none" fill="#4e3629"></circle></pattern></defs><rect x="33.33333333333333" y="92" width="133.33333333333334" height="66.66666666666667" fill="url(#beard-109530)" clip-path="url(#beard-cut-off-109530)"></rect></g><path class="mouth-lips" stroke-width="6.666666666666667" stroke="#945245" fill="none" stroke-linecap="round" d="M 86.66666666666667 108.16901408450704 C 96.66666666666667 108.16901408450704, 103.33333333333333 108.16901408450704, 113.33333333333333 108.16901408450704"></path><path class="mouth" stroke-width="2" stroke="#000000" fill="none" stroke-linecap="round" d="M 89 108.16901408450704 C 99 108.16901408450704, 101 108.16901408450704, 111 108.16901408450704"></path><circle class="head-stroke" cx="100" cy="80" r="66.66666666666667" fill="none" stroke-width="4" stroke="#000000"></circle><g class="headband"><defs><pattern id="cap-109530" x="33.33333333333333" y="13.333333333333329" width="2.9629629629629632" height="14.814814814814817" patternUnits="userSpaceOnUse"><rect x="0" y="0" width="133.33333333333334" height="14.814814814814817" fill="#000"></rect><line x1="0" y1="0" x2="0" y2="14.814814814814817" stroke="#008000" stroke-width="2.9629629629629632"></line></pattern></defs><clipPath id="head_clip-109530"><circle id="head_clip" cx="100" cy="80" r="68.66666666666667"></circle></clipPath><rect x="33.33333333333333" y="26.801346801346796" width="133.33333333333334" height="14.814814814814817" fill="url(#cap-109530)" clip-path="url(#head_clip-109530)"></rect></g></svg>