<svg xmlns="http://www.w3.org/2000/svg" id="natnerd-109692" viewBox="0 0 200 200" style="width: 200px; height: 200px;"><defs><pattern id="pattern_109692" x="0" y="0" width="1" height="68.96551724137932" patternUnits="userSpaceOnUse"><g x="0" y="0" width="1" height="68.96551724137932"><rect x="0" y="0" width="1" height="11.49425287356322" stroke="none" fill="#e40303"></rect><rect x="0" y="11.49425287356322" width="1" height="11.49425287356322" stroke="none" fill="#ff8c00"></rect><rect x="0" y="22.98850574712644" width="1" height="11.49425287356322" stroke="none" fill="#ffed00"></rect><rect x="0" y="34.48275862068966" width="1" height="11.49425287356322" stroke="none" fill="#008026"></rect><rect x="0" y="45.97701149425288" width="1" height="11.49425287356322" stroke="none" fill="#24408e"></rect><rect x="0" y="57.4712643678161" width="1" height="11.49425287356322" stroke="none" fill="#732982"></rect></g></pattern></defs><path stroke="#000000" stroke-width="2" transform="translate(50, 133.33333333333331)" fill="url(#pattern_109692)" d="
        M10.81081081081081,0
        h78.37837837837839
        a10.81081081081081,10.81081081081081 0 0 1 10.81081081081081,10.81081081081081
        v58.37837837837838
        a10.81081081081081,10.81081081081081 0 0 1 -10.81081081081081,10.81081081081081
        h-78.37837837837839
        a10.81081081081081,10.81081081081081 0 0 1 -10.81081081081081,-10.81081081081081
        v-58.37837837837838
        a10.81081081081081,10.81081081081081 0 0 1 10.81081081081081,-10.81081081081081
        z
    "></path><circle cx="100" cy="166.66666666666669" r="2.99999999985" fill="#000000"></circle><circle cx="99.300000000735" cy="165.96666666740168" r="0.299999999985" fill="#ffffff"></circle><circle cx="99.300000000735" cy="167.3666666659317" r="0.299999999985" fill="#ffffff"></circle><circle cx="100.699999999265" cy="165.96666666740168" r="0.299999999985" fill="#ffffff"></circle><circle cx="100.699999999265" cy="167.3666666659317" r="0.299999999985" fill="#ffffff"></circle><circle cx="100" cy="180.00000000000003" r="2.99999999985" fill="#000000"></circle><circle cx="99.300000000735" cy="179.30000000073503" r="0.299999999985" fill="#ffffff"></circle><circle cx="99.300000000735" cy="180.69999999926503" r="0.299999999985" fill="#ffffff"></circle><circle cx="100.699999999265" cy="179.30000000073503" r="0.299999999985" fill="#ffffff"></circle><circle cx="100.699999999265" cy="180.69999999926503" r="0.299999999985" fill="#ffffff"></circle><circle cx="100" cy="193.33333333333337" r="2.99999999985" fill="#000000"></circle><circle cx="99.300000000735" cy="192.63333333406837" r="0.299999999985" fill="#ffffff"></circle><circle cx="99.300000000735" cy="194.03333333259837" r="0.299999999985" fill="#ffffff"></circle><circle cx="100.699999999265" cy="192.63333333406837" r="0.299999999985" fill="#ffffff"></circle><circle cx="100.699999999265" cy="194.03333333259837" r="0.299999999985" fill="#ffffff"></circle><line x1="70" y1="200" x2="70" y2="160" stroke="#000000" stroke-width="2"></line><line x1="130" y1="200" x2="130" y2="160" stroke="#000000" stroke-width="2"></line><circle id="head-109692" cx="100" cy="80" r="66.66666666666667" fill="#704734"></circle><rect x="63.33333333333333" y="43.33333333333333" width="33.333333333333336" height="33.333333333333336" fill="white"></rect><circle id="left-eye" cx="70.4" cy="60" r="6" fill="#008080"></circle><circle id="left-eye-black" cx="69.06666666666666" cy="60" r="3" fill="black"></circle><circle id="left-eye-light" cx="71.9" cy="57" r="1.5" fill="white"></circle><rect x="103.33333333333333" y="43.33333333333333" width="33.333333333333336" height="33.333333333333336" fill="white"></rect><circle cx="110.4" cy="60" r="6" fill="#008080"></circle><circle cx="109.06666666666666" cy="60" r="3" fill="black"></circle><circle cx="111.9" cy="57" r="1.5" fill="white"></circle><clipPath id="beard-cut-off-109692"><circle cx="100" cy="80" r="66.66666666666667"></circle></clipPath><defs><pattern id="beard-109692" x="0" y="0" width="2.5" height="2.5" patternUnits="userSpaceOnUse" patternTransform="rotate(45)"><circle cx="0.5" cy="0.5" r="0.5" stroke="none" fill="#b55239"></circle></pattern></defs><rect x="33.33333333333333" y="92" width="133.33333333333334" height="66.66666666666667" fill="url(#beard-109692)" clip-path="url(#beard-cut-off-109692)"></rect><path stroke-width="6.666666666666667" stroke="#704734" fill="none" stroke-linecap="round" d="M 86.66666666666667 108.16901408450704 C 96.66666666666667 108.16901408450704, 103.33333333333333 108.16901408450704, 113.33333333333333 108.16901408450704"></path><path stroke-width="2" stroke="#000000" fill="none" stroke-linecap="round" d="M 89 108.16901408450704 C 99 108.16901408450704, 101 108.16901408450704, 111 108.16901408450704"></path><clipPath id="glasses-109692-cut-off"><circle cx="100" cy="80" r="66.66666666666667"></circle></clipPath><line x1="30.162204875047678" y1="59.662757570437094" x2="63.33333333333333" y2="60" stroke="#000000" stroke-width="4" clip-path="url(#glasses-109692-cut-off)"></line><rect x="63.33333333333333" y="43.33333333333333" width="33.333333333333336" height="33.333333333333336" fill="none" stroke="#000000" stroke-width="4"></rect><rect x="103.33333333333333" y="43.33333333333333" width="33.333333333333336" height="33.333333333333336" fill="none" stroke="#000000" stroke-width="4"></rect><line x1="169.83779512495232" y1="59.662757570437094" x2="136.66666666666666" y2="60" stroke="#000000" stroke-width="4" clip-path="url(#glasses-109692-cut-off)"></line><line x1="96.66666666666667" y1="60" x2="103.33333333333333" y2="60" stroke="#000000" stroke-width="4"></line><circle id="head-109692-stroke" cx="100" cy="80" r="66.66666666666667" fill="none" stroke-width="4" stroke="#000000"></circle><defs><pattern id="cap-109692" x="33.33333333333333" y="13.333333333333329" width="2.9629629629629632" height="14.814814814814817" patternUnits="userSpaceOnUse"><rect x="0" y="0" width="133.33333333333334" height="14.814814814814817" fill="#000"></rect><line x1="0" y1="0" x2="0" y2="14.814814814814817" stroke="#ffdc00" stroke-width="2.9629629629629632"></line></pattern></defs><clipPath id="head_clip-109692"><circle id="head_clip" cx="100" cy="80" r="68.66666666666667"></circle></clipPath><rect x="33.33333333333333" y="26.801346801346796" width="133.33333333333334" height="14.814814814814817" fill="url(#cap-109692)" clip-path="url(#head_clip-109692)"></rect></svg>