<svg xmlns="http://www.w3.org/2000/svg" id="natnerd-110258" class="natnerd" viewBox="0 0 200 200" style="width: 200px; height: 200px;"><path class="shirt" stroke="#000000" stroke-width="2" transform="translate(50, 133.33333333333331)" fill="#7fdbff" d="
    M10.81081081081081,0
    h78.37837837837839
    a10.81081081081081,10.81081081081081 0 0 1 10.81081081081081,10.81081081081081
    v58.37837837837838
    a10.81081081081081,10.81081081081081 0 0 1 -10.81081081081081,10.81081081081081
    h-78.37837837837839
    a10.81081081081081,10.81081081081081 0 0 1 -10.81081081081081,-10.81081081081081
    v-58.37837837837838
    a10.81081081081081,10.81081081081081 0 0 1 10.81081081081081,-10.81081081081081
    z
"></path><svg class="shirt-big-bitcoin-logo" viewBox="0 0 64 64" width="32" height="32" x="84" y="154.66666666666669"><g><path fill="#f7931a" d="m63.033,39.744c-4.274,17.143-21.637,27.576-38.782,23.301-17.138-4.274-27.571-21.638-23.295-38.78,4.272-17.145,21.635-27.579,38.775-23.305,17.144,4.274,27.576,21.64,23.302,38.784z"></path><path fill="#ffffff" d="m46.103,27.444c0.637-4.258-2.605-6.547-7.038-8.074l1.438-5.768-3.511-0.875-1.4,5.616c-0.923-0.23-1.871-0.447-2.813-0.662l1.41-5.653-3.509-0.875-1.439,5.766c-0.764-0.174-1.514-0.346-2.242-0.527l0.004-0.018-4.842-1.209-0.934,3.75s2.605,0.597,2.55,0.634c1.422,0.355,1.679,1.296,1.636,2.042l-1.638,6.571c0.098,0.025,0.225,0.061,0.365,0.117-0.117-0.029-0.242-0.061-0.371-0.092l-2.296,9.205c-0.174,0.432-0.615,1.08-1.609,0.834,0.035,0.051-2.552-0.637-2.552-0.637l-1.743,4.019,4.569,1.139c0.85,0.213,1.683,0.436,2.503,0.646l-1.453,5.834,3.507,0.875,1.439-5.772c0.958,0.26,1.888,0.5,2.798,0.726l-1.434,5.745,3.511,0.875,1.453-5.823c5.987,1.133,10.489,0.676,12.384-4.739,1.527-4.36-0.076-6.875-3.226-8.515,2.294-0.529,4.022-2.038,4.483-5.155zm-8.022,11.249c-1.085,4.36-8.426,2.003-10.806,1.412l1.928-7.729c2.38,0.594,10.012,1.77,8.878,6.317zm1.086-11.312c-0.99,3.966-7.1,1.951-9.082,1.457l1.748-7.01c1.982,0.494,8.365,1.416,7.334,5.553z"></path></g></svg><line class="left-inner-arm" x1="70" y1="200" x2="70" y2="160" stroke="#000000" stroke-width="2"></line><line class="right-inner-arm" x1="130" y1="200" x2="130" y2="160" stroke="#000000" stroke-width="2"></line><circle id="head-110258" class="head" cx="100" cy="80" r="66.66666666666667" fill="#ffab71"></circle><circle class="left-eye-white" cx="80" cy="60" r="16.666666666666668" fill="white"></circle><circle class="left-eye" cx="86.9" cy="60" r="9" fill="#593e1a"></circle><circle class="left-eye-black" cx="89.73333333333333" cy="60" r="4.5" fill="black"></circle><circle class="left-eye-light" cx="84.65" cy="55.5" r="2.25" fill="white"></circle><circle class="right-eye-white" cx="120" cy="60" r="16.666666666666668" fill="white"></circle><circle class="right-eye" cx="126.9" cy="60" r="9" fill="#593e1a"></circle><circle class="right-eye-black" cx="129.73333333333335" cy="60" r="4.5" fill="black"></circle><circle class="right-eye-light" cx="124.65" cy="55.5" r="2.25" fill="white"></circle><circle class="mouth-lips" cx="100" cy="108.16901408450704" r="11.9999999976" fill="#ffab71"></circle><circle class="mouth" cx="100" cy="108.16901408450704" r="10" fill="#000000"></circle><clipPath id="cut-off-110258"><circle cx="100" cy="108.16901408450704" r="10"></circle></clipPath><rect class="upper-teeth" x="90" y="98.16901408450704" width="20" height="5" fill="white" stroke="none" clip-path="url(#cut-off-110258)"></rect><circle class="mouth-stroke" cx="100" cy="108.16901408450704" r="10" fill="none" stroke="#000000" stroke-width="2"></circle><circle class="head-stroke" cx="100" cy="80" r="66.66666666666667" fill="none" stroke-width="4" stroke="#000000"></circle><g class="headband"><defs><pattern id="cap-110258" x="33.33333333333333" y="13.333333333333329" width="2.9629629629629632" height="14.814814814814817" patternUnits="userSpaceOnUse"><rect x="0" y="0" width="133.33333333333334" height="14.814814814814817" fill="#000"></rect><line x1="0" y1="0" x2="0" y2="14.814814814814817" stroke="#008000" stroke-width="2.9629629629629632"></line></pattern></defs><clipPath id="head_clip-110258"><circle id="head_clip" cx="100" cy="80" r="68.66666666666667"></circle></clipPath><rect x="33.33333333333333" y="26.801346801346796" width="133.33333333333334" height="14.814814814814817" fill="url(#cap-110258)" clip-path="url(#head_clip-110258)"></rect></g></svg>