<svg xmlns="http://www.w3.org/2000/svg" id="natnerd-110451" viewBox="0 0 200 200" style="width: 200px; height: 200px;"><defs><pattern id="pattern_110451" x="0" y="0" width="10" height="10" patternUnits="userSpaceOnUse" patternTransform="rotate(-45)"><rect x="0" y="0" width="200" height="200" stroke="none" fill="#85144b"></rect><line x1="0" y1="0" x2="200" y2="0" stroke="#7fdbff" stroke-width="1"></line></pattern></defs><path stroke="#000000" stroke-width="2" transform="translate(50, 133.33333333333331)" fill="url(#pattern_110451)" d="
        M10.81081081081081,0
        h78.37837837837839
        a10.81081081081081,10.81081081081081 0 0 1 10.81081081081081,10.81081081081081
        v58.37837837837838
        a10.81081081081081,10.81081081081081 0 0 1 -10.81081081081081,10.81081081081081
        h-78.37837837837839
        a10.81081081081081,10.81081081081081 0 0 1 -10.81081081081081,-10.81081081081081
        v-58.37837837837838
        a10.81081081081081,10.81081081081081 0 0 1 10.81081081081081,-10.81081081081081
        z
    "></path><line x1="70" y1="200" x2="70" y2="160" stroke="#000000" stroke-width="2"></line><line x1="130" y1="200" x2="130" y2="160" stroke="#000000" stroke-width="2"></line><circle id="head-110451" cx="100" cy="80" r="66.66666666666667" fill="#d9825b"></circle><circle id="left-eye-white" cx="80" cy="60" r="16.666666666666668" fill="white"></circle><circle id="left-eye" cx="90.05" cy="60" r="5.5" fill="#593e1a"></circle><circle id="left-eye-black" cx="91.13333333333334" cy="60" r="2.75" fill="black"></circle><circle id="left-eye-light" cx="88.675" cy="57.25" r="1.375" fill="white"></circle><circle cx="120" cy="60" r="16.666666666666668" fill="white"></circle><circle cx="130.05" cy="60" r="5.5" fill="#593e1a"></circle><circle cx="131.13333333333333" cy="60" r="2.75" fill="black"></circle><circle cx="128.675" cy="57.25" r="1.375" fill="white"></circle><circle cx="100" cy="108.16901408450704" r="11.9999999976" fill="#d9825b"></circle><circle cx="100" cy="108.16901408450704" r="10" fill="#000000"></circle><clipPath id="cut-off-110451"><circle cx="100" cy="108.16901408450704" r="10"></circle></clipPath><rect x="90" y="98.16901408450704" width="20" height="5" fill="white" stroke="none" clip-path="url(#cut-off-110451)"></rect><circle cx="100" cy="108.16901408450704" r="10" fill="none" stroke="#000000" stroke-width="2"></circle><path fill="#000000" d="M 33.33333333333333 80.10000000000001 A 66.66666666666667 66.66666666666667 0 0 0 166.66666666666669 80.1 L 164 80.1 A 64 64 0 0 1 36 80.10000000000001 L 33.33333333333333 80.10000000000001 Z"></path><defs><pattern id="cap-110451" x="33.33333333333333" y="13.333333333333329" width="2.9629629629629632" height="14.814814814814817" patternUnits="userSpaceOnUse"><rect x="0" y="0" width="133.33333333333334" height="14.814814814814817" fill="#000"></rect><line x1="0" y1="0" x2="0" y2="14.814814814814817" stroke="#008000" stroke-width="2.9629629629629632"></line></pattern></defs><clipPath id="head_clip-110451"><circle id="head_clip" cx="100" cy="80" r="66.66666666666667"></circle></clipPath><rect x="33.33333333333333" y="26.801346801346796" width="133.33333333333334" height="14.814814814814817" fill="url(#cap-110451)" clip-path="url(#head_clip-110451)"></rect></svg>