<svg xmlns="http://www.w3.org/2000/svg" id="natnerd-110598" viewBox="0 0 200 200" style="width: 200px; height: 200px;"><defs><pattern id="pattern_110598" x="0" y="0" width="15" height="15" patternUnits="userSpaceOnUse" patternTransform="rotate(90)"><rect x="0" y="0" width="200" height="200" stroke="none" fill="#b10dc9"></rect><line x1="0" y1="0" x2="200" y2="0" stroke="#39cccc" stroke-width="1"></line><line x1="0" y1="0" x2="0" y2="200" stroke="#39cccc" stroke-width="1"></line></pattern></defs><path stroke="#000000" stroke-width="2" transform="translate(50, 133.33333333333331)" fill="url(#pattern_110598)" d="
        M10.81081081081081,0
        h78.37837837837839
        a10.81081081081081,10.81081081081081 0 0 1 10.81081081081081,10.81081081081081
        v58.37837837837838
        a10.81081081081081,10.81081081081081 0 0 1 -10.81081081081081,10.81081081081081
        h-78.37837837837839
        a10.81081081081081,10.81081081081081 0 0 1 -10.81081081081081,-10.81081081081081
        v-58.37837837837838
        a10.81081081081081,10.81081081081081 0 0 1 10.81081081081081,-10.81081081081081
        z
    "></path><line x1="70" y1="200" x2="70" y2="160" stroke="#000000" stroke-width="2"></line><line x1="130" y1="200" x2="130" y2="160" stroke="#000000" stroke-width="2"></line><circle id="head-110598" cx="100" cy="80" r="66.66666666666667" fill="#945245"></circle><circle id="left-eye-white" cx="80" cy="60" r="16.666666666666668" fill="white"></circle><circle id="left-eye" cx="86.9" cy="60" r="9" fill="#008080"></circle><circle id="left-eye-black" cx="89.73333333333333" cy="60" r="4.5" fill="black"></circle><circle id="left-eye-light" cx="84.65" cy="55.5" r="2.25" fill="white"></circle><circle cx="120" cy="60" r="16.666666666666668" fill="white"></circle><circle cx="126.9" cy="60" r="9" fill="#008080"></circle><circle cx="129.73333333333335" cy="60" r="4.5" fill="black"></circle><circle cx="124.65" cy="55.5" r="2.25" fill="white"></circle><circle cx="100" cy="108.16901408450704" r="11.9999999976" fill="#945245"></circle><circle cx="100" cy="108.16901408450704" r="10" fill="#000000"></circle><clipPath id="cut-off-110598"><circle cx="100" cy="108.16901408450704" r="10"></circle></clipPath><rect x="90" y="98.16901408450704" width="20" height="5" fill="white" stroke="none" clip-path="url(#cut-off-110598)"></rect><circle cx="100" cy="108.16901408450704" r="10" fill="none" stroke="#000000" stroke-width="2"></circle><circle id="head-110598-stroke" cx="100" cy="80" r="66.66666666666667" fill="none" stroke-width="4" stroke="#000000"></circle><defs><pattern id="cap-110598" x="33.33333333333333" y="13.333333333333329" width="2.9629629629629632" height="14.814814814814817" patternUnits="userSpaceOnUse"><rect x="0" y="0" width="133.33333333333334" height="14.814814814814817" fill="#000"></rect><line x1="0" y1="0" x2="0" y2="14.814814814814817" stroke="#ffdc00" stroke-width="2.9629629629629632"></line></pattern></defs><clipPath id="head_clip-110598"><circle id="head_clip" cx="100" cy="80" r="68.66666666666667"></circle></clipPath><rect x="33.33333333333333" y="26.801346801346796" width="133.33333333333334" height="14.814814814814817" fill="url(#cap-110598)" clip-path="url(#head_clip-110598)"></rect></svg>