<svg xmlns="http://www.w3.org/2000/svg" id="natnerd-110867" viewBox="0 0 200 200" style="width: 200px; height: 200px;"><path stroke="#000000" stroke-width="2" transform="translate(50, 133.33333333333331)" fill="#7fdbff" d="
        M10.81081081081081,0
        h78.37837837837839
        a10.81081081081081,10.81081081081081 0 0 1 10.81081081081081,10.81081081081081
        v58.37837837837838
        a10.81081081081081,10.81081081081081 0 0 1 -10.81081081081081,10.81081081081081
        h-78.37837837837839
        a10.81081081081081,10.81081081081081 0 0 1 -10.81081081081081,-10.81081081081081
        v-58.37837837837838
        a10.81081081081081,10.81081081081081 0 0 1 10.81081081081081,-10.81081081081081
        z
    "></path><text x="0" y="0" fill="#7fdbff" stroke="#000000" stroke-width="10" letter-spacing="2" font-size="36" text-anchor="middle" paint-order="stroke fill" font-weight="700" stroke-linejoin="round" font-family="Verdana" transform="translate(100,168.8888888888889) scale(0.2)">N4TN3RD5</text><line x1="70" y1="200" x2="70" y2="160" stroke="#000000" stroke-width="2"></line><line x1="130" y1="200" x2="130" y2="160" stroke="#000000" stroke-width="2"></line><rect x="70" y="190.76923076923077" width="60" height="40" fill="#4e3222" stroke="#000000" stroke-width="2"></rect><circle cx="100" cy="200" r="1.3333333333333333" fill="#000000"></circle><circle id="head-110867" cx="100" cy="80" r="66.66666666666667" fill="#4e3222"></circle><circle id="left-eye-white" cx="80" cy="60" r="16.666666666666668" fill="white"></circle><circle id="left-eye" cx="87.35" cy="60" r="8.5" fill="#778899"></circle><circle id="left-eye-black" cx="89.93333333333334" cy="60" r="4.25" fill="black"></circle><circle id="left-eye-light" cx="85.225" cy="55.75" r="2.125" fill="white"></circle><circle cx="120" cy="60" r="16.666666666666668" fill="white"></circle><circle cx="127.35" cy="60" r="8.5" fill="#778899"></circle><circle cx="129.93333333333334" cy="60" r="4.25" fill="black"></circle><circle cx="125.225" cy="55.75" r="2.125" fill="white"></circle><circle cx="100" cy="108.16901408450704" r="11.9999999976" fill="#4e3222"></circle><circle cx="100" cy="108.16901408450704" r="10" fill="#000000"></circle><clipPath id="cut-off-110867"><circle cx="100" cy="108.16901408450704" r="10"></circle></clipPath><rect x="90" y="98.16901408450704" width="20" height="5" fill="white" stroke="none" clip-path="url(#cut-off-110867)"></rect><circle cx="100" cy="108.16901408450704" r="10" fill="none" stroke="#000000" stroke-width="2"></circle><circle id="head-110867-stroke" cx="100" cy="80" r="66.66666666666667" fill="none" stroke-width="2" stroke="#000000"></circle><path fill="#debe99" d="M 100 8.833333333333329 A 71.16666666666667 71.16666666666667 0 0 0 28.83333333333333 79.99999999999999 L 46.83333333333333 80 A 53.16666666666667 53.16666666666667 0 0 1 100 26.83333333333333 L 100 8.833333333333329 Z"></path><path fill="#debe99" d="M 171.16666666666669 80 A 71.16666666666667 71.16666666666667 0 0 0 98.75797040854665 8.844172361370155 L 99.07211372441776 26.841430874185193 A 53.16666666666667 53.16666666666667 0 0 1 153.16666666666669 80 L 171.16666666666669 80 Z"></path><rect x="28.83333333333333" y="79" width="18" height="200" fill="#debe99"></rect><rect x="153.16666666666669" y="79" width="18" height="200" fill="#debe99"></rect><path fill="#000" d="M 100 8.833333333333329 A 71.16666666666667 71.16666666666667 0 0 0 28.83333333333333 79.99999999999999 L 29.83333333333333 79.99999999999999 A 70.16666666666667 70.16666666666667 0 0 1 100 9.833333333333329 L 100 8.833333333333329 Z"></path><path fill="#000" d="M 171.16666666666669 80 A 71.16666666666667 71.16666666666667 0 0 0 98.75797040854665 8.844172361370155 L 98.77542281498394 9.844020056526546 A 70.16666666666667 70.16666666666667 0 0 1 170.16666666666669 80 L 171.16666666666669 80 Z"></path><rect x="28.83333333333333" y="79" width="1" height="200" fill="#000"></rect><rect x="170.16666666666669" y="79" width="1" height="200" fill="#000"></rect><path fill="#000" d="M 100 10.833333333333329 A 69.16666666666667 69.16666666666667 0 0 0 30.83333333333333 79.99999999999999 L 31.83333333333333 79.99999999999999 A 68.16666666666667 68.16666666666667 0 0 1 100 11.833333333333329 L 100 10.833333333333329 Z"></path><path fill="#000" d="M 169.16666666666669 80 A 69.16666666666667 69.16666666666667 0 0 0 98.79287522142123 10.843867751682936 L 98.81032762785851 11.843715446839326 A 68.16666666666667 68.16666666666667 0 0 1 168.16666666666669 80 L 169.16666666666669 80 Z"></path><rect x="30.83333333333333" y="79" width="1" height="200" fill="#000"></rect><rect x="168.16666666666669" y="79" width="1" height="200" fill="#000"></rect><path fill="#000" d="M 100 12.833333333333329 A 67.16666666666667 67.16666666666667 0 0 0 32.83333333333333 79.99999999999999 L 33.83333333333333 79.99999999999999 A 66.16666666666667 66.16666666666667 0 0 1 100 13.833333333333329 L 100 12.833333333333329 Z"></path><path fill="#000" d="M 167.16666666666669 80 A 67.16666666666667 67.16666666666667 0 0 0 98.8277800342958 12.843563141995716 L 98.84523244073307 13.843410837152106 A 66.16666666666667 66.16666666666667 0 0 1 166.16666666666669 80 L 167.16666666666669 80 Z"></path><rect x="32.83333333333333" y="79" width="1" height="200" fill="#000"></rect><rect x="166.16666666666669" y="79" width="1" height="200" fill="#000"></rect><path fill="#000" d="M 100 14.833333333333329 A 65.16666666666667 65.16666666666667 0 0 0 34.83333333333333 79.99999999999999 L 35.83333333333333 79.99999999999999 A 64.16666666666667 64.16666666666667 0 0 1 100 15.833333333333329 L 100 14.833333333333329 Z"></path><path fill="#000" d="M 165.16666666666669 80 A 65.16666666666667 65.16666666666667 0 0 0 98.86268484717036 14.843258532308496 L 98.88013725360764 15.843106227464887 A 64.16666666666667 64.16666666666667 0 0 1 164.16666666666669 80 L 165.16666666666669 80 Z"></path><rect x="34.83333333333333" y="79" width="1" height="200" fill="#000"></rect><rect x="164.16666666666669" y="79" width="1" height="200" fill="#000"></rect><path fill="#000" d="M 100 16.83333333333333 A 63.16666666666667 63.16666666666667 0 0 0 36.83333333333333 79.99999999999999 L 37.83333333333333 79.99999999999999 A 62.16666666666667 62.16666666666667 0 0 1 100 17.83333333333333 L 100 16.83333333333333 Z"></path><path fill="#000" d="M 163.16666666666669 80 A 63.16666666666667 63.16666666666667 0 0 0 98.89758966004493 16.842953922621277 L 98.91504206648221 17.842801617777674 A 62.16666666666667 62.16666666666667 0 0 1 162.16666666666669 80 L 163.16666666666669 80 Z"></path><rect x="36.83333333333333" y="79" width="1" height="200" fill="#000"></rect><rect x="162.16666666666669" y="79" width="1" height="200" fill="#000"></rect><path fill="#000" d="M 100 18.83333333333333 A 61.16666666666667 61.16666666666667 0 0 0 38.83333333333333 79.99999999999999 L 39.83333333333333 79.99999999999999 A 60.16666666666667 60.16666666666667 0 0 1 100 19.83333333333333 L 100 18.83333333333333 Z"></path><path fill="#000" d="M 161.16666666666669 80 A 61.16666666666667 61.16666666666667 0 0 0 98.9324944729195 18.842649312934064 L 98.94994687935677 19.842497008090454 A 60.16666666666667 60.16666666666667 0 0 1 160.16666666666669 80 L 161.16666666666669 80 Z"></path><rect x="38.83333333333333" y="79" width="1" height="200" fill="#000"></rect><rect x="160.16666666666669" y="79" width="1" height="200" fill="#000"></rect><path fill="#000" d="M 100 20.83333333333333 A 59.16666666666667 59.16666666666667 0 0 0 40.83333333333333 79.99999999999999 L 41.83333333333333 79.99999999999999 A 58.16666666666667 58.16666666666667 0 0 1 100 21.83333333333333 L 100 20.83333333333333 Z"></path><path fill="#000" d="M 159.16666666666669 80 A 59.16666666666667 59.16666666666667 0 0 0 98.96739928579406 20.842344703246845 L 98.98485169223135 21.842192398403235 A 58.16666666666667 58.16666666666667 0 0 1 158.16666666666669 80 L 159.16666666666669 80 Z"></path><rect x="40.83333333333333" y="79" width="1" height="200" fill="#000"></rect><rect x="158.16666666666669" y="79" width="1" height="200" fill="#000"></rect><path fill="#000" d="M 100 22.83333333333333 A 57.16666666666667 57.16666666666667 0 0 0 42.83333333333333 80 L 43.83333333333333 80 A 56.16666666666667 56.16666666666667 0 0 1 100 23.83333333333333 L 100 22.83333333333333 Z"></path><path fill="#000" d="M 157.16666666666669 80 A 57.16666666666667 57.16666666666667 0 0 0 99.00230409866863 22.842040093559625 L 99.01975650510592 23.841887788716022 A 56.16666666666667 56.16666666666667 0 0 1 156.16666666666669 80 L 157.16666666666669 80 Z"></path><rect x="42.83333333333333" y="79" width="1" height="200" fill="#000"></rect><rect x="156.16666666666669" y="79" width="1" height="200" fill="#000"></rect><path fill="#000" d="M 100 24.83333333333333 A 55.16666666666667 55.16666666666667 0 0 0 44.83333333333333 80 L 45.83333333333333 80 A 54.16666666666667 54.16666666666667 0 0 1 100 25.83333333333333 L 100 24.83333333333333 Z"></path><path fill="#000" d="M 155.16666666666669 80 A 55.16666666666667 55.16666666666667 0 0 0 99.03720891154319 24.841735483872412 L 99.05466131798048 25.841583179028802 A 54.16666666666667 54.16666666666667 0 0 1 154.16666666666669 80 L 155.16666666666669 80 Z"></path><rect x="44.83333333333333" y="79" width="1" height="200" fill="#000"></rect><rect x="154.16666666666669" y="79" width="1" height="200" fill="#000"></rect><path fill="#000" d="M 100 26.83333333333333 A 53.16666666666667 53.16666666666667 0 0 0 46.83333333333333 80 L 47.83333333333333 80 A 52.16666666666667 52.16666666666667 0 0 1 100 27.83333333333333 L 100 26.83333333333333 Z"></path><path fill="#000" d="M 153.16666666666669 80 A 53.16666666666667 53.16666666666667 0 0 0 99.07211372441776 26.841430874185193 L 99.08956613085505 27.841278569341583 A 52.16666666666667 52.16666666666667 0 0 1 152.16666666666669 80 L 153.16666666666669 80 Z"></path><rect x="46.83333333333333" y="79" width="1" height="200" fill="#000"></rect><rect x="152.16666666666669" y="79" width="1" height="200" fill="#000"></rect><defs><pattern id="cap-110867" x="33.33333333333333" y="13.333333333333329" width="2.9629629629629632" height="14.814814814814817" patternUnits="userSpaceOnUse"><rect x="0" y="0" width="139.33333333333334" height="14.814814814814817" fill="#000"></rect><line x1="0" y1="0" x2="0" y2="14.814814814814817" stroke="#aa0000" stroke-width="2.9629629629629632"></line></pattern></defs><clipPath id="head_clip-110867"><circle id="head_clip" cx="100" cy="80" r="70.66666666666667"></circle></clipPath><rect x="33.33333333333333" y="26.801346801346796" width="139.33333333333334" height="14.814814814814817" fill="url(#cap-110867)" clip-path="url(#head_clip-110867)"></rect></svg>