<svg xmlns="http://www.w3.org/2000/svg" id="natnerd-191645" viewBox="0 0 200 200" style="width: 200px; height: 200px;"><path stroke="#000000" stroke-width="2" transform="translate(50, 133.33333333333331)" fill="#7fdbff" d="
        M10.81081081081081,0
        h78.37837837837839
        a10.81081081081081,10.81081081081081 0 0 1 10.81081081081081,10.81081081081081
        v58.37837837837838
        a10.81081081081081,10.81081081081081 0 0 1 -10.81081081081081,10.81081081081081
        h-78.37837837837839
        a10.81081081081081,10.81081081081081 0 0 1 -10.81081081081081,-10.81081081081081
        v-58.37837837837838
        a10.81081081081081,10.81081081081081 0 0 1 10.81081081081081,-10.81081081081081
        z
    "></path><line x1="70" y1="200" x2="70" y2="160" stroke="#000000" stroke-width="2"></line><line x1="130" y1="200" x2="130" y2="160" stroke="#000000" stroke-width="2"></line><path stroke="#000000" stroke-width="2" fill="#704734" transform="translate(100, 142.85714285714286)" d=" M  24.79483370507571   -14.196575366963907  A  28.571428571428573 28.571428571428573 -29.793805346802806 1 1 -24.674603296873315 -14.404529938674624"></path><rect x="70" y="190.76923076923077" width="60" height="40" fill="#704734" stroke="#000000" stroke-width="2"></rect><circle cx="100" cy="200" r="1.3333333333333333" fill="#000000"></circle><circle id="head-191645" cx="100" cy="80" r="66.66666666666667" fill="#704734"></circle><circle id="left-eye-white" cx="80" cy="60" r="16.666666666666668" fill="white"></circle><circle id="left-eye" cx="88.25" cy="60" r="7.5" fill="#b5651d"></circle><circle id="left-eye-black" cx="90.33333333333334" cy="60" r="3.75" fill="black"></circle><circle id="left-eye-light" cx="86.375" cy="56.25" r="1.875" fill="white"></circle><circle cx="120" cy="60" r="16.666666666666668" fill="white"></circle><circle cx="128.25" cy="60" r="7.5" fill="#b5651d"></circle><circle cx="130.33333333333334" cy="60" r="3.75" fill="black"></circle><circle cx="126.375" cy="56.25" r="1.875" fill="white"></circle><path stroke-width="6.666666666666667" stroke="#704734" fill="none" stroke-linecap="round" d="M 90 101.50234741784037 C 86.66666666666667 114.83568075117371, 113.33333333333333 114.83568075117371, 110 101.50234741784037"></path><path stroke-width="2" stroke="#000000" fill="none" stroke-linecap="round" d="M 90 102.66901408450704 C 89 113.66901408450704, 111 113.66901408450704, 110 102.66901408450704"></path><circle id="head-191645-stroke" cx="100" cy="80" r="66.66666666666667" fill="none" stroke-width="2" stroke="#000000"></circle><path fill="#d3d3d3" d="M 100 9.333333333333329 A 70.66666666666667 70.66666666666667 0 0 0 29.33333333333333 79.99999999999999 L 45.33333333333333 80 A 54.66666666666667 54.66666666666667 0 0 1 100 25.33333333333333 L 100 9.333333333333329 Z"></path><path fill="#d3d3d3" d="M 170.66666666666669 80 A 70.66666666666667 70.66666666666667 0 0 0 98.7666966117653 9.344096208948343 L 99.04593511476183 25.341659331450607 A 54.66666666666667 54.66666666666667 0 0 1 154.66666666666669 80 L 170.66666666666669 80 Z"></path><rect x="29.33333333333333" y="79" width="16" height="200" fill="#d3d3d3"></rect><rect x="154.66666666666669" y="79" width="16" height="200" fill="#d3d3d3"></rect><path fill="#000" d="M 100 9.333333333333329 A 70.66666666666667 70.66666666666667 0 0 0 29.33333333333333 79.99999999999999 L 30.33333333333333 79.99999999999999 A 69.66666666666667 69.66666666666667 0 0 1 100 10.333333333333329 L 100 9.333333333333329 Z"></path><path fill="#000" d="M 170.66666666666669 80 A 70.66666666666667 70.66666666666667 0 0 0 98.7666966117653 9.344096208948343 L 98.78414901820258 10.343943904104734 A 69.66666666666667 69.66666666666667 0 0 1 169.66666666666669 80 L 170.66666666666669 80 Z"></path><rect x="29.33333333333333" y="79" width="1" height="200" fill="#000"></rect><rect x="169.66666666666669" y="79" width="1" height="200" fill="#000"></rect><path fill="#000" d="M 100 11.333333333333329 A 68.66666666666667 68.66666666666667 0 0 0 31.33333333333333 79.99999999999999 L 32.33333333333333 79.99999999999999 A 67.66666666666667 67.66666666666667 0 0 1 100 12.333333333333329 L 100 11.333333333333329 Z"></path><path fill="#000" d="M 168.66666666666669 80 A 68.66666666666667 68.66666666666667 0 0 0 98.80160142463987 11.343791599261124 L 98.81905383107716 12.343639294417514 A 67.66666666666667 67.66666666666667 0 0 1 167.66666666666669 80 L 168.66666666666669 80 Z"></path><rect x="31.33333333333333" y="79" width="1" height="200" fill="#000"></rect><rect x="167.66666666666669" y="79" width="1" height="200" fill="#000"></rect><path fill="#000" d="M 100 13.333333333333329 A 66.66666666666667 66.66666666666667 0 0 0 33.33333333333333 79.99999999999999 L 34.33333333333333 79.99999999999999 A 65.66666666666667 65.66666666666667 0 0 1 100 14.333333333333329 L 100 13.333333333333329 Z"></path><path fill="#000" d="M 166.66666666666669 80 A 66.66666666666667 66.66666666666667 0 0 0 98.83650623751444 13.343486989573904 L 98.85395864395171 14.343334684730308 A 65.66666666666667 65.66666666666667 0 0 1 165.66666666666669 80 L 166.66666666666669 80 Z"></path><rect x="33.33333333333333" y="79" width="1" height="200" fill="#000"></rect><rect x="165.66666666666669" y="79" width="1" height="200" fill="#000"></rect><path fill="#000" d="M 100 15.333333333333329 A 64.66666666666667 64.66666666666667 0 0 0 35.33333333333333 79.99999999999999 L 36.33333333333333 79.99999999999999 A 63.66666666666667 63.66666666666667 0 0 1 100 16.33333333333333 L 100 15.333333333333329 Z"></path><path fill="#000" d="M 164.66666666666669 80 A 64.66666666666667 64.66666666666667 0 0 0 98.871411050389 15.343182379886699 L 98.88886345682629 16.34303007504308 A 63.66666666666667 63.66666666666667 0 0 1 163.66666666666669 80 L 164.66666666666669 80 Z"></path><rect x="35.33333333333333" y="79" width="1" height="200" fill="#000"></rect><rect x="163.66666666666669" y="79" width="1" height="200" fill="#000"></rect><path fill="#000" d="M 100 17.33333333333333 A 62.66666666666667 62.66666666666667 0 0 0 37.33333333333333 79.99999999999999 L 38.33333333333333 79.99999999999999 A 61.66666666666667 61.66666666666667 0 0 1 100 18.33333333333333 L 100 17.33333333333333 Z"></path><path fill="#000" d="M 162.66666666666669 80 A 62.66666666666667 62.66666666666667 0 0 0 98.90631586326357 17.34287777019948 L 98.92376826970086 18.34272546535587 A 61.66666666666667 61.66666666666667 0 0 1 161.66666666666669 80 L 162.66666666666669 80 Z"></path><rect x="37.33333333333333" y="79" width="1" height="200" fill="#000"></rect><rect x="161.66666666666669" y="79" width="1" height="200" fill="#000"></rect><path fill="#000" d="M 100 19.33333333333333 A 60.66666666666667 60.66666666666667 0 0 0 39.33333333333333 79.99999999999999 L 40.33333333333333 79.99999999999999 A 59.66666666666667 59.66666666666667 0 0 1 100 20.33333333333333 L 100 19.33333333333333 Z"></path><path fill="#000" d="M 160.66666666666669 80 A 60.66666666666667 60.66666666666667 0 0 0 98.94122067613813 19.34257316051226 L 98.95867308257542 20.34242085566865 A 59.66666666666667 59.66666666666667 0 0 1 159.66666666666669 80 L 160.66666666666669 80 Z"></path><rect x="39.33333333333333" y="79" width="1" height="200" fill="#000"></rect><rect x="159.66666666666669" y="79" width="1" height="200" fill="#000"></rect><path fill="#000" d="M 100 21.33333333333333 A 58.66666666666667 58.66666666666667 0 0 0 41.33333333333333 79.99999999999999 L 42.33333333333333 80 A 57.66666666666667 57.66666666666667 0 0 1 100 22.33333333333333 L 100 21.33333333333333 Z"></path><path fill="#000" d="M 158.66666666666669 80 A 58.66666666666667 58.66666666666667 0 0 0 98.9761254890127 21.34226855082504 L 98.99357789544999 22.34211624598143 A 57.66666666666667 57.66666666666667 0 0 1 157.66666666666669 80 L 158.66666666666669 80 Z"></path><rect x="41.33333333333333" y="79" width="1" height="200" fill="#000"></rect><rect x="157.66666666666669" y="79" width="1" height="200" fill="#000"></rect><path fill="#000" d="M 100 23.33333333333333 A 56.66666666666667 56.66666666666667 0 0 0 43.33333333333333 80 L 44.33333333333333 80 A 55.66666666666667 55.66666666666667 0 0 1 100 24.33333333333333 L 100 23.33333333333333 Z"></path><path fill="#000" d="M 156.66666666666669 80 A 56.66666666666667 56.66666666666667 0 0 0 99.01103030188727 23.34196394113782 L 99.02848270832455 24.341811636294217 A 55.66666666666667 55.66666666666667 0 0 1 155.66666666666669 80 L 156.66666666666669 80 Z"></path><rect x="43.33333333333333" y="79" width="1" height="200" fill="#000"></rect><rect x="155.66666666666669" y="79" width="1" height="200" fill="#000"></rect><path fill="#000" d="M 100 25.33333333333333 A 54.66666666666667 54.66666666666667 0 0 0 45.33333333333333 80 L 46.33333333333333 80 A 53.66666666666667 53.66666666666667 0 0 1 100 26.33333333333333 L 100 25.33333333333333 Z"></path><path fill="#000" d="M 154.66666666666669 80 A 54.66666666666667 54.66666666666667 0 0 0 99.04593511476183 25.341659331450607 L 99.06338752119912 26.341507026606997 A 53.66666666666667 53.66666666666667 0 0 1 153.66666666666669 80 L 154.66666666666669 80 Z"></path><rect x="45.33333333333333" y="79" width="1" height="200" fill="#000"></rect><rect x="153.66666666666669" y="79" width="1" height="200" fill="#000"></rect><defs><pattern id="cap-191645" x="33.33333333333333" y="13.333333333333329" width="2.9629629629629632" height="14.814814814814817" patternUnits="userSpaceOnUse"><rect x="0" y="0" width="138.66666666666669" height="14.814814814814817" fill="#000"></rect><line x1="0" y1="0" x2="0" y2="14.814814814814817" stroke="#008000" stroke-width="2.9629629629629632"></line></pattern></defs><clipPath id="head_clip-191645"><circle id="head_clip" cx="100" cy="80" r="70.33333333333334"></circle></clipPath><rect x="33.33333333333333" y="26.801346801346796" width="138.66666666666669" height="14.814814814814817" fill="url(#cap-191645)" clip-path="url(#head_clip-191645)"></rect></svg>