<svg xmlns="http://www.w3.org/2000/svg" id="natnerd-191871" class="natnerd" viewBox="0 0 200 200" style="width: 200px; height: 200px;"><defs><pattern id="pattern_191871" class="pattern" x="0" y="0" width="20" height="20" patternUnits="userSpaceOnUse" patternTransform="rotate(45)"><rect class="shirt-pattern-background" x="0" y="0" width="200" height="200" stroke="none" fill="#aaaaaa"></rect><rect class="shirt-rect-pattern" x="0" y="0" width="10" height="10" stroke="none" fill="#39cccc"></rect></pattern></defs><path class="shirt" stroke="#000000" stroke-width="2" transform="translate(50, 133.33333333333331)" fill="url(#pattern_191871)" d="
    M10.81081081081081,0
    h78.37837837837839
    a10.81081081081081,10.81081081081081 0 0 1 10.81081081081081,10.81081081081081
    v58.37837837837838
    a10.81081081081081,10.81081081081081 0 0 1 -10.81081081081081,10.81081081081081
    h-78.37837837837839
    a10.81081081081081,10.81081081081081 0 0 1 -10.81081081081081,-10.81081081081081
    v-58.37837837837838
    a10.81081081081081,10.81081081081081 0 0 1 10.81081081081081,-10.81081081081081
    z
"></path><line class="left-inner-arm" x1="70" y1="200" x2="70" y2="160" stroke="#000000" stroke-width="2"></line><line class="right-inner-arm" x1="130" y1="200" x2="130" y2="160" stroke="#000000" stroke-width="2"></line><circle id="head-191871" class="head" cx="100" cy="80" r="66.66666666666667" fill="#4e3222"></circle><circle class="left-eye-white" cx="80" cy="60" r="16.666666666666668" fill="white"></circle><circle class="left-eye" cx="90.05" cy="60" r="5.5" fill="#0bda51"></circle><circle class="left-eye-black" cx="91.13333333333334" cy="60" r="2.75" fill="black"></circle><circle class="left-eye-light" cx="88.675" cy="57.25" r="1.375" fill="white"></circle><circle class="right-eye-white" cx="120" cy="60" r="16.666666666666668" fill="white"></circle><circle class="right-eye" cx="130.05" cy="60" r="5.5" fill="#0bda51"></circle><circle class="right-eye-black" cx="131.13333333333333" cy="60" r="2.75" fill="black"></circle><circle class="right-eye-light" cx="128.675" cy="57.25" r="1.375" fill="white"></circle><g class="beard"><clipPath id="beard-cut-off-191871" class="beard-cut-off"><circle cx="100" cy="80" r="66.66666666666667"></circle></clipPath><defs><pattern id="beard-191871" class="beard" x="0" y="0" width="2.5" height="2.5" patternUnits="userSpaceOnUse" patternTransform="rotate(45)"><circle cx="0.5" cy="0.5" r="0.5" stroke="none" fill="#d3d3d3"></circle></pattern></defs><rect x="33.33333333333333" y="92" width="133.33333333333334" height="66.66666666666667" fill="url(#beard-191871)" clip-path="url(#beard-cut-off-191871)"></rect></g><path class="mouth-lips" stroke-width="6.666666666666667" stroke="#4e3222" fill="none" stroke-linecap="round" d="M 90 101.50234741784037 C 86.66666666666667 114.83568075117371, 113.33333333333333 114.83568075117371, 110 101.50234741784037"></path><path class="mouth" stroke-width="2" stroke="#000000" fill="none" stroke-linecap="round" d="M 90 102.66901408450704 C 89 113.66901408450704, 111 113.66901408450704, 110 102.66901408450704"></path><path class="head-stroke" fill="#000000" d="M 33.33333333333333 80.10000000000001 A 66.66666666666667 66.66666666666667 0 0 0 166.66666666666669 80.1 L 164 80.1 A 64 64 0 0 1 36 80.10000000000001 L 33.33333333333333 80.10000000000001 Z"></path><g class="headband"><defs><pattern id="cap-191871" x="33.33333333333333" y="13.333333333333329" width="2.9629629629629632" height="14.814814814814817" patternUnits="userSpaceOnUse"><rect x="0" y="0" width="133.33333333333334" height="14.814814814814817" fill="#000"></rect><line x1="0" y1="0" x2="0" y2="14.814814814814817" stroke="#aa0000" stroke-width="2.9629629629629632"></line></pattern></defs><clipPath id="head_clip-191871"><circle id="head_clip" cx="100" cy="80" r="66.66666666666667"></circle></clipPath><rect x="33.33333333333333" y="26.801346801346796" width="133.33333333333334" height="14.814814814814817" fill="url(#cap-191871)" clip-path="url(#head_clip-191871)"></rect></g></svg>