<svg xmlns="http://www.w3.org/2000/svg" id="natnerd-192178" class="natnerd" viewBox="0 0 200 200" style="width: 200px; height: 200px;"><path class="shirt" stroke="#000000" stroke-width="2" transform="translate(50, 133.33333333333331)" fill="#39cccc" d="
    M10.81081081081081,0
    h78.37837837837839
    a10.81081081081081,10.81081081081081 0 0 1 10.81081081081081,10.81081081081081
    v58.37837837837838
    a10.81081081081081,10.81081081081081 0 0 1 -10.81081081081081,10.81081081081081
    h-78.37837837837839
    a10.81081081081081,10.81081081081081 0 0 1 -10.81081081081081,-10.81081081081081
    v-58.37837837837838
    a10.81081081081081,10.81081081081081 0 0 1 10.81081081081081,-10.81081081081081
    z
"></path><text class="shirt-text" x="0" y="0" fill="#39cccc" stroke="#000000" stroke-width="10" letter-spacing="2" font-size="36" text-anchor="middle" paint-order="stroke fill" font-weight="700" stroke-linejoin="round" font-family="Verdana" transform="translate(100,168.8888888888889) scale(0.2)">N4TN3RD5</text><rect class="left-collar" x="80" y="92.499999998125" width="40" height="15.00000000375" fill="#39cccc" stroke="#000000" transform-origin="center" transform="translate(-20, 40) rotate(45)" stroke-width="2"></rect><rect class="right-collar" x="80" y="92.499999998125" width="40" height="15.00000000375" fill="#39cccc" stroke="#000000" transform-origin="center" transform="translate(20, 40) rotate(-45)" stroke-width="2"></rect><line class="left-inner-arm" x1="70" y1="200" x2="70" y2="160" stroke="#000000" stroke-width="2"></line><line class="right-inner-arm" x1="130" y1="200" x2="130" y2="160" stroke="#000000" stroke-width="2"></line><circle id="head-192178" class="head" cx="100" cy="80" r="66.66666666666667" fill="#ffb181"></circle><circle class="left-eye-white" cx="80" cy="60" r="16.666666666666668" fill="white"></circle><circle class="left-eye" cx="86.9" cy="60" r="9" fill="#0bda51"></circle><circle class="left-eye-black" cx="89.73333333333333" cy="60" r="4.5" fill="black"></circle><circle class="left-eye-light" cx="84.65" cy="55.5" r="2.25" fill="white"></circle><circle class="right-eye-white" cx="120" cy="60" r="16.666666666666668" fill="white"></circle><circle class="right-eye" cx="126.9" cy="60" r="9" fill="#0bda51"></circle><circle class="right-eye-black" cx="129.73333333333335" cy="60" r="4.5" fill="black"></circle><circle class="right-eye-light" cx="124.65" cy="55.5" r="2.25" fill="white"></circle><path class="mouth-lips" stroke-width="6.666666666666667" stroke="#ffb181" fill="none" stroke-linecap="round" d="M 86.66666666666667 108.16901408450704 C 96.66666666666667 108.16901408450704, 103.33333333333333 108.16901408450704, 113.33333333333333 108.16901408450704"></path><path class="mouth" stroke-width="2" stroke="#000000" fill="none" stroke-linecap="round" d="M 89 108.16901408450704 C 99 108.16901408450704, 101 108.16901408450704, 111 108.16901408450704"></path><circle class="head-stroke" cx="100" cy="80" r="66.66666666666667" fill="none" stroke-width="4" stroke="#000000"></circle><g class="headband"><defs><pattern id="cap-192178" x="33.33333333333333" y="13.333333333333329" width="2.9629629629629632" height="14.814814814814817" patternUnits="userSpaceOnUse"><rect x="0" y="0" width="133.33333333333334" height="14.814814814814817" fill="#000"></rect><line x1="0" y1="0" x2="0" y2="14.814814814814817" stroke="#aa0000" stroke-width="2.9629629629629632"></line></pattern></defs><clipPath id="head_clip-192178"><circle id="head_clip" cx="100" cy="80" r="68.66666666666667"></circle></clipPath><rect x="33.33333333333333" y="26.801346801346796" width="133.33333333333334" height="14.814814814814817" fill="url(#cap-192178)" clip-path="url(#head_clip-192178)"></rect></g></svg>