<svg xmlns="http://www.w3.org/2000/svg" id="natnerd-192570" viewBox="0 0 200 200" style="width: 200px; height: 200px;"><defs><pattern id="pattern_192570" x="0" y="0" width="15" height="15" patternUnits="userSpaceOnUse" patternTransform="rotate(-45)"><rect x="0" y="0" width="200" height="200" stroke="none" fill="#b10dc9"></rect><line x1="0" y1="0" x2="200" y2="0" stroke="#39cccc" stroke-width="1"></line><line x1="0" y1="0" x2="0" y2="200" stroke="#39cccc" stroke-width="1"></line></pattern></defs><path stroke="#000000" stroke-width="2" transform="translate(50, 133.33333333333331)" fill="url(#pattern_192570)" d="
        M10.81081081081081,0
        h78.37837837837839
        a10.81081081081081,10.81081081081081 0 0 1 10.81081081081081,10.81081081081081
        v58.37837837837838
        a10.81081081081081,10.81081081081081 0 0 1 -10.81081081081081,10.81081081081081
        h-78.37837837837839
        a10.81081081081081,10.81081081081081 0 0 1 -10.81081081081081,-10.81081081081081
        v-58.37837837837838
        a10.81081081081081,10.81081081081081 0 0 1 10.81081081081081,-10.81081081081081
        z
    "></path><line x1="70" y1="200" x2="70" y2="160" stroke="#000000" stroke-width="2"></line><line x1="130" y1="200" x2="130" y2="160" stroke="#000000" stroke-width="2"></line><circle id="head-192570" cx="100" cy="80" r="66.66666666666667" fill="#945245"></circle><circle id="left-eye-white" cx="80" cy="60" r="16.666666666666668" fill="white"></circle><circle id="left-eye" cx="90.5" cy="60" r="5" fill="#0bda51"></circle><circle id="left-eye-black" cx="91.33333333333334" cy="60" r="2.5" fill="black"></circle><circle id="left-eye-light" cx="89.25" cy="57.5" r="1.25" fill="white"></circle><circle cx="120" cy="60" r="16.666666666666668" fill="white"></circle><circle cx="130.5" cy="60" r="5" fill="#0bda51"></circle><circle cx="131.33333333333334" cy="60" r="2.5" fill="black"></circle><circle cx="129.25" cy="57.5" r="1.25" fill="white"></circle><path stroke-width="6.666666666666667" stroke="#945245" fill="none" stroke-linecap="round" d="M 86.66666666666667 108.16901408450704 C 96.66666666666667 108.16901408450704, 103.33333333333333 108.16901408450704, 113.33333333333333 108.16901408450704"></path><path stroke-width="2" stroke="#000000" fill="none" stroke-linecap="round" d="M 89 108.16901408450704 C 99 108.16901408450704, 101 108.16901408450704, 111 108.16901408450704"></path><circle id="head-192570-stroke" cx="100" cy="80" r="66.66666666666667" fill="none" stroke-width="4" stroke="#000000"></circle><defs><pattern id="cap-192570" x="33.33333333333333" y="13.333333333333329" width="2.9629629629629632" height="14.814814814814817" patternUnits="userSpaceOnUse"><rect x="0" y="0" width="133.33333333333334" height="14.814814814814817" fill="#000"></rect><line x1="0" y1="0" x2="0" y2="14.814814814814817" stroke="#aa0000" stroke-width="2.9629629629629632"></line></pattern></defs><clipPath id="head_clip-192570"><circle id="head_clip" cx="100" cy="80" r="68.66666666666667"></circle></clipPath><rect x="33.33333333333333" y="26.801346801346796" width="133.33333333333334" height="14.814814814814817" fill="url(#cap-192570)" clip-path="url(#head_clip-192570)"></rect></svg>