<svg xmlns="http://www.w3.org/2000/svg" id="natnerd-192672" viewBox="0 0 200 200" style="width: 200px; height: 200px;"><defs><pattern id="pattern_192672" x="0" y="0" width="15" height="15" patternUnits="userSpaceOnUse" patternTransform="rotate(45)"><rect x="0" y="0" width="200" height="200" stroke="none" fill="#444444"></rect><rect x="0" y="0" width="7.5" height="7.5" stroke="none" fill="#39cccc"></rect></pattern></defs><path stroke="#000000" stroke-width="2" transform="translate(50, 133.33333333333331)" fill="url(#pattern_192672)" d="
        M10.81081081081081,0
        h78.37837837837839
        a10.81081081081081,10.81081081081081 0 0 1 10.81081081081081,10.81081081081081
        v58.37837837837838
        a10.81081081081081,10.81081081081081 0 0 1 -10.81081081081081,10.81081081081081
        h-78.37837837837839
        a10.81081081081081,10.81081081081081 0 0 1 -10.81081081081081,-10.81081081081081
        v-58.37837837837838
        a10.81081081081081,10.81081081081081 0 0 1 10.81081081081081,-10.81081081081081
        z
    "></path><line x1="70" y1="200" x2="70" y2="160" stroke="#000000" stroke-width="2"></line><line x1="130" y1="200" x2="130" y2="160" stroke="#000000" stroke-width="2"></line><circle id="head-192672" cx="100" cy="80" r="66.66666666666667" fill="#704734"></circle><rect x="63.33333333333333" y="43.33333333333333" width="33.333333333333336" height="33.333333333333336" fill="white"></rect><circle id="left-eye" cx="89.6" cy="60" r="6" fill="#0bda51"></circle><circle id="left-eye-black" cx="90.93333333333334" cy="60" r="3" fill="black"></circle><circle id="left-eye-light" cx="88.1" cy="57" r="1.5" fill="white"></circle><rect x="103.33333333333333" y="43.33333333333333" width="33.333333333333336" height="33.333333333333336" fill="white"></rect><circle cx="129.6" cy="60" r="6" fill="#0bda51"></circle><circle cx="130.93333333333334" cy="60" r="3" fill="black"></circle><circle cx="128.1" cy="57" r="1.5" fill="white"></circle><path stroke-width="6.666666666666667" stroke="#704734" fill="none" stroke-linecap="round" d="M 86.66666666666667 108.16901408450704 C 96.66666666666667 108.16901408450704, 103.33333333333333 108.16901408450704, 113.33333333333333 108.16901408450704"></path><path stroke-width="2" stroke="#000000" fill="none" stroke-linecap="round" d="M 89 108.16901408450704 C 99 108.16901408450704, 101 108.16901408450704, 111 108.16901408450704"></path><clipPath id="glasses-192672-cut-off"><circle cx="100" cy="80" r="66.66666666666667"></circle></clipPath><line x1="30.162204875047678" y1="59.662757570437094" x2="63.33333333333333" y2="60" stroke="#001f3f" stroke-width="4" clip-path="url(#glasses-192672-cut-off)"></line><rect x="63.33333333333333" y="43.33333333333333" width="33.333333333333336" height="33.333333333333336" fill="none" stroke="#001f3f" stroke-width="4"></rect><rect x="103.33333333333333" y="43.33333333333333" width="33.333333333333336" height="33.333333333333336" fill="none" stroke="#001f3f" stroke-width="4"></rect><line x1="169.83779512495232" y1="59.662757570437094" x2="136.66666666666666" y2="60" stroke="#001f3f" stroke-width="4" clip-path="url(#glasses-192672-cut-off)"></line><line x1="96.66666666666667" y1="60" x2="103.33333333333333" y2="60" stroke="#001f3f" stroke-width="4"></line><circle id="head-192672-stroke" cx="100" cy="80" r="66.66666666666667" fill="none" stroke-width="4" stroke="#000000"></circle><defs><pattern id="cap-192672" x="33.33333333333333" y="13.333333333333329" width="2.9629629629629632" height="14.814814814814817" patternUnits="userSpaceOnUse"><rect x="0" y="0" width="133.33333333333334" height="14.814814814814817" fill="#000"></rect><line x1="0" y1="0" x2="0" y2="14.814814814814817" stroke="#aa0000" stroke-width="2.9629629629629632"></line></pattern></defs><clipPath id="head_clip-192672"><circle id="head_clip" cx="100" cy="80" r="68.66666666666667"></circle></clipPath><rect x="33.33333333333333" y="26.801346801346796" width="133.33333333333334" height="14.814814814814817" fill="url(#cap-192672)" clip-path="url(#head_clip-192672)"></rect></svg>