<svg xmlns="http://www.w3.org/2000/svg" id="natnerd-192894" viewBox="0 0 200 200" style="width: 200px; height: 200px;"><defs><pattern id="pattern_192894" x="0" y="0" width="20" height="20" patternUnits="userSpaceOnUse" patternTransform="rotate(45)"><rect x="0" y="0" width="200" height="200" stroke="none" fill="#aaaaaa"></rect><rect x="0" y="0" width="10" height="10" stroke="none" fill="#39cccc"></rect></pattern></defs><path stroke="#000000" stroke-width="2" transform="translate(50, 133.33333333333331)" fill="url(#pattern_192894)" d="
        M10.81081081081081,0
        h78.37837837837839
        a10.81081081081081,10.81081081081081 0 0 1 10.81081081081081,10.81081081081081
        v58.37837837837838
        a10.81081081081081,10.81081081081081 0 0 1 -10.81081081081081,10.81081081081081
        h-78.37837837837839
        a10.81081081081081,10.81081081081081 0 0 1 -10.81081081081081,-10.81081081081081
        v-58.37837837837838
        a10.81081081081081,10.81081081081081 0 0 1 10.81081081081081,-10.81081081081081
        z
    "></path><line x1="70" y1="200" x2="70" y2="160" stroke="#000000" stroke-width="2"></line><line x1="130" y1="200" x2="130" y2="160" stroke="#000000" stroke-width="2"></line><circle id="head-192894" cx="100" cy="80" r="66.66666666666667" fill="#4e3222"></circle><circle id="left-eye-white" cx="80" cy="60" r="16.666666666666668" fill="white"></circle><circle id="left-eye" cx="80" cy="60" r="7.000000000000001" fill="#008080"></circle><circle id="left-eye-black" cx="80" cy="60" r="3.5000000000000004" fill="black"></circle><circle id="left-eye-light" cx="76.5" cy="56.5" r="1.7500000000000002" fill="white"></circle><circle cx="120" cy="60" r="16.666666666666668" fill="white"></circle><circle cx="120" cy="60" r="7.000000000000001" fill="#008080"></circle><circle cx="120" cy="60" r="3.5000000000000004" fill="black"></circle><circle cx="116.5" cy="56.5" r="1.7500000000000002" fill="white"></circle><path stroke-width="6.666666666666667" stroke="#4e3222" fill="none" stroke-linecap="round" d="M 86.66666666666667 108.16901408450704 C 96.66666666666667 108.16901408450704, 103.33333333333333 108.16901408450704, 113.33333333333333 108.16901408450704"></path><path stroke-width="2" stroke="#000000" fill="none" stroke-linecap="round" d="M 89 108.16901408450704 C 99 108.16901408450704, 101 108.16901408450704, 111 108.16901408450704"></path><circle id="head-192894-stroke" cx="100" cy="80" r="66.66666666666667" fill="none" stroke-width="4" stroke="#000000"></circle><defs><pattern id="cap-192894" x="33.33333333333333" y="13.333333333333329" width="2.089318359885088" height="2.61164794985636" patternUnits="userSpaceOnUse"><rect id="cap_bg_rect" x="0" y="0" width="133.33333333333334" height="23.504831548707237" fill="#000"></rect><line x1="0" y1="0" x2="0" y2="23.504831548707237" stroke="#ffdc00" stroke-width="2.350483154870724"></line></pattern></defs><clipPath id="cap-192894_clip2"><rect id="cap_rect2" x="33.33333333333333" y="9.333333333333329" width="133.33333333333334" height="27.504831548707237" fill="#ffdc00"></rect></clipPath><clipPath id="cap-192894_clip-192894"><circle id="cap_clip_circle" cx="100" cy="80" r="68.66666666666667"></circle></clipPath><rect id="cap_rect" x="33.33333333333333" y="11.333333333333329" width="133.33333333333334" height="27.504831548707237" fill="#ffdc00" clip-path="url(#cap-192894_clip-192894)"></rect><circle id="cap_clip_stroke_circle" cx="100" cy="80" r="68.66666666666667" stroke-width="0.7834943849569079" stroke="#000" fill="none" clip-path="url(#cap-192894_clip2)"></circle><path stroke="#000" stroke-width="0.7834943849569079" transform="translate(41.33333333333333, 35.6629233046052)" fill="url(#cap-192894)" d="
        M1.7410986332375733,0
        h113.8511360668582
        a1.7410986332375733,1.7410986332375733 0 0 1 1.7410986332375733,1.7410986332375733
        v1.741098633237573
        a1.7410986332375733,1.7410986332375733 0 0 1 -1.7410986332375733,1.7410986332375733
        h-113.8511360668582
        a1.7410986332375733,1.7410986332375733 0 0 1 -1.7410986332375733,-1.7410986332375733
        v-1.741098633237573
        a1.7410986332375733,1.7410986332375733 0 0 1 1.7410986332375733,-1.7410986332375733
        z
    "></path><circle cx="100" cy="7.272727272727268" r="6.666666666666667" fill="#ffdc00" stroke-width="0.7834943849569079" stroke="#000"></circle></svg>