<svg xmlns="http://www.w3.org/2000/svg" id="natnerd-192903" class="natnerd" viewBox="0 0 200 200" style="width: 200px; height: 200px;"><defs><pattern id="pattern_192903" class="pattern" x="0" y="0" width="10" height="10" patternUnits="userSpaceOnUse" patternTransform="rotate(0)" viewBox="0 0 64 64"><rect class="shirt-pattern-background" x="0" y="0" width="200" height="200" stroke="none" fill="#ffffff"></rect><g class="shirt-bitcoin-logo" width="10" height="10"><path fill="#f7931a" d="m63.033,39.744c-4.274,17.143-21.637,27.576-38.782,23.301-17.138-4.274-27.571-21.638-23.295-38.78,4.272-17.145,21.635-27.579,38.775-23.305,17.144,4.274,27.576,21.64,23.302,38.784z"></path><path fill="#ffffff" d="m46.103,27.444c0.637-4.258-2.605-6.547-7.038-8.074l1.438-5.768-3.511-0.875-1.4,5.616c-0.923-0.23-1.871-0.447-2.813-0.662l1.41-5.653-3.509-0.875-1.439,5.766c-0.764-0.174-1.514-0.346-2.242-0.527l0.004-0.018-4.842-1.209-0.934,3.75s2.605,0.597,2.55,0.634c1.422,0.355,1.679,1.296,1.636,2.042l-1.638,6.571c0.098,0.025,0.225,0.061,0.365,0.117-0.117-0.029-0.242-0.061-0.371-0.092l-2.296,9.205c-0.174,0.432-0.615,1.08-1.609,0.834,0.035,0.051-2.552-0.637-2.552-0.637l-1.743,4.019,4.569,1.139c0.85,0.213,1.683,0.436,2.503,0.646l-1.453,5.834,3.507,0.875,1.439-5.772c0.958,0.26,1.888,0.5,2.798,0.726l-1.434,5.745,3.511,0.875,1.453-5.823c5.987,1.133,10.489,0.676,12.384-4.739,1.527-4.36-0.076-6.875-3.226-8.515,2.294-0.529,4.022-2.038,4.483-5.155zm-8.022,11.249c-1.085,4.36-8.426,2.003-10.806,1.412l1.928-7.729c2.38,0.594,10.012,1.77,8.878,6.317zm1.086-11.312c-0.99,3.966-7.1,1.951-9.082,1.457l1.748-7.01c1.982,0.494,8.365,1.416,7.334,5.553z"></path></g></pattern></defs><path class="shirt" stroke="#000000" stroke-width="2" transform="translate(50, 133.33333333333331)" fill="url(#pattern_192903)" d="
    M10.81081081081081,0
    h78.37837837837839
    a10.81081081081081,10.81081081081081 0 0 1 10.81081081081081,10.81081081081081
    v58.37837837837838
    a10.81081081081081,10.81081081081081 0 0 1 -10.81081081081081,10.81081081081081
    h-78.37837837837839
    a10.81081081081081,10.81081081081081 0 0 1 -10.81081081081081,-10.81081081081081
    v-58.37837837837838
    a10.81081081081081,10.81081081081081 0 0 1 10.81081081081081,-10.81081081081081
    z
"></path><line class="left-inner-arm" x1="70" y1="200" x2="70" y2="160" stroke="#000000" stroke-width="2"></line><line class="right-inner-arm" x1="130" y1="200" x2="130" y2="160" stroke="#000000" stroke-width="2"></line><path class="cleavage" stroke="#000000" stroke-width="2" fill="#3d2618" transform="translate(100, 142.85714285714286)" d=" M  24.79483370507571   -14.196575366963907  A  28.571428571428573 28.571428571428573 -29.793805346802806 1 1 -24.674603296873315 -14.404529938674624"></path><rect class="belly" x="70" y="190.76923076923077" width="60" height="40" fill="#3d2618" stroke="#000000" stroke-width="2"></rect><circle class="belly-button" cx="100" cy="200" r="1.3333333333333333" fill="#000000"></circle><circle id="head-192903" class="head" cx="100" cy="80" r="66.66666666666667" fill="#3d2618"></circle><circle class="left-eye-white" cx="80" cy="60" r="16.666666666666668" fill="white"></circle><circle class="left-eye" cx="80" cy="50.849999999999994" r="6.5" fill="#000000"></circle><circle class="left-eye-black" cx="80" cy="49.266666666666666" r="3.25" fill="black"></circle><circle class="left-eye-light" cx="76.75" cy="47.599999999999994" r="1.625" fill="white"></circle><circle class="right-eye-white" cx="120" cy="60" r="16.666666666666668" fill="white"></circle><circle class="right-eye" cx="120" cy="50.849999999999994" r="6.5" fill="#000000"></circle><circle class="right-eye-black" cx="120" cy="49.266666666666666" r="3.25" fill="black"></circle><circle class="right-eye-light" cx="116.75" cy="47.599999999999994" r="1.625" fill="white"></circle><path class="mouth-lips" stroke-width="6.666666666666667" stroke="#3d2618" fill="none" stroke-linecap="round" d="M 86.66666666666667 108.16901408450704 C 96.66666666666667 108.16901408450704, 103.33333333333333 108.16901408450704, 113.33333333333333 108.16901408450704"></path><path class="mouth" stroke-width="2" stroke="#000000" fill="none" stroke-linecap="round" d="M 89 108.16901408450704 C 99 108.16901408450704, 101 108.16901408450704, 111 108.16901408450704"></path><circle class="head-stroke" cx="100" cy="80" r="66.66666666666667" fill="none" stroke-width="2" stroke="#000000"></circle><g class="hair"><path fill="#712e1a" d="M 100 9.833333333333329 A 70.16666666666667 70.16666666666667 0 0 0 29.83333333333333 79.99999999999999 L 43.83333333333333 80 A 56.16666666666667 56.16666666666667 0 0 1 100 23.83333333333333 L 100 9.833333333333329 Z"></path><path fill="#712e1a" d="M 170.16666666666669 80 A 70.16666666666667 70.16666666666667 0 0 0 98.77542281498394 9.844020056526546 L 99.01975650510592 23.841887788716022 A 56.16666666666667 56.16666666666667 0 0 1 156.16666666666669 80 L 170.16666666666669 80 Z"></path><rect x="29.83333333333333" y="79" width="14.000000000000002" height="200" fill="#712e1a"></rect><rect x="156.16666666666669" y="79" width="14.000000000000002" height="200" fill="#712e1a"></rect><path fill="#000" d="M 100 9.833333333333329 A 70.16666666666667 70.16666666666667 0 0 0 29.83333333333333 79.99999999999999 L 30.83333333333333 79.99999999999999 A 69.16666666666667 69.16666666666667 0 0 1 100 10.833333333333329 L 100 9.833333333333329 Z"></path><path fill="#000" d="M 170.16666666666669 80 A 70.16666666666667 70.16666666666667 0 0 0 98.77542281498394 9.844020056526546 L 98.79287522142123 10.843867751682936 A 69.16666666666667 69.16666666666667 0 0 1 169.16666666666669 80 L 170.16666666666669 80 Z"></path><rect x="29.83333333333333" y="79" width="1" height="200" fill="#000"></rect><rect x="169.16666666666669" y="79" width="1" height="200" fill="#000"></rect><path fill="#000" d="M 100 11.833333333333329 A 68.16666666666667 68.16666666666667 0 0 0 31.83333333333333 79.99999999999999 L 32.83333333333333 79.99999999999999 A 67.16666666666667 67.16666666666667 0 0 1 100 12.833333333333329 L 100 11.833333333333329 Z"></path><path fill="#000" d="M 168.16666666666669 80 A 68.16666666666667 68.16666666666667 0 0 0 98.81032762785851 11.843715446839326 L 98.8277800342958 12.843563141995716 A 67.16666666666667 67.16666666666667 0 0 1 167.16666666666669 80 L 168.16666666666669 80 Z"></path><rect x="31.83333333333333" y="79" width="1" height="200" fill="#000"></rect><rect x="167.16666666666669" y="79" width="1" height="200" fill="#000"></rect><path fill="#000" d="M 100 13.833333333333329 A 66.16666666666667 66.16666666666667 0 0 0 33.83333333333333 79.99999999999999 L 34.83333333333333 79.99999999999999 A 65.16666666666667 65.16666666666667 0 0 1 100 14.833333333333329 L 100 13.833333333333329 Z"></path><path fill="#000" d="M 166.16666666666669 80 A 66.16666666666667 66.16666666666667 0 0 0 98.84523244073307 13.843410837152106 L 98.86268484717036 14.843258532308496 A 65.16666666666667 65.16666666666667 0 0 1 165.16666666666669 80 L 166.16666666666669 80 Z"></path><rect x="33.83333333333333" y="79" width="1" height="200" fill="#000"></rect><rect x="165.16666666666669" y="79" width="1" height="200" fill="#000"></rect><path fill="#000" d="M 100 15.833333333333329 A 64.16666666666667 64.16666666666667 0 0 0 35.83333333333333 79.99999999999999 L 36.83333333333333 79.99999999999999 A 63.16666666666667 63.16666666666667 0 0 1 100 16.83333333333333 L 100 15.833333333333329 Z"></path><path fill="#000" d="M 164.16666666666669 80 A 64.16666666666667 64.16666666666667 0 0 0 98.88013725360764 15.843106227464887 L 98.89758966004493 16.842953922621277 A 63.16666666666667 63.16666666666667 0 0 1 163.16666666666669 80 L 164.16666666666669 80 Z"></path><rect x="35.83333333333333" y="79" width="1" height="200" fill="#000"></rect><rect x="163.16666666666669" y="79" width="1" height="200" fill="#000"></rect><path fill="#000" d="M 100 17.83333333333333 A 62.16666666666667 62.16666666666667 0 0 0 37.83333333333333 79.99999999999999 L 38.83333333333333 79.99999999999999 A 61.16666666666667 61.16666666666667 0 0 1 100 18.83333333333333 L 100 17.83333333333333 Z"></path><path fill="#000" d="M 162.16666666666669 80 A 62.16666666666667 62.16666666666667 0 0 0 98.91504206648221 17.842801617777674 L 98.9324944729195 18.842649312934064 A 61.16666666666667 61.16666666666667 0 0 1 161.16666666666669 80 L 162.16666666666669 80 Z"></path><rect x="37.83333333333333" y="79" width="1" height="200" fill="#000"></rect><rect x="161.16666666666669" y="79" width="1" height="200" fill="#000"></rect><path fill="#000" d="M 100 19.83333333333333 A 60.16666666666667 60.16666666666667 0 0 0 39.83333333333333 79.99999999999999 L 40.83333333333333 79.99999999999999 A 59.16666666666667 59.16666666666667 0 0 1 100 20.83333333333333 L 100 19.83333333333333 Z"></path><path fill="#000" d="M 160.16666666666669 80 A 60.16666666666667 60.16666666666667 0 0 0 98.94994687935677 19.842497008090454 L 98.96739928579406 20.842344703246845 A 59.16666666666667 59.16666666666667 0 0 1 159.16666666666669 80 L 160.16666666666669 80 Z"></path><rect x="39.83333333333333" y="79" width="1" height="200" fill="#000"></rect><rect x="159.16666666666669" y="79" width="1" height="200" fill="#000"></rect><path fill="#000" d="M 100 21.83333333333333 A 58.16666666666667 58.16666666666667 0 0 0 41.83333333333333 79.99999999999999 L 42.83333333333333 80 A 57.16666666666667 57.16666666666667 0 0 1 100 22.83333333333333 L 100 21.83333333333333 Z"></path><path fill="#000" d="M 158.16666666666669 80 A 58.16666666666667 58.16666666666667 0 0 0 98.98485169223135 21.842192398403235 L 99.00230409866863 22.842040093559625 A 57.16666666666667 57.16666666666667 0 0 1 157.16666666666669 80 L 158.16666666666669 80 Z"></path><rect x="41.83333333333333" y="79" width="1" height="200" fill="#000"></rect><rect x="157.16666666666669" y="79" width="1" height="200" fill="#000"></rect><path fill="#000" d="M 100 23.83333333333333 A 56.16666666666667 56.16666666666667 0 0 0 43.83333333333333 80 L 44.83333333333333 80 A 55.16666666666667 55.16666666666667 0 0 1 100 24.83333333333333 L 100 23.83333333333333 Z"></path><path fill="#000" d="M 156.16666666666669 80 A 56.16666666666667 56.16666666666667 0 0 0 99.01975650510592 23.841887788716022 L 99.03720891154319 24.841735483872412 A 55.16666666666667 55.16666666666667 0 0 1 155.16666666666669 80 L 156.16666666666669 80 Z"></path><rect x="43.83333333333333" y="79" width="1" height="200" fill="#000"></rect><rect x="155.16666666666669" y="79" width="1" height="200" fill="#000"></rect></g><g g="knitted-cap"><defs><pattern id="cap-192903" x="33.33333333333333" y="13.333333333333329" width="2.089318359885088" height="3.1301664683748784" patternUnits="userSpaceOnUse"><rect id="cap_bg_rect" x="0" y="0" width="133.33333333333334" height="28.171498215373905" fill="#000"></rect><line x1="0" y1="0" x2="0" y2="28.171498215373905" stroke="#583101" stroke-width="2.350483154870724"></line></pattern></defs><clipPath id="cap-192903_clip2"><rect id="cap_rect2" x="33.33333333333333" y="8.222222222222218" width="147.33333333333334" height="30.171498215373905" fill="#583101"></rect></clipPath><clipPath id="cap-192903_clip-192903"><circle id="cap_clip_circle" cx="100" cy="80" r="71.16666666666667"></circle></clipPath><rect id="cap_rect" x="33.33333333333333" y="9.222222222222218" width="147.33333333333334" height="30.171498215373905" fill="#583101" clip-path="url(#cap-192903_clip-192903)"></rect><circle id="cap_clip_stroke_circle" cx="100" cy="80" r="71.16666666666667" stroke-width="0.9390499405124635" stroke="#000" fill="none" clip-path="url(#cap-192903_clip2)"></circle><path stroke="#000" stroke-width="0.9390499405124635" transform="translate(36.666666666666664, 36.985145526827424)" fill="url(#cap-192903)" d="
    M1.7410986332375733,0
    h123.18446940019153
    a1.7410986332375733,1.7410986332375733 0 0 1 1.7410986332375733,1.7410986332375733
    v1.741098633237573
    a1.7410986332375733,1.7410986332375733 0 0 1 -1.7410986332375733,1.7410986332375733
    h-123.18446940019153
    a1.7410986332375733,1.7410986332375733 0 0 1 -1.7410986332375733,-1.7410986332375733
    v-1.741098633237573
    a1.7410986332375733,1.7410986332375733 0 0 1 1.7410986332375733,-1.7410986332375733
    z
"></path><circle cx="100" cy="7.272727272727268" r="6.666666666666667" fill="#583101" stroke-width="0.9390499405124635" stroke="#000"></circle></g></svg>