<svg xmlns="http://www.w3.org/2000/svg" id="natnerd-193078" viewBox="0 0 200 200" style="width: 200px; height: 200px;"><path stroke="#000000" stroke-width="2" transform="translate(50, 133.33333333333331)" fill="#39cccc" d="
        M10.81081081081081,0
        h78.37837837837839
        a10.81081081081081,10.81081081081081 0 0 1 10.81081081081081,10.81081081081081
        v58.37837837837838
        a10.81081081081081,10.81081081081081 0 0 1 -10.81081081081081,10.81081081081081
        h-78.37837837837839
        a10.81081081081081,10.81081081081081 0 0 1 -10.81081081081081,-10.81081081081081
        v-58.37837837837838
        a10.81081081081081,10.81081081081081 0 0 1 10.81081081081081,-10.81081081081081
        z
    "></path><text x="0" y="0" fill="#39cccc" stroke="#000000" stroke-width="10" letter-spacing="2" font-size="36" text-anchor="middle" paint-order="stroke fill" font-weight="700" stroke-linejoin="round" font-family="Verdana" transform="translate(100,168.8888888888889) scale(0.2)">N4TN3RD5</text><rect x="80" y="92.499999998125" width="40" height="15.00000000375" fill="#39cccc" stroke="#000000" transform-origin="center" transform="translate(-20, 40) rotate(45)" stroke-width="2"></rect><rect x="80" y="92.499999998125" width="40" height="15.00000000375" fill="#39cccc" stroke="#000000" transform-origin="center" transform="translate(20, 40) rotate(-45)" stroke-width="2"></rect><line x1="70" y1="200" x2="70" y2="160" stroke="#000000" stroke-width="2"></line><line x1="130" y1="200" x2="130" y2="160" stroke="#000000" stroke-width="2"></line><circle id="head-193078" cx="100" cy="80" r="66.66666666666667" fill="#ffc3a0"></circle><circle id="left-eye-white" cx="80" cy="60" r="16.666666666666668" fill="white"></circle><circle id="left-eye" cx="80" cy="60" r="9" fill="#0bda51"></circle><circle id="left-eye-black" cx="80" cy="60" r="4.5" fill="black"></circle><circle id="left-eye-light" cx="75.5" cy="55.5" r="2.25" fill="white"></circle><circle cx="120" cy="60" r="16.666666666666668" fill="white"></circle><circle cx="120" cy="60" r="9" fill="#0bda51"></circle><circle cx="120" cy="60" r="4.5" fill="black"></circle><circle cx="115.5" cy="55.5" r="2.25" fill="white"></circle><clipPath id="beard-cut-off-193078"><circle cx="100" cy="80" r="66.66666666666667"></circle></clipPath><defs><pattern id="beard-193078" x="0" y="0" width="2.5" height="2.5" patternUnits="userSpaceOnUse" patternTransform="rotate(45)"><circle cx="0.5" cy="0.5" r="0.5" stroke="none" fill="#d3d3d3"></circle></pattern></defs><rect x="33.33333333333333" y="92" width="133.33333333333334" height="66.66666666666667" fill="url(#beard-193078)" clip-path="url(#beard-cut-off-193078)"></rect><path stroke-width="6.666666666666667" stroke="#ffc3a0" fill="none" stroke-linecap="round" d="M 90 101.50234741784037 C 86.66666666666667 114.83568075117371, 113.33333333333333 114.83568075117371, 110 101.50234741784037"></path><path stroke-width="2" stroke="#000000" fill="none" stroke-linecap="round" d="M 90 102.66901408450704 C 89 113.66901408450704, 111 113.66901408450704, 110 102.66901408450704"></path><circle id="head-193078-stroke" cx="100" cy="80" r="66.66666666666667" fill="none" stroke-width="4" stroke="#000000"></circle><defs><pattern id="cap-193078" x="33.33333333333333" y="13.333333333333329" width="2.089318359885088" height="2.61164794985636" patternUnits="userSpaceOnUse"><rect id="cap_bg_rect" x="0" y="0" width="133.33333333333334" height="23.504831548707237" fill="#000"></rect><line x1="0" y1="0" x2="0" y2="23.504831548707237" stroke="#aa0000" stroke-width="2.350483154870724"></line></pattern></defs><clipPath id="cap-193078_clip2"><rect id="cap_rect2" x="33.33333333333333" y="9.333333333333329" width="133.33333333333334" height="27.504831548707237" fill="#aa0000"></rect></clipPath><clipPath id="cap-193078_clip-193078"><circle id="cap_clip_circle" cx="100" cy="80" r="68.66666666666667"></circle></clipPath><rect id="cap_rect" x="33.33333333333333" y="11.333333333333329" width="133.33333333333334" height="27.504831548707237" fill="#aa0000" clip-path="url(#cap-193078_clip-193078)"></rect><circle id="cap_clip_stroke_circle" cx="100" cy="80" r="68.66666666666667" stroke-width="0.7834943849569079" stroke="#000" fill="none" clip-path="url(#cap-193078_clip2)"></circle><path stroke="#000" stroke-width="0.7834943849569079" transform="translate(41.33333333333333, 35.6629233046052)" fill="url(#cap-193078)" d="
        M1.7410986332375733,0
        h113.8511360668582
        a1.7410986332375733,1.7410986332375733 0 0 1 1.7410986332375733,1.7410986332375733
        v1.741098633237573
        a1.7410986332375733,1.7410986332375733 0 0 1 -1.7410986332375733,1.7410986332375733
        h-113.8511360668582
        a1.7410986332375733,1.7410986332375733 0 0 1 -1.7410986332375733,-1.7410986332375733
        v-1.741098633237573
        a1.7410986332375733,1.7410986332375733 0 0 1 1.7410986332375733,-1.7410986332375733
        z
    "></path><circle cx="100" cy="7.272727272727268" r="6.666666666666667" fill="#aa0000" stroke-width="0.7834943849569079" stroke="#000"></circle></svg>