<svg xmlns="http://www.w3.org/2000/svg" id="natnerd-38336" viewBox="0 0 200 200" style="width: 200px; height: 200px;"><path stroke="#000000" stroke-width="2" transform="translate(50, 133.33333333333331)" fill="#ffffff" d="
        M10.81081081081081,0
        h78.37837837837839
        a10.81081081081081,10.81081081081081 0 0 1 10.81081081081081,10.81081081081081
        v58.37837837837838
        a10.81081081081081,10.81081081081081 0 0 1 -10.81081081081081,10.81081081081081
        h-78.37837837837839
        a10.81081081081081,10.81081081081081 0 0 1 -10.81081081081081,-10.81081081081081
        v-58.37837837837838
        a10.81081081081081,10.81081081081081 0 0 1 10.81081081081081,-10.81081081081081
        z
    "></path><text x="0" y="0" fill="#ffffff" stroke="#000000" stroke-width="10" letter-spacing="2" font-size="36" text-anchor="middle" paint-order="stroke fill" font-weight="700" stroke-linejoin="round" font-family="Verdana" transform="translate(100,168.8888888888889) scale(0.2)">N4TN3RD5</text><line x1="70" y1="200" x2="70" y2="160" stroke="#000000" stroke-width="2"></line><line x1="130" y1="200" x2="130" y2="160" stroke="#000000" stroke-width="2"></line><circle id="head-38336" cx="100" cy="80" r="66.66666666666667" fill="#ffa05e"></circle><circle id="left-eye-white" cx="80" cy="60" r="16.666666666666668" fill="white"></circle><circle id="left-eye" cx="72.2" cy="60" r="8" fill="#8e7618"></circle><circle id="left-eye-black" cx="69.86666666666666" cy="60" r="4" fill="black"></circle><circle id="left-eye-light" cx="74.2" cy="56" r="2" fill="white"></circle><circle cx="120" cy="60" r="16.666666666666668" fill="white"></circle><circle cx="112.2" cy="60" r="8" fill="#8e7618"></circle><circle cx="109.86666666666666" cy="60" r="4" fill="black"></circle><circle cx="114.2" cy="56" r="2" fill="white"></circle><circle cx="100" cy="108.16901408450704" r="11.9999999976" fill="#ffa05e"></circle><circle cx="100" cy="108.16901408450704" r="10" fill="#000000"></circle><circle cx="100" cy="108.16901408450704" r="10" fill="none" stroke="#000000" stroke-width="2"></circle><clipPath id="glasses-38336-cut-off"><circle cx="100" cy="80" r="66.66666666666667"></circle></clipPath><line x1="30.162204875047678" y1="59.662757570437094" x2="63.33333333333333" y2="60" stroke="#8b0000" stroke-width="4" clip-path="url(#glasses-38336-cut-off)"></line><circle id="mouth_stroke" cx="80" cy="60" r="16.666666666666668" fill="none" stroke="#8b0000" stroke-width="4"></circle><circle id="mouth_stroke" cx="120" cy="60" r="16.666666666666668" fill="none" stroke="#8b0000" stroke-width="4"></circle><line x1="169.83779512495232" y1="59.662757570437094" x2="136.66666666666666" y2="60" stroke="#8b0000" stroke-width="4" clip-path="url(#glasses-38336-cut-off)"></line><line x1="96.66666666666667" y1="60" x2="103.33333333333333" y2="60" stroke="#8b0000" stroke-width="4"></line><circle id="head-38336-stroke" cx="100" cy="80" r="66.66666666666667" fill="none" stroke-width="4" stroke="#000000"></circle></svg>