<svg xmlns="http://www.w3.org/2000/svg" id="natnerd-38458" class="natnerd" viewBox="0 0 200 200" style="width: 200px; height: 200px;"><path class="shirt" stroke="#000000" stroke-width="2" transform="translate(50, 133.33333333333331)" fill="#ffffff" d="
    M10.81081081081081,0
    h78.37837837837839
    a10.81081081081081,10.81081081081081 0 0 1 10.81081081081081,10.81081081081081
    v58.37837837837838
    a10.81081081081081,10.81081081081081 0 0 1 -10.81081081081081,10.81081081081081
    h-78.37837837837839
    a10.81081081081081,10.81081081081081 0 0 1 -10.81081081081081,-10.81081081081081
    v-58.37837837837838
    a10.81081081081081,10.81081081081081 0 0 1 10.81081081081081,-10.81081081081081
    z
"></path><text class="shirt-text" x="0" y="0" fill="#ffffff" stroke="#000000" stroke-width="10" letter-spacing="2" font-size="36" text-anchor="middle" paint-order="stroke fill" font-weight="700" stroke-linejoin="round" font-family="Verdana" transform="translate(100,168.8888888888889) scale(0.2)">N4TN3RD5</text><line class="left-inner-arm" x1="70" y1="200" x2="70" y2="160" stroke="#000000" stroke-width="2"></line><line class="right-inner-arm" x1="130" y1="200" x2="130" y2="160" stroke="#000000" stroke-width="2"></line><circle id="head-38458" class="head" cx="100" cy="80" r="66.66666666666667" fill="#d9825b"></circle><circle class="left-eye-white" cx="80" cy="60" r="16.666666666666668" fill="white"></circle><circle class="left-eye" cx="73.1" cy="60" r="9" fill="#593e1a"></circle><circle class="left-eye-black" cx="70.26666666666667" cy="60" r="4.5" fill="black"></circle><circle class="left-eye-light" cx="75.35" cy="55.5" r="2.25" fill="white"></circle><circle class="right-eye-white" cx="120" cy="60" r="16.666666666666668" fill="white"></circle><circle class="right-eye" cx="113.1" cy="60" r="9" fill="#593e1a"></circle><circle class="right-eye-black" cx="110.26666666666667" cy="60" r="4.5" fill="black"></circle><circle class="right-eye-light" cx="115.35" cy="55.5" r="2.25" fill="white"></circle><circle class="mouth-lips" cx="100" cy="108.16901408450704" r="11.9999999976" fill="#d9825b"></circle><circle class="mouth" cx="100" cy="108.16901408450704" r="10" fill="#000000"></circle><circle class="mouth-stroke" cx="100" cy="108.16901408450704" r="10" fill="none" stroke="#000000" stroke-width="2"></circle><circle class="head-stroke" cx="100" cy="80" r="66.66666666666667" fill="none" stroke-width="4" stroke="#000000"></circle></svg>