<svg xmlns="http://www.w3.org/2000/svg" id="natnerd-38490" class="natnerd" viewBox="0 0 200 200" style="width: 200px; height: 200px;"><defs><pattern id="pattern_38490" class="pattern" x="0" y="0" width="10" height="10" patternUnits="userSpaceOnUse" patternTransform="rotate(-45)"><rect class="shirt-pattern-background" x="0" y="0" width="200" height="200" stroke="none" fill="#85144b"></rect><line class="shirt-line-pattern" x1="0" y1="0" x2="200" y2="0" stroke="#01ff70" stroke-width="3"></line><line class="shirt-line-pattern" x1="0" y1="0" x2="0" y2="200" stroke="#01ff70" stroke-width="3"></line></pattern></defs><path class="shirt" stroke="#000000" stroke-width="2" transform="translate(50, 133.33333333333331)" fill="url(#pattern_38490)" d="
    M10.81081081081081,0
    h78.37837837837839
    a10.81081081081081,10.81081081081081 0 0 1 10.81081081081081,10.81081081081081
    v58.37837837837838
    a10.81081081081081,10.81081081081081 0 0 1 -10.81081081081081,10.81081081081081
    h-78.37837837837839
    a10.81081081081081,10.81081081081081 0 0 1 -10.81081081081081,-10.81081081081081
    v-58.37837837837838
    a10.81081081081081,10.81081081081081 0 0 1 10.81081081081081,-10.81081081081081
    z
"></path><line class="left-inner-arm" x1="70" y1="200" x2="70" y2="160" stroke="#000000" stroke-width="2"></line><line class="right-inner-arm" x1="130" y1="200" x2="130" y2="160" stroke="#000000" stroke-width="2"></line><circle id="head-38490" class="head" cx="100" cy="80" r="66.66666666666667" fill="#d9825b"></circle><circle class="left-eye-white" cx="80" cy="60" r="16.666666666666668" fill="white"></circle><circle class="left-eye" cx="69.5" cy="60" r="5" fill="#008080"></circle><circle class="left-eye-black" cx="68.66666666666666" cy="60" r="2.5" fill="black"></circle><circle class="left-eye-light" cx="70.75" cy="57.5" r="1.25" fill="white"></circle><circle class="right-eye-white" cx="120" cy="60" r="16.666666666666668" fill="white"></circle><circle class="right-eye" cx="109.5" cy="60" r="5" fill="#008080"></circle><circle class="right-eye-black" cx="108.66666666666666" cy="60" r="2.5" fill="black"></circle><circle class="right-eye-light" cx="110.75" cy="57.5" r="1.25" fill="white"></circle><circle class="mouth-lips" cx="100" cy="108.16901408450704" r="11.9999999976" fill="#d9825b"></circle><circle class="mouth" cx="100" cy="108.16901408450704" r="10" fill="#000000"></circle><clipPath id="cut-off-38490"><circle cx="100" cy="108.16901408450704" r="10"></circle></clipPath><rect class="upper-teeth" x="90" y="98.16901408450704" width="20" height="5" fill="white" stroke="none" clip-path="url(#cut-off-38490)"></rect><circle class="mouth-stroke" cx="100" cy="108.16901408450704" r="10" fill="none" stroke="#000000" stroke-width="2"></circle><circle class="head-stroke" cx="100" cy="80" r="66.66666666666667" fill="none" stroke-width="4" stroke="#000000"></circle></svg>