<svg xmlns="http://www.w3.org/2000/svg" id="natnerd-38511" viewBox="0 0 200 200" style="width: 200px; height: 200px;"><defs><pattern id="pattern_38511" x="0" y="0" width="15" height="15" patternUnits="userSpaceOnUse" patternTransform="rotate(-45)"><rect x="0" y="0" width="200" height="200" stroke="none" fill="#b10dc9"></rect><line x1="0" y1="0" x2="200" y2="0" stroke="#2ecc40" stroke-width="3"></line></pattern></defs><path stroke="#000000" stroke-width="2" transform="translate(50, 133.33333333333331)" fill="url(#pattern_38511)" d="
        M10.81081081081081,0
        h78.37837837837839
        a10.81081081081081,10.81081081081081 0 0 1 10.81081081081081,10.81081081081081
        v58.37837837837838
        a10.81081081081081,10.81081081081081 0 0 1 -10.81081081081081,10.81081081081081
        h-78.37837837837839
        a10.81081081081081,10.81081081081081 0 0 1 -10.81081081081081,-10.81081081081081
        v-58.37837837837838
        a10.81081081081081,10.81081081081081 0 0 1 10.81081081081081,-10.81081081081081
        z
    "></path><line x1="70" y1="200" x2="70" y2="160" stroke="#000000" stroke-width="2"></line><line x1="130" y1="200" x2="130" y2="160" stroke="#000000" stroke-width="2"></line><circle id="head-38511" cx="100" cy="80" r="66.66666666666667" fill="#945245"></circle><circle id="left-eye-white" cx="80" cy="60" r="16.666666666666668" fill="white"></circle><circle id="left-eye" cx="69.95" cy="60" r="5.5" fill="#7bc4c4"></circle><circle id="left-eye-black" cx="68.86666666666666" cy="60" r="2.75" fill="black"></circle><circle id="left-eye-light" cx="71.325" cy="57.25" r="1.375" fill="white"></circle><circle cx="120" cy="60" r="16.666666666666668" fill="white"></circle><circle cx="109.95" cy="60" r="5.5" fill="#7bc4c4"></circle><circle cx="108.86666666666666" cy="60" r="2.75" fill="black"></circle><circle cx="111.325" cy="57.25" r="1.375" fill="white"></circle><circle cx="100" cy="108.16901408450704" r="11.9999999976" fill="#945245"></circle><circle cx="100" cy="108.16901408450704" r="10" fill="#000000"></circle><circle cx="100" cy="108.16901408450704" r="10" fill="none" stroke="#000000" stroke-width="2"></circle><path fill="#000000" d="M 33.33333333333333 80.10000000000001 A 66.66666666666667 66.66666666666667 0 0 0 166.66666666666669 80.1 L 164 80.1 A 64 64 0 0 1 36 80.10000000000001 L 33.33333333333333 80.10000000000001 Z"></path></svg>