<svg xmlns="http://www.w3.org/2000/svg" id="natnerd-38524" class="natnerd" viewBox="0 0 200 200" style="width: 200px; height: 200px;"><path class="shirt" stroke="#000000" stroke-width="2" transform="translate(50, 133.33333333333331)" fill="#2ecc40" d="
    M10.81081081081081,0
    h78.37837837837839
    a10.81081081081081,10.81081081081081 0 0 1 10.81081081081081,10.81081081081081
    v58.37837837837838
    a10.81081081081081,10.81081081081081 0 0 1 -10.81081081081081,10.81081081081081
    h-78.37837837837839
    a10.81081081081081,10.81081081081081 0 0 1 -10.81081081081081,-10.81081081081081
    v-58.37837837837838
    a10.81081081081081,10.81081081081081 0 0 1 10.81081081081081,-10.81081081081081
    z
"></path><line class="left-inner-arm" x1="70" y1="200" x2="70" y2="160" stroke="#000000" stroke-width="2"></line><line class="right-inner-arm" x1="130" y1="200" x2="130" y2="160" stroke="#000000" stroke-width="2"></line><path class="cleavage" stroke="#000000" stroke-width="2" fill="#945245" transform="translate(100, 142.85714285714286)" d=" M  24.79483370507571   -14.196575366963907  A  28.571428571428573 28.571428571428573 -29.793805346802806 1 1 -24.674603296873315 -14.404529938674624"></path><circle id="head-38524" class="head" cx="100" cy="80" r="66.66666666666667" fill="#945245"></circle><circle class="left-eye-white" cx="80" cy="60" r="16.666666666666668" fill="white"></circle><circle class="left-eye" cx="71.3" cy="60" r="7.000000000000001" fill="#0033cc"></circle><circle class="left-eye-black" cx="69.46666666666667" cy="60" r="3.5000000000000004" fill="black"></circle><circle class="left-eye-light" cx="73.05" cy="56.5" r="1.7500000000000002" fill="white"></circle><circle class="right-eye-white" cx="120" cy="60" r="16.666666666666668" fill="white"></circle><circle class="right-eye" cx="111.3" cy="60" r="7.000000000000001" fill="#0033cc"></circle><circle class="right-eye-black" cx="109.46666666666667" cy="60" r="3.5000000000000004" fill="black"></circle><circle class="right-eye-light" cx="113.05" cy="56.5" r="1.7500000000000002" fill="white"></circle><circle class="mouth-lips" cx="100" cy="108.16901408450704" r="11.9999999976" fill="#945245"></circle><circle class="mouth" cx="100" cy="108.16901408450704" r="10" fill="#000000"></circle><circle class="mouth-stroke" cx="100" cy="108.16901408450704" r="10" fill="none" stroke="#000000" stroke-width="2"></circle><g class="glasses"><clipPath id="glasses-38524-cut-off"><circle cx="100" cy="80" r="66.66666666666667"></circle></clipPath><line x1="30.162204875047678" y1="59.662757570437094" x2="63.33333333333333" y2="60" stroke="#8b0000" stroke-width="4" clip-path="url(#glasses-38524-cut-off)"></line><circle id="mouth_stroke" cx="80" cy="60" r="16.666666666666668" fill="none" stroke="#8b0000" stroke-width="4"></circle><circle id="mouth_stroke" cx="120" cy="60" r="16.666666666666668" fill="none" stroke="#8b0000" stroke-width="4"></circle><line x1="169.83779512495232" y1="59.662757570437094" x2="136.66666666666666" y2="60" stroke="#8b0000" stroke-width="4" clip-path="url(#glasses-38524-cut-off)"></line><line x1="96.66666666666667" y1="60" x2="103.33333333333333" y2="60" stroke="#8b0000" stroke-width="4"></line></g><circle class="head-stroke" cx="100" cy="80" r="66.66666666666667" fill="none" stroke-width="2" stroke="#000000"></circle><g class="hair"><path fill="#4e3629" d="M 100 9.833333333333329 A 70.16666666666667 70.16666666666667 0 0 0 29.83333333333333 79.99999999999999 L 43.83333333333333 80 A 56.16666666666667 56.16666666666667 0 0 1 100 23.83333333333333 L 100 9.833333333333329 Z"></path><path fill="#4e3629" d="M 170.16666666666669 80 A 70.16666666666667 70.16666666666667 0 0 0 98.77542281498394 9.844020056526546 L 99.01975650510592 23.841887788716022 A 56.16666666666667 56.16666666666667 0 0 1 156.16666666666669 80 L 170.16666666666669 80 Z"></path><rect x="29.83333333333333" y="79" width="14.000000000000002" height="50.314465408805034" fill="#4e3629"></rect><rect x="156.16666666666669" y="79" width="14.000000000000002" height="50.314465408805034" fill="#4e3629"></rect><path fill="#000" d="M 100 9.833333333333329 A 70.16666666666667 70.16666666666667 0 0 0 29.83333333333333 79.99999999999999 L 30.83333333333333 79.99999999999999 A 69.16666666666667 69.16666666666667 0 0 1 100 10.833333333333329 L 100 9.833333333333329 Z"></path><path fill="#000" d="M 170.16666666666669 80 A 70.16666666666667 70.16666666666667 0 0 0 98.77542281498394 9.844020056526546 L 98.79287522142123 10.843867751682936 A 69.16666666666667 69.16666666666667 0 0 1 169.16666666666669 80 L 170.16666666666669 80 Z"></path><rect x="29.83333333333333" y="79" width="1" height="50.314465408805034" fill="#000"></rect><rect x="169.16666666666669" y="79" width="1" height="50.314465408805034" fill="#000"></rect><path fill="#000" d="M 100 11.833333333333329 A 68.16666666666667 68.16666666666667 0 0 0 31.83333333333333 79.99999999999999 L 32.83333333333333 79.99999999999999 A 67.16666666666667 67.16666666666667 0 0 1 100 12.833333333333329 L 100 11.833333333333329 Z"></path><path fill="#000" d="M 168.16666666666669 80 A 68.16666666666667 68.16666666666667 0 0 0 98.81032762785851 11.843715446839326 L 98.8277800342958 12.843563141995716 A 67.16666666666667 67.16666666666667 0 0 1 167.16666666666669 80 L 168.16666666666669 80 Z"></path><rect x="31.83333333333333" y="79" width="1" height="50.314465408805034" fill="#000"></rect><rect x="167.16666666666669" y="79" width="1" height="50.314465408805034" fill="#000"></rect><path fill="#000" d="M 100 13.833333333333329 A 66.16666666666667 66.16666666666667 0 0 0 33.83333333333333 79.99999999999999 L 34.83333333333333 79.99999999999999 A 65.16666666666667 65.16666666666667 0 0 1 100 14.833333333333329 L 100 13.833333333333329 Z"></path><path fill="#000" d="M 166.16666666666669 80 A 66.16666666666667 66.16666666666667 0 0 0 98.84523244073307 13.843410837152106 L 98.86268484717036 14.843258532308496 A 65.16666666666667 65.16666666666667 0 0 1 165.16666666666669 80 L 166.16666666666669 80 Z"></path><rect x="33.83333333333333" y="79" width="1" height="50.314465408805034" fill="#000"></rect><rect x="165.16666666666669" y="79" width="1" height="50.314465408805034" fill="#000"></rect><path fill="#000" d="M 100 15.833333333333329 A 64.16666666666667 64.16666666666667 0 0 0 35.83333333333333 79.99999999999999 L 36.83333333333333 79.99999999999999 A 63.16666666666667 63.16666666666667 0 0 1 100 16.83333333333333 L 100 15.833333333333329 Z"></path><path fill="#000" d="M 164.16666666666669 80 A 64.16666666666667 64.16666666666667 0 0 0 98.88013725360764 15.843106227464887 L 98.89758966004493 16.842953922621277 A 63.16666666666667 63.16666666666667 0 0 1 163.16666666666669 80 L 164.16666666666669 80 Z"></path><rect x="35.83333333333333" y="79" width="1" height="50.314465408805034" fill="#000"></rect><rect x="163.16666666666669" y="79" width="1" height="50.314465408805034" fill="#000"></rect><path fill="#000" d="M 100 17.83333333333333 A 62.16666666666667 62.16666666666667 0 0 0 37.83333333333333 79.99999999999999 L 38.83333333333333 79.99999999999999 A 61.16666666666667 61.16666666666667 0 0 1 100 18.83333333333333 L 100 17.83333333333333 Z"></path><path fill="#000" d="M 162.16666666666669 80 A 62.16666666666667 62.16666666666667 0 0 0 98.91504206648221 17.842801617777674 L 98.9324944729195 18.842649312934064 A 61.16666666666667 61.16666666666667 0 0 1 161.16666666666669 80 L 162.16666666666669 80 Z"></path><rect x="37.83333333333333" y="79" width="1" height="50.314465408805034" fill="#000"></rect><rect x="161.16666666666669" y="79" width="1" height="50.314465408805034" fill="#000"></rect><path fill="#000" d="M 100 19.83333333333333 A 60.16666666666667 60.16666666666667 0 0 0 39.83333333333333 79.99999999999999 L 40.83333333333333 79.99999999999999 A 59.16666666666667 59.16666666666667 0 0 1 100 20.83333333333333 L 100 19.83333333333333 Z"></path><path fill="#000" d="M 160.16666666666669 80 A 60.16666666666667 60.16666666666667 0 0 0 98.94994687935677 19.842497008090454 L 98.96739928579406 20.842344703246845 A 59.16666666666667 59.16666666666667 0 0 1 159.16666666666669 80 L 160.16666666666669 80 Z"></path><rect x="39.83333333333333" y="79" width="1" height="50.314465408805034" fill="#000"></rect><rect x="159.16666666666669" y="79" width="1" height="50.314465408805034" fill="#000"></rect><path fill="#000" d="M 100 21.83333333333333 A 58.16666666666667 58.16666666666667 0 0 0 41.83333333333333 79.99999999999999 L 42.83333333333333 80 A 57.16666666666667 57.16666666666667 0 0 1 100 22.83333333333333 L 100 21.83333333333333 Z"></path><path fill="#000" d="M 158.16666666666669 80 A 58.16666666666667 58.16666666666667 0 0 0 98.98485169223135 21.842192398403235 L 99.00230409866863 22.842040093559625 A 57.16666666666667 57.16666666666667 0 0 1 157.16666666666669 80 L 158.16666666666669 80 Z"></path><rect x="41.83333333333333" y="79" width="1" height="50.314465408805034" fill="#000"></rect><rect x="157.16666666666669" y="79" width="1" height="50.314465408805034" fill="#000"></rect><path fill="#000" d="M 100 23.83333333333333 A 56.16666666666667 56.16666666666667 0 0 0 43.83333333333333 80 L 44.83333333333333 80 A 55.16666666666667 55.16666666666667 0 0 1 100 24.83333333333333 L 100 23.83333333333333 Z"></path><path fill="#000" d="M 156.16666666666669 80 A 56.16666666666667 56.16666666666667 0 0 0 99.01975650510592 23.841887788716022 L 99.03720891154319 24.841735483872412 A 55.16666666666667 55.16666666666667 0 0 1 155.16666666666669 80 L 156.16666666666669 80 Z"></path><rect x="43.83333333333333" y="79" width="1" height="50.314465408805034" fill="#000"></rect><rect x="155.16666666666669" y="79" width="1" height="50.314465408805034" fill="#000"></rect></g></svg>