<svg xmlns="http://www.w3.org/2000/svg" id="natnerd-38694" class="natnerd" viewBox="0 0 200 200" style="width: 200px; height: 200px;"><defs><pattern id="pattern_38694" class="pattern rainbow-flag-pattern" x="0" y="0" width="1" height="68.96551724137932" patternUnits="userSpaceOnUse"><g x="0" y="0" width="1" height="68.96551724137932"><rect x="0" y="0" width="1" height="11.49425287356322" stroke="none" fill="#e40303"></rect><rect x="0" y="11.49425287356322" width="1" height="11.49425287356322" stroke="none" fill="#ff8c00"></rect><rect x="0" y="22.98850574712644" width="1" height="11.49425287356322" stroke="none" fill="#ffed00"></rect><rect x="0" y="34.48275862068966" width="1" height="11.49425287356322" stroke="none" fill="#008026"></rect><rect x="0" y="45.97701149425288" width="1" height="11.49425287356322" stroke="none" fill="#24408e"></rect><rect x="0" y="57.4712643678161" width="1" height="11.49425287356322" stroke="none" fill="#732982"></rect></g></pattern></defs><path class="shirt" stroke="#000000" stroke-width="2" transform="translate(50, 133.33333333333331)" fill="url(#pattern_38694)" d="
    M10.81081081081081,0
    h78.37837837837839
    a10.81081081081081,10.81081081081081 0 0 1 10.81081081081081,10.81081081081081
    v58.37837837837838
    a10.81081081081081,10.81081081081081 0 0 1 -10.81081081081081,10.81081081081081
    h-78.37837837837839
    a10.81081081081081,10.81081081081081 0 0 1 -10.81081081081081,-10.81081081081081
    v-58.37837837837838
    a10.81081081081081,10.81081081081081 0 0 1 10.81081081081081,-10.81081081081081
    z
"></path><g class="buttons"><circle cx="100" cy="166.66666666666669" r="2.99999999985" fill="#000000"></circle><circle cx="99.300000000735" cy="165.96666666740168" r="0.299999999985" fill="#ffffff"></circle><circle cx="99.300000000735" cy="167.3666666659317" r="0.299999999985" fill="#ffffff"></circle><circle cx="100.699999999265" cy="165.96666666740168" r="0.299999999985" fill="#ffffff"></circle><circle cx="100.699999999265" cy="167.3666666659317" r="0.299999999985" fill="#ffffff"></circle><circle cx="100" cy="180.00000000000003" r="2.99999999985" fill="#000000"></circle><circle cx="99.300000000735" cy="179.30000000073503" r="0.299999999985" fill="#ffffff"></circle><circle cx="99.300000000735" cy="180.69999999926503" r="0.299999999985" fill="#ffffff"></circle><circle cx="100.699999999265" cy="179.30000000073503" r="0.299999999985" fill="#ffffff"></circle><circle cx="100.699999999265" cy="180.69999999926503" r="0.299999999985" fill="#ffffff"></circle><circle cx="100" cy="193.33333333333337" r="2.99999999985" fill="#000000"></circle><circle cx="99.300000000735" cy="192.63333333406837" r="0.299999999985" fill="#ffffff"></circle><circle cx="99.300000000735" cy="194.03333333259837" r="0.299999999985" fill="#ffffff"></circle><circle cx="100.699999999265" cy="192.63333333406837" r="0.299999999985" fill="#ffffff"></circle><circle cx="100.699999999265" cy="194.03333333259837" r="0.299999999985" fill="#ffffff"></circle></g><line class="left-inner-arm" x1="70" y1="200" x2="70" y2="160" stroke="#000000" stroke-width="2"></line><line class="right-inner-arm" x1="130" y1="200" x2="130" y2="160" stroke="#000000" stroke-width="2"></line><circle id="head-38694" class="head" cx="100" cy="80" r="66.66666666666667" fill="#704734"></circle><circle class="left-eye-white" cx="80" cy="60" r="16.666666666666668" fill="white"></circle><circle class="left-eye" cx="71.3" cy="60" r="7.000000000000001" fill="#008080"></circle><circle class="left-eye-black" cx="69.46666666666667" cy="60" r="3.5000000000000004" fill="black"></circle><circle class="left-eye-light" cx="73.05" cy="56.5" r="1.7500000000000002" fill="white"></circle><circle class="right-eye-white" cx="120" cy="60" r="16.666666666666668" fill="white"></circle><circle class="right-eye" cx="111.3" cy="60" r="7.000000000000001" fill="#008080"></circle><circle class="right-eye-black" cx="109.46666666666667" cy="60" r="3.5000000000000004" fill="black"></circle><circle class="right-eye-light" cx="113.05" cy="56.5" r="1.7500000000000002" fill="white"></circle><circle class="mouth-lips" cx="100" cy="108.16901408450704" r="11.9999999976" fill="#704734"></circle><circle class="mouth" cx="100" cy="108.16901408450704" r="10" fill="#000000"></circle><circle class="mouth-stroke" cx="100" cy="108.16901408450704" r="10" fill="none" stroke="#000000" stroke-width="2"></circle><circle class="head-stroke" cx="100" cy="80" r="66.66666666666667" fill="none" stroke-width="4" stroke="#000000"></circle></svg>