<svg xmlns="http://www.w3.org/2000/svg" id="natnerd-38732" viewBox="0 0 200 200" style="width: 200px; height: 200px;"><path stroke="#000000" stroke-width="2" transform="translate(50, 133.33333333333331)" fill="#ffffff" d="
        M10.81081081081081,0
        h78.37837837837839
        a10.81081081081081,10.81081081081081 0 0 1 10.81081081081081,10.81081081081081
        v58.37837837837838
        a10.81081081081081,10.81081081081081 0 0 1 -10.81081081081081,10.81081081081081
        h-78.37837837837839
        a10.81081081081081,10.81081081081081 0 0 1 -10.81081081081081,-10.81081081081081
        v-58.37837837837838
        a10.81081081081081,10.81081081081081 0 0 1 10.81081081081081,-10.81081081081081
        z
    "></path><line x1="70" y1="200" x2="70" y2="160" stroke="#000000" stroke-width="2"></line><line x1="130" y1="200" x2="130" y2="160" stroke="#000000" stroke-width="2"></line><circle id="head-38732" cx="100" cy="80" r="66.66666666666667" fill="#5e3a27"></circle><circle id="left-eye-white" cx="80" cy="60" r="16.666666666666668" fill="white"></circle><circle id="left-eye" cx="70.4" cy="60" r="6" fill="#8e7618"></circle><circle id="left-eye-black" cx="69.06666666666666" cy="60" r="3" fill="black"></circle><circle id="left-eye-light" cx="71.9" cy="57" r="1.5" fill="white"></circle><circle cx="120" cy="60" r="16.666666666666668" fill="white"></circle><circle cx="110.4" cy="60" r="6" fill="#8e7618"></circle><circle cx="109.06666666666666" cy="60" r="3" fill="black"></circle><circle cx="111.9" cy="57" r="1.5" fill="white"></circle><circle cx="100" cy="108.16901408450704" r="11.9999999976" fill="#5e3a27"></circle><circle cx="100" cy="108.16901408450704" r="10" fill="#000000"></circle><circle cx="100" cy="108.16901408450704" r="10" fill="none" stroke="#000000" stroke-width="2"></circle><clipPath id="glasses-38732-cut-off"><circle cx="100" cy="80" r="66.66666666666667"></circle></clipPath><line x1="30.162204875047678" y1="59.662757570437094" x2="63.33333333333333" y2="60" stroke="#8b0000" stroke-width="4" clip-path="url(#glasses-38732-cut-off)"></line><circle id="mouth_stroke" cx="80" cy="60" r="16.666666666666668" fill="none" stroke="#8b0000" stroke-width="4"></circle><circle id="mouth_stroke" cx="120" cy="60" r="16.666666666666668" fill="none" stroke="#8b0000" stroke-width="4"></circle><line x1="169.83779512495232" y1="59.662757570437094" x2="136.66666666666666" y2="60" stroke="#8b0000" stroke-width="4" clip-path="url(#glasses-38732-cut-off)"></line><line x1="96.66666666666667" y1="60" x2="103.33333333333333" y2="60" stroke="#8b0000" stroke-width="4"></line><circle id="head-38732-stroke" cx="100" cy="80" r="66.66666666666667" fill="none" stroke-width="4" stroke="#000000"></circle></svg>