<svg xmlns="http://www.w3.org/2000/svg" id="natnerd-39016" class="natnerd" viewBox="0 0 200 200" style="width: 200px; height: 200px;"><path class="shirt" stroke="#000000" stroke-width="2" transform="translate(50, 133.33333333333331)" fill="#2ecc40" d="
    M10.81081081081081,0
    h78.37837837837839
    a10.81081081081081,10.81081081081081 0 0 1 10.81081081081081,10.81081081081081
    v58.37837837837838
    a10.81081081081081,10.81081081081081 0 0 1 -10.81081081081081,10.81081081081081
    h-78.37837837837839
    a10.81081081081081,10.81081081081081 0 0 1 -10.81081081081081,-10.81081081081081
    v-58.37837837837838
    a10.81081081081081,10.81081081081081 0 0 1 10.81081081081081,-10.81081081081081
    z
"></path><text class="shirt-text" x="0" y="0" fill="#2ecc40" stroke="#000000" stroke-width="10" letter-spacing="2" font-size="36" text-anchor="middle" paint-order="stroke fill" font-weight="700" stroke-linejoin="round" font-family="Verdana" transform="translate(100,168.8888888888889) scale(0.2)">N4TN3RD5</text><rect class="left-collar" x="80" y="92.499999998125" width="40" height="15.00000000375" fill="#2ecc40" stroke="#000000" transform-origin="center" transform="translate(-20, 40) rotate(45)" stroke-width="2"></rect><rect class="right-collar" x="80" y="92.499999998125" width="40" height="15.00000000375" fill="#2ecc40" stroke="#000000" transform-origin="center" transform="translate(20, 40) rotate(-45)" stroke-width="2"></rect><line class="left-inner-arm" x1="70" y1="200" x2="70" y2="160" stroke="#000000" stroke-width="2"></line><line class="right-inner-arm" x1="130" y1="200" x2="130" y2="160" stroke="#000000" stroke-width="2"></line><circle id="head-39016" class="head" cx="100" cy="80" r="66.66666666666667" fill="#ffc3a0"></circle><circle class="left-eye-white" cx="80" cy="60" r="16.666666666666668" fill="white"></circle><circle class="left-eye" cx="72.2" cy="60" r="8" fill="#7bc4c4"></circle><circle class="left-eye-black" cx="69.86666666666666" cy="60" r="4" fill="black"></circle><circle class="left-eye-light" cx="74.2" cy="56" r="2" fill="white"></circle><circle class="right-eye-white" cx="120" cy="60" r="16.666666666666668" fill="white"></circle><circle class="right-eye" cx="112.2" cy="60" r="8" fill="#7bc4c4"></circle><circle class="right-eye-black" cx="109.86666666666666" cy="60" r="4" fill="black"></circle><circle class="right-eye-light" cx="114.2" cy="56" r="2" fill="white"></circle><g class="beard"><clipPath id="beard-cut-off-39016" class="beard-cut-off"><circle cx="100" cy="80" r="66.66666666666667"></circle></clipPath><defs><pattern id="beard-39016" class="beard" x="0" y="0" width="2.5" height="2.5" patternUnits="userSpaceOnUse" patternTransform="rotate(45)"><circle cx="0.5" cy="0.5" r="0.5" stroke="none" fill="#000"></circle></pattern></defs><rect x="33.33333333333333" y="92" width="133.33333333333334" height="66.66666666666667" fill="url(#beard-39016)" clip-path="url(#beard-cut-off-39016)"></rect></g><path class="mouth-lips" stroke-width="6.666666666666667" stroke="#ffc3a0" fill="none" stroke-linecap="round" d="M 86.66666666666667 108.16901408450704 C 96.66666666666667 108.16901408450704, 103.33333333333333 108.16901408450704, 113.33333333333333 108.16901408450704"></path><path class="mouth" stroke-width="2" stroke="#000000" fill="none" stroke-linecap="round" d="M 89 108.16901408450704 C 99 108.16901408450704, 101 108.16901408450704, 111 108.16901408450704"></path><g class="glasses"><clipPath id="glasses-39016-cut-off"><circle cx="100" cy="80" r="66.66666666666667"></circle></clipPath><line x1="30.162204875047678" y1="59.662757570437094" x2="63.33333333333333" y2="60" stroke="#8b0000" stroke-width="4" clip-path="url(#glasses-39016-cut-off)"></line><circle id="mouth_stroke" cx="80" cy="60" r="16.666666666666668" fill="none" stroke="#8b0000" stroke-width="4"></circle><circle id="mouth_stroke" cx="120" cy="60" r="16.666666666666668" fill="none" stroke="#8b0000" stroke-width="4"></circle><line x1="169.83779512495232" y1="59.662757570437094" x2="136.66666666666666" y2="60" stroke="#8b0000" stroke-width="4" clip-path="url(#glasses-39016-cut-off)"></line><line x1="96.66666666666667" y1="60" x2="103.33333333333333" y2="60" stroke="#8b0000" stroke-width="4"></line></g><circle class="head-stroke" cx="100" cy="80" r="66.66666666666667" fill="none" stroke-width="4" stroke="#000000"></circle></svg>