<svg xmlns="http://www.w3.org/2000/svg" id="natnerd-39182" class="natnerd" viewBox="0 0 200 200" style="width: 200px; height: 200px;"><path class="shirt" stroke="#000000" stroke-width="2" transform="translate(50, 133.33333333333331)" fill="#ffffff" d="
    M10.81081081081081,0
    h78.37837837837839
    a10.81081081081081,10.81081081081081 0 0 1 10.81081081081081,10.81081081081081
    v58.37837837837838
    a10.81081081081081,10.81081081081081 0 0 1 -10.81081081081081,10.81081081081081
    h-78.37837837837839
    a10.81081081081081,10.81081081081081 0 0 1 -10.81081081081081,-10.81081081081081
    v-58.37837837837838
    a10.81081081081081,10.81081081081081 0 0 1 10.81081081081081,-10.81081081081081
    z
"></path><rect class="left-collar" x="80" y="91.66666666458333" width="40" height="15.00000000375" fill="#ffffff" stroke="#000000" transform-origin="center" transform="translate(-20, 40) rotate(45)" stroke-width="2"></rect><rect class="right-collar" x="80" y="91.66666666458333" width="40" height="15.00000000375" fill="#ffffff" stroke="#000000" transform-origin="center" transform="translate(20, 40) rotate(-45)" stroke-width="2"></rect><line class="left-inner-arm" x1="70" y1="200" x2="70" y2="160" stroke="#000000" stroke-width="2"></line><line class="right-inner-arm" x1="130" y1="200" x2="130" y2="160" stroke="#000000" stroke-width="2"></line><circle id="head-39182" class="head" cx="100" cy="80" r="66.66666666666667" fill="#ffb181"></circle><circle class="left-eye-white" cx="80" cy="60" r="16.666666666666668" fill="white"></circle><circle class="left-eye" cx="70.4" cy="60" r="6" fill="#ffbf00"></circle><circle class="left-eye-black" cx="69.06666666666666" cy="60" r="3" fill="black"></circle><circle class="left-eye-light" cx="71.9" cy="57" r="1.5" fill="white"></circle><circle class="right-eye-white" cx="120" cy="60" r="16.666666666666668" fill="white"></circle><circle class="right-eye" cx="110.4" cy="60" r="6" fill="#ffbf00"></circle><circle class="right-eye-black" cx="109.06666666666666" cy="60" r="3" fill="black"></circle><circle class="right-eye-light" cx="111.9" cy="57" r="1.5" fill="white"></circle><path class="mouth-lips" stroke-width="6.666666666666667" stroke="#ffb181" fill="none" stroke-linecap="round" d="M 86.66666666666667 108.16901408450704 C 96.66666666666667 108.16901408450704, 103.33333333333333 108.16901408450704, 113.33333333333333 108.16901408450704"></path><path class="mouth" stroke-width="2" stroke="#000000" fill="none" stroke-linecap="round" d="M 89 108.16901408450704 C 99 108.16901408450704, 101 108.16901408450704, 111 108.16901408450704"></path><circle class="head-stroke" cx="100" cy="80" r="66.66666666666667" fill="none" stroke-width="2" stroke="#000000"></circle><g class="hair"><path fill="#ffb6c1" d="M 100 10.333333333333329 A 69.66666666666667 69.66666666666667 0 0 0 30.33333333333333 79.99999999999999 L 42.33333333333333 80 A 57.66666666666667 57.66666666666667 0 0 1 100 22.33333333333333 L 100 10.333333333333329 Z"></path><path fill="#ffb6c1" d="M 169.66666666666669 80 A 69.66666666666667 69.66666666666667 0 0 0 98.78414901820258 10.343943904104734 L 98.99357789544999 22.34211624598143 A 57.66666666666667 57.66666666666667 0 0 1 157.66666666666669 80 L 169.66666666666669 80 Z"></path><rect x="30.33333333333333" y="79" width="12" height="50.314465408805034" fill="#ffb6c1"></rect><rect x="157.66666666666669" y="79" width="12" height="50.314465408805034" fill="#ffb6c1"></rect><path fill="#000" d="M 100 10.333333333333329 A 69.66666666666667 69.66666666666667 0 0 0 30.33333333333333 79.99999999999999 L 31.33333333333333 79.99999999999999 A 68.66666666666667 68.66666666666667 0 0 1 100 11.333333333333329 L 100 10.333333333333329 Z"></path><path fill="#000" d="M 169.66666666666669 80 A 69.66666666666667 69.66666666666667 0 0 0 98.78414901820258 10.343943904104734 L 98.80160142463987 11.343791599261124 A 68.66666666666667 68.66666666666667 0 0 1 168.66666666666669 80 L 169.66666666666669 80 Z"></path><rect x="30.33333333333333" y="79" width="1" height="50.314465408805034" fill="#000"></rect><rect x="168.66666666666669" y="79" width="1" height="50.314465408805034" fill="#000"></rect><path fill="#000" d="M 100 12.333333333333329 A 67.66666666666667 67.66666666666667 0 0 0 32.33333333333333 79.99999999999999 L 33.33333333333333 79.99999999999999 A 66.66666666666667 66.66666666666667 0 0 1 100 13.333333333333329 L 100 12.333333333333329 Z"></path><path fill="#000" d="M 167.66666666666669 80 A 67.66666666666667 67.66666666666667 0 0 0 98.81905383107716 12.343639294417514 L 98.83650623751444 13.343486989573904 A 66.66666666666667 66.66666666666667 0 0 1 166.66666666666669 80 L 167.66666666666669 80 Z"></path><rect x="32.33333333333333" y="79" width="1" height="50.314465408805034" fill="#000"></rect><rect x="166.66666666666669" y="79" width="1" height="50.314465408805034" fill="#000"></rect><path fill="#000" d="M 100 14.333333333333329 A 65.66666666666667 65.66666666666667 0 0 0 34.33333333333333 79.99999999999999 L 35.33333333333333 79.99999999999999 A 64.66666666666667 64.66666666666667 0 0 1 100 15.333333333333329 L 100 14.333333333333329 Z"></path><path fill="#000" d="M 165.66666666666669 80 A 65.66666666666667 65.66666666666667 0 0 0 98.85395864395171 14.343334684730308 L 98.871411050389 15.343182379886699 A 64.66666666666667 64.66666666666667 0 0 1 164.66666666666669 80 L 165.66666666666669 80 Z"></path><rect x="34.33333333333333" y="79" width="1" height="50.314465408805034" fill="#000"></rect><rect x="164.66666666666669" y="79" width="1" height="50.314465408805034" fill="#000"></rect><path fill="#000" d="M 100 16.33333333333333 A 63.66666666666667 63.66666666666667 0 0 0 36.33333333333333 79.99999999999999 L 37.33333333333333 79.99999999999999 A 62.66666666666667 62.66666666666667 0 0 1 100 17.33333333333333 L 100 16.33333333333333 Z"></path><path fill="#000" d="M 163.66666666666669 80 A 63.66666666666667 63.66666666666667 0 0 0 98.88886345682629 16.34303007504308 L 98.90631586326357 17.34287777019948 A 62.66666666666667 62.66666666666667 0 0 1 162.66666666666669 80 L 163.66666666666669 80 Z"></path><rect x="36.33333333333333" y="79" width="1" height="50.314465408805034" fill="#000"></rect><rect x="162.66666666666669" y="79" width="1" height="50.314465408805034" fill="#000"></rect><path fill="#000" d="M 100 18.33333333333333 A 61.66666666666667 61.66666666666667 0 0 0 38.33333333333333 79.99999999999999 L 39.33333333333333 79.99999999999999 A 60.66666666666667 60.66666666666667 0 0 1 100 19.33333333333333 L 100 18.33333333333333 Z"></path><path fill="#000" d="M 161.66666666666669 80 A 61.66666666666667 61.66666666666667 0 0 0 98.92376826970086 18.34272546535587 L 98.94122067613813 19.34257316051226 A 60.66666666666667 60.66666666666667 0 0 1 160.66666666666669 80 L 161.66666666666669 80 Z"></path><rect x="38.33333333333333" y="79" width="1" height="50.314465408805034" fill="#000"></rect><rect x="160.66666666666669" y="79" width="1" height="50.314465408805034" fill="#000"></rect><path fill="#000" d="M 100 20.33333333333333 A 59.66666666666667 59.66666666666667 0 0 0 40.33333333333333 79.99999999999999 L 41.33333333333333 79.99999999999999 A 58.66666666666667 58.66666666666667 0 0 1 100 21.33333333333333 L 100 20.33333333333333 Z"></path><path fill="#000" d="M 159.66666666666669 80 A 59.66666666666667 59.66666666666667 0 0 0 98.95867308257542 20.34242085566865 L 98.9761254890127 21.34226855082504 A 58.66666666666667 58.66666666666667 0 0 1 158.66666666666669 80 L 159.66666666666669 80 Z"></path><rect x="40.33333333333333" y="79" width="1" height="50.314465408805034" fill="#000"></rect><rect x="158.66666666666669" y="79" width="1" height="50.314465408805034" fill="#000"></rect><path fill="#000" d="M 100 22.33333333333333 A 57.66666666666667 57.66666666666667 0 0 0 42.33333333333333 80 L 43.33333333333333 80 A 56.66666666666667 56.66666666666667 0 0 1 100 23.33333333333333 L 100 22.33333333333333 Z"></path><path fill="#000" d="M 157.66666666666669 80 A 57.66666666666667 57.66666666666667 0 0 0 98.99357789544999 22.34211624598143 L 99.01103030188727 23.34196394113782 A 56.66666666666667 56.66666666666667 0 0 1 156.66666666666669 80 L 157.66666666666669 80 Z"></path><rect x="42.33333333333333" y="79" width="1" height="50.314465408805034" fill="#000"></rect><rect x="156.66666666666669" y="79" width="1" height="50.314465408805034" fill="#000"></rect></g></svg>