<svg xmlns="http://www.w3.org/2000/svg" id="natnerd-39699" viewBox="0 0 200 200" style="width: 200px; height: 200px;"><defs><pattern id="pattern_39699" x="0" y="0" width="1" height="68.96551724137932" patternUnits="userSpaceOnUse"><g x="0" y="0" width="1" height="68.96551724137932"><rect x="0" y="0" width="1" height="11.49425287356322" stroke="none" fill="#e40303"></rect><rect x="0" y="11.49425287356322" width="1" height="11.49425287356322" stroke="none" fill="#ff8c00"></rect><rect x="0" y="22.98850574712644" width="1" height="11.49425287356322" stroke="none" fill="#ffed00"></rect><rect x="0" y="34.48275862068966" width="1" height="11.49425287356322" stroke="none" fill="#008026"></rect><rect x="0" y="45.97701149425288" width="1" height="11.49425287356322" stroke="none" fill="#24408e"></rect><rect x="0" y="57.4712643678161" width="1" height="11.49425287356322" stroke="none" fill="#732982"></rect></g></pattern></defs><path stroke="#000000" stroke-width="2" transform="translate(50, 133.33333333333331)" fill="url(#pattern_39699)" d="
        M10.81081081081081,0
        h78.37837837837839
        a10.81081081081081,10.81081081081081 0 0 1 10.81081081081081,10.81081081081081
        v58.37837837837838
        a10.81081081081081,10.81081081081081 0 0 1 -10.81081081081081,10.81081081081081
        h-78.37837837837839
        a10.81081081081081,10.81081081081081 0 0 1 -10.81081081081081,-10.81081081081081
        v-58.37837837837838
        a10.81081081081081,10.81081081081081 0 0 1 10.81081081081081,-10.81081081081081
        z
    "></path><circle cx="100" cy="166.66666666666669" r="2.99999999985" fill="#000000"></circle><circle cx="99.300000000735" cy="165.96666666740168" r="0.299999999985" fill="#ffffff"></circle><circle cx="99.300000000735" cy="167.3666666659317" r="0.299999999985" fill="#ffffff"></circle><circle cx="100.699999999265" cy="165.96666666740168" r="0.299999999985" fill="#ffffff"></circle><circle cx="100.699999999265" cy="167.3666666659317" r="0.299999999985" fill="#ffffff"></circle><circle cx="100" cy="180.00000000000003" r="2.99999999985" fill="#000000"></circle><circle cx="99.300000000735" cy="179.30000000073503" r="0.299999999985" fill="#ffffff"></circle><circle cx="99.300000000735" cy="180.69999999926503" r="0.299999999985" fill="#ffffff"></circle><circle cx="100.699999999265" cy="179.30000000073503" r="0.299999999985" fill="#ffffff"></circle><circle cx="100.699999999265" cy="180.69999999926503" r="0.299999999985" fill="#ffffff"></circle><circle cx="100" cy="193.33333333333337" r="2.99999999985" fill="#000000"></circle><circle cx="99.300000000735" cy="192.63333333406837" r="0.299999999985" fill="#ffffff"></circle><circle cx="99.300000000735" cy="194.03333333259837" r="0.299999999985" fill="#ffffff"></circle><circle cx="100.699999999265" cy="192.63333333406837" r="0.299999999985" fill="#ffffff"></circle><circle cx="100.699999999265" cy="194.03333333259837" r="0.299999999985" fill="#ffffff"></circle><line x1="70" y1="200" x2="70" y2="160" stroke="#000000" stroke-width="2"></line><line x1="130" y1="200" x2="130" y2="160" stroke="#000000" stroke-width="2"></line><circle id="head-39699" cx="100" cy="80" r="66.66666666666667" fill="#704734"></circle><circle id="left-eye-white" cx="80" cy="60" r="16.666666666666668" fill="white"></circle><circle id="left-eye" cx="73.55" cy="60" r="9.5" fill="#008080"></circle><circle id="left-eye-black" cx="70.46666666666667" cy="60" r="4.75" fill="black"></circle><circle id="left-eye-light" cx="75.925" cy="55.25" r="2.375" fill="white"></circle><circle cx="120" cy="60" r="16.666666666666668" fill="white"></circle><circle cx="113.55" cy="60" r="9.5" fill="#008080"></circle><circle cx="110.46666666666667" cy="60" r="4.75" fill="black"></circle><circle cx="115.925" cy="55.25" r="2.375" fill="white"></circle><clipPath id="beard-cut-off-39699"><circle cx="100" cy="80" r="66.66666666666667"></circle></clipPath><defs><pattern id="beard-39699" x="0" y="0" width="2.5" height="2.5" patternUnits="userSpaceOnUse" patternTransform="rotate(45)"><circle cx="0.5" cy="0.5" r="0.5" stroke="none" fill="#b55239"></circle></pattern></defs><rect x="33.33333333333333" y="92" width="133.33333333333334" height="66.66666666666667" fill="url(#beard-39699)" clip-path="url(#beard-cut-off-39699)"></rect><path stroke-width="6.666666666666667" stroke="#704734" fill="none" stroke-linecap="round" d="M 86.66666666666667 108.16901408450704 C 96.66666666666667 108.16901408450704, 103.33333333333333 108.16901408450704, 113.33333333333333 108.16901408450704"></path><path stroke-width="2" stroke="#000000" fill="none" stroke-linecap="round" d="M 89 108.16901408450704 C 99 108.16901408450704, 101 108.16901408450704, 111 108.16901408450704"></path><path fill="#000000" d="M 33.33333333333333 80.10000000000001 A 66.66666666666667 66.66666666666667 0 0 0 166.66666666666669 80.1 L 164 80.1 A 64 64 0 0 1 36 80.10000000000001 L 33.33333333333333 80.10000000000001 Z"></path></svg>