<svg xmlns="http://www.w3.org/2000/svg" id="natnerd-40053" class="natnerd" viewBox="0 0 200 200" style="width: 200px; height: 200px;"><defs><pattern id="pattern_40053" class="pattern" x="0" y="0" width="5" height="5" patternUnits="userSpaceOnUse" patternTransform="rotate(0)"><rect class="shirt-pattern-background" x="0" y="0" width="200" height="200" stroke="none" fill="#001f3f"></rect><circle class="shirt-circle-pattern" cx="2.5" cy="2.5" r="2.5" stroke="none" fill="#ffdc00"></circle></pattern></defs><path class="shirt" stroke="#000000" stroke-width="2" transform="translate(50, 133.33333333333331)" fill="url(#pattern_40053)" d="
    M10.81081081081081,0
    h78.37837837837839
    a10.81081081081081,10.81081081081081 0 0 1 10.81081081081081,10.81081081081081
    v58.37837837837838
    a10.81081081081081,10.81081081081081 0 0 1 -10.81081081081081,10.81081081081081
    h-78.37837837837839
    a10.81081081081081,10.81081081081081 0 0 1 -10.81081081081081,-10.81081081081081
    v-58.37837837837838
    a10.81081081081081,10.81081081081081 0 0 1 10.81081081081081,-10.81081081081081
    z
"></path><rect class="left-collar" x="80" y="91.66666666458333" width="40" height="15.00000000375" fill="#ffdc00" stroke="#000000" transform-origin="center" transform="translate(-20, 40) rotate(45)" stroke-width="2"></rect><rect class="right-collar" x="80" y="91.66666666458333" width="40" height="15.00000000375" fill="#ffdc00" stroke="#000000" transform-origin="center" transform="translate(20, 40) rotate(-45)" stroke-width="2"></rect><line class="left-inner-arm" x1="70" y1="200" x2="70" y2="160" stroke="#000000" stroke-width="2"></line><line class="right-inner-arm" x1="130" y1="200" x2="130" y2="160" stroke="#000000" stroke-width="2"></line><circle id="head-40053" class="head" cx="100" cy="80" r="66.66666666666667" fill="#ffc3a0"></circle><circle class="left-eye-white" cx="80" cy="60" r="16.666666666666668" fill="white"></circle><circle class="left-eye" cx="89.15" cy="60" r="6.5" fill="#593e1a"></circle><circle class="left-eye-black" cx="90.73333333333333" cy="60" r="3.25" fill="black"></circle><circle class="left-eye-light" cx="87.525" cy="56.75" r="1.625" fill="white"></circle><circle class="right-eye-white" cx="120" cy="60" r="16.666666666666668" fill="white"></circle><circle class="right-eye" cx="129.15" cy="60" r="6.5" fill="#593e1a"></circle><circle class="right-eye-black" cx="130.73333333333335" cy="60" r="3.25" fill="black"></circle><circle class="right-eye-light" cx="127.525" cy="56.75" r="1.625" fill="white"></circle><circle class="mouth-lips" cx="100" cy="108.16901408450704" r="11.9999999976" fill="#ffc3a0"></circle><circle class="mouth" cx="100" cy="108.16901408450704" r="10" fill="#000000"></circle><clipPath id="cut-off-40053"><circle cx="100" cy="108.16901408450704" r="10"></circle></clipPath><rect class="upper-teeth" x="90" y="98.16901408450704" width="20" height="5" fill="white" stroke="none" clip-path="url(#cut-off-40053)"></rect><g class="dental-brace"><clipPath id="cut-off"><circle cx="100" cy="108.16901408450704" r="10"></circle></clipPath><rect x="90.83333333333333" y="100.47670639219935" width="2.2222222222222223" height="2" fill="#aaa9ad" stroke="#000000" stroke-width="0.1" clip-path="url(#cut-off)"></rect><rect x="94.16666666666667" y="100.47670639219935" width="2.2222222222222223" height="2" fill="#aaa9ad" stroke="#000000" stroke-width="0.1" clip-path="url(#cut-off)"></rect><rect x="97.5" y="100.47670639219935" width="2.2222222222222223" height="2" fill="#aaa9ad" stroke="#000000" stroke-width="0.1" clip-path="url(#cut-off)"></rect><rect x="100.83333333333333" y="100.47670639219935" width="2.2222222222222223" height="2" fill="#aaa9ad" stroke="#000000" stroke-width="0.1" clip-path="url(#cut-off)"></rect><rect x="104.16666666666667" y="100.47670639219935" width="2.2222222222222223" height="2" fill="#aaa9ad" stroke="#000000" stroke-width="0.1" clip-path="url(#cut-off)"></rect><rect x="107.5" y="100.47670639219935" width="2.2222222222222223" height="2" fill="#aaa9ad" stroke="#000000" stroke-width="0.1" clip-path="url(#cut-off)"></rect><line x1="90" y1="101.50234741784037" x2="110" y2="101.50234741784037" clip-path="url(#cut-off)" stroke="#000000" stroke-width="0.2"></line></g><rect class="lower-teeth" x="96.92307692307692" y="113.16901408450704" width="3.3333333333333335" height="5" fill="white" stroke="none" clip-path="url(#cut-off-40053)"></rect><circle class="mouth-stroke" cx="100" cy="108.16901408450704" r="10" fill="none" stroke="#000000" stroke-width="2"></circle><path class="head-stroke" fill="#000000" d="M 33.33333333333333 80.10000000000001 A 66.66666666666667 66.66666666666667 0 0 0 166.66666666666669 80.1 L 164 80.1 A 64 64 0 0 1 36 80.10000000000001 L 33.33333333333333 80.10000000000001 Z"></path></svg>