<svg xmlns="http://www.w3.org/2000/svg" id="natnerd-40096" viewBox="0 0 200 200" style="width: 200px; height: 200px;"><path stroke="#000000" stroke-width="2" transform="translate(50, 133.33333333333331)" fill="#ffdc00" d="
        M10.81081081081081,0
        h78.37837837837839
        a10.81081081081081,10.81081081081081 0 0 1 10.81081081081081,10.81081081081081
        v58.37837837837838
        a10.81081081081081,10.81081081081081 0 0 1 -10.81081081081081,10.81081081081081
        h-78.37837837837839
        a10.81081081081081,10.81081081081081 0 0 1 -10.81081081081081,-10.81081081081081
        v-58.37837837837838
        a10.81081081081081,10.81081081081081 0 0 1 10.81081081081081,-10.81081081081081
        z
    "></path><text x="0" y="0" fill="#ffdc00" stroke="#000000" stroke-width="10" letter-spacing="2" font-size="36" text-anchor="middle" paint-order="stroke fill" font-weight="700" stroke-linejoin="round" font-family="Verdana" transform="translate(100,168.8888888888889) scale(0.2)">N4TN3RD5</text><rect x="80" y="92.499999998125" width="40" height="15.00000000375" fill="#ffdc00" stroke="#000000" transform-origin="center" transform="translate(-20, 40) rotate(45)" stroke-width="2"></rect><rect x="80" y="92.499999998125" width="40" height="15.00000000375" fill="#ffdc00" stroke="#000000" transform-origin="center" transform="translate(20, 40) rotate(-45)" stroke-width="2"></rect><line x1="70" y1="200" x2="70" y2="160" stroke="#000000" stroke-width="2"></line><line x1="130" y1="200" x2="130" y2="160" stroke="#000000" stroke-width="2"></line><circle id="head-40096" cx="100" cy="80" r="66.66666666666667" fill="#ffc3a0"></circle><rect x="63.33333333333333" y="43.33333333333333" width="33.333333333333336" height="33.333333333333336" fill="white"></rect><circle id="left-eye" cx="87.8" cy="60" r="8" fill="#008080"></circle><circle id="left-eye-black" cx="90.13333333333334" cy="60" r="4" fill="black"></circle><circle id="left-eye-light" cx="85.8" cy="56" r="2" fill="white"></circle><rect x="103.33333333333333" y="43.33333333333333" width="33.333333333333336" height="33.333333333333336" fill="white"></rect><circle cx="127.8" cy="60" r="8" fill="#008080"></circle><circle cx="130.13333333333333" cy="60" r="4" fill="black"></circle><circle cx="125.8" cy="56" r="2" fill="white"></circle><circle cx="100" cy="108.16901408450704" r="11.9999999976" fill="#ffc3a0"></circle><circle cx="100" cy="108.16901408450704" r="10" fill="#000000"></circle><clipPath id="cut-off-40096"><circle cx="100" cy="108.16901408450704" r="10"></circle></clipPath><rect x="90" y="98.16901408450704" width="20" height="5" fill="white" stroke="none" clip-path="url(#cut-off-40096)"></rect><rect x="96.92307692307692" y="113.16901408450704" width="3.3333333333333335" height="5" fill="white" stroke="none" clip-path="url(#cut-off-40096)"></rect><circle cx="100" cy="108.16901408450704" r="10" fill="none" stroke="#000000" stroke-width="2"></circle><clipPath id="glasses-40096-cut-off"><circle cx="100" cy="80" r="66.66666666666667"></circle></clipPath><line x1="30.162204875047678" y1="59.662757570437094" x2="63.33333333333333" y2="60" stroke="#000000" stroke-width="4" clip-path="url(#glasses-40096-cut-off)"></line><rect x="63.33333333333333" y="43.33333333333333" width="33.333333333333336" height="33.333333333333336" fill="#330000dd" stroke="#000000" stroke-width="4"></rect><rect x="103.33333333333333" y="43.33333333333333" width="33.333333333333336" height="33.333333333333336" fill="#330000dd" stroke="#000000" stroke-width="4"></rect><line x1="169.83779512495232" y1="59.662757570437094" x2="136.66666666666666" y2="60" stroke="#000000" stroke-width="4" clip-path="url(#glasses-40096-cut-off)"></line><line x1="96.66666666666667" y1="60" x2="103.33333333333333" y2="60" stroke="#000000" stroke-width="4"></line><circle id="head-40096-stroke" cx="100" cy="80" r="66.66666666666667" fill="none" stroke-width="4" stroke="#000000"></circle></svg>