<svg xmlns="http://www.w3.org/2000/svg" id="natnerd-40318" viewBox="0 0 200 200" style="width: 200px; height: 200px;"><path stroke="#000000" stroke-width="2" transform="translate(50, 133.33333333333331)" fill="#01ff70" d="
        M10.81081081081081,0
        h78.37837837837839
        a10.81081081081081,10.81081081081081 0 0 1 10.81081081081081,10.81081081081081
        v58.37837837837838
        a10.81081081081081,10.81081081081081 0 0 1 -10.81081081081081,10.81081081081081
        h-78.37837837837839
        a10.81081081081081,10.81081081081081 0 0 1 -10.81081081081081,-10.81081081081081
        v-58.37837837837838
        a10.81081081081081,10.81081081081081 0 0 1 10.81081081081081,-10.81081081081081
        z
    "></path><text x="0" y="0" fill="#01ff70" stroke="#000000" stroke-width="10" letter-spacing="2" font-size="36" text-anchor="middle" paint-order="stroke fill" font-weight="700" stroke-linejoin="round" font-family="Verdana" transform="translate(100,168.8888888888889) scale(0.2)">N4TN3RD5</text><line x1="70" y1="200" x2="70" y2="160" stroke="#000000" stroke-width="2"></line><line x1="130" y1="200" x2="130" y2="160" stroke="#000000" stroke-width="2"></line><circle id="head-40318" cx="100" cy="80" r="66.66666666666667" fill="#ffa05e"></circle><circle id="left-eye-white" cx="80" cy="60" r="16.666666666666668" fill="white"></circle><circle id="left-eye" cx="86.9" cy="60" r="9" fill="#7bc4c4"></circle><circle id="left-eye-black" cx="89.73333333333333" cy="60" r="4.5" fill="black"></circle><circle id="left-eye-light" cx="84.65" cy="55.5" r="2.25" fill="white"></circle><circle cx="120" cy="60" r="16.666666666666668" fill="white"></circle><circle cx="126.9" cy="60" r="9" fill="#7bc4c4"></circle><circle cx="129.73333333333335" cy="60" r="4.5" fill="black"></circle><circle cx="124.65" cy="55.5" r="2.25" fill="white"></circle><circle cx="100" cy="108.16901408450704" r="11.9999999976" fill="#ffa05e"></circle><circle cx="100" cy="108.16901408450704" r="10" fill="#000000"></circle><clipPath id="cut-off-40318"><circle cx="100" cy="108.16901408450704" r="10"></circle></clipPath><rect x="90" y="98.16901408450704" width="20" height="5" fill="white" stroke="none" clip-path="url(#cut-off-40318)"></rect><circle cx="100" cy="108.16901408450704" r="10" fill="none" stroke="#000000" stroke-width="2"></circle><circle id="head-40318-stroke" cx="100" cy="80" r="66.66666666666667" fill="none" stroke-width="4" stroke="#000000"></circle></svg>