<svg xmlns="http://www.w3.org/2000/svg" id="natnerd-449889" viewBox="0 0 200 200" style="width: 200px; height: 200px;"><defs><pattern id="pattern_449889" x="0" y="0" width="20" height="20" patternUnits="userSpaceOnUse" patternTransform="rotate(45)"><rect x="0" y="0" width="200" height="200" stroke="none" fill="#aaaaaa"></rect><rect x="0" y="0" width="10" height="10" stroke="none" fill="#ffdc00"></rect></pattern></defs><path stroke="#000000" stroke-width="2" transform="translate(50, 133.33333333333331)" fill="url(#pattern_449889)" d="
        M10.81081081081081,0
        h78.37837837837839
        a10.81081081081081,10.81081081081081 0 0 1 10.81081081081081,10.81081081081081
        v58.37837837837838
        a10.81081081081081,10.81081081081081 0 0 1 -10.81081081081081,10.81081081081081
        h-78.37837837837839
        a10.81081081081081,10.81081081081081 0 0 1 -10.81081081081081,-10.81081081081081
        v-58.37837837837838
        a10.81081081081081,10.81081081081081 0 0 1 10.81081081081081,-10.81081081081081
        z
    "></path><line x1="70" y1="200" x2="70" y2="160" stroke="#000000" stroke-width="2"></line><line x1="130" y1="200" x2="130" y2="160" stroke="#000000" stroke-width="2"></line><rect x="70" y="190.76923076923077" width="60" height="40" fill="#4e3222" stroke="#000000" stroke-width="2"></rect><circle cx="100" cy="200" r="1.3333333333333333" fill="#000000"></circle><circle id="head-449889" cx="100" cy="80" r="66.66666666666667" fill="#4e3222"></circle><circle id="left-eye-white" cx="80" cy="60" r="16.666666666666668" fill="white"></circle><circle id="left-eye" cx="73.55" cy="60" r="9.5" fill="#ffbf00"></circle><circle id="left-eye-black" cx="70.46666666666667" cy="60" r="4.75" fill="black"></circle><circle id="left-eye-light" cx="75.925" cy="55.25" r="2.375" fill="white"></circle><circle cx="120" cy="60" r="16.666666666666668" fill="white"></circle><circle cx="113.55" cy="60" r="9.5" fill="#ffbf00"></circle><circle cx="110.46666666666667" cy="60" r="4.75" fill="black"></circle><circle cx="115.925" cy="55.25" r="2.375" fill="white"></circle><path stroke-width="6.666666666666667" stroke="#4e3222" fill="none" stroke-linecap="round" d="M 86.66666666666667 108.16901408450704 C 96.66666666666667 108.16901408450704, 103.33333333333333 108.16901408450704, 113.33333333333333 108.16901408450704"></path><path stroke-width="2" stroke="#000000" fill="none" stroke-linecap="round" d="M 89 108.16901408450704 C 99 108.16901408450704, 101 108.16901408450704, 111 108.16901408450704"></path><circle id="head-449889-stroke" cx="100" cy="80" r="66.66666666666667" fill="none" stroke-width="2" stroke="#000000"></circle><path fill="#ffb6c1" d="M 100 8.333333333333329 A 71.66666666666667 71.66666666666667 0 0 0 28.33333333333333 79.99999999999999 L 48.33333333333333 80 A 51.66666666666667 51.66666666666667 0 0 1 100 28.33333333333333 L 100 8.333333333333329 Z"></path><path fill="#ffb6c1" d="M 171.66666666666669 80 A 71.66666666666667 71.66666666666667 0 0 0 98.74924420532801 8.344248513791953 L 99.09829233407369 28.341202416919778 A 51.66666666666667 51.66666666666667 0 0 1 151.66666666666669 80 L 171.66666666666669 80 Z"></path><rect x="28.33333333333333" y="79" width="20" height="200" fill="#ffb6c1"></rect><rect x="151.66666666666669" y="79" width="20" height="200" fill="#ffb6c1"></rect><path fill="#000" d="M 100 8.333333333333329 A 71.66666666666667 71.66666666666667 0 0 0 28.33333333333333 79.99999999999999 L 29.33333333333333 79.99999999999999 A 70.66666666666667 70.66666666666667 0 0 1 100 9.333333333333329 L 100 8.333333333333329 Z"></path><path fill="#000" d="M 171.66666666666669 80 A 71.66666666666667 71.66666666666667 0 0 0 98.74924420532801 8.344248513791953 L 98.7666966117653 9.344096208948343 A 70.66666666666667 70.66666666666667 0 0 1 170.66666666666669 80 L 171.66666666666669 80 Z"></path><rect x="28.33333333333333" y="79" width="1" height="200" fill="#000"></rect><rect x="170.66666666666669" y="79" width="1" height="200" fill="#000"></rect><path fill="#000" d="M 100 10.333333333333329 A 69.66666666666667 69.66666666666667 0 0 0 30.33333333333333 79.99999999999999 L 31.33333333333333 79.99999999999999 A 68.66666666666667 68.66666666666667 0 0 1 100 11.333333333333329 L 100 10.333333333333329 Z"></path><path fill="#000" d="M 169.66666666666669 80 A 69.66666666666667 69.66666666666667 0 0 0 98.78414901820258 10.343943904104734 L 98.80160142463987 11.343791599261124 A 68.66666666666667 68.66666666666667 0 0 1 168.66666666666669 80 L 169.66666666666669 80 Z"></path><rect x="30.33333333333333" y="79" width="1" height="200" fill="#000"></rect><rect x="168.66666666666669" y="79" width="1" height="200" fill="#000"></rect><path fill="#000" d="M 100 12.333333333333329 A 67.66666666666667 67.66666666666667 0 0 0 32.33333333333333 79.99999999999999 L 33.33333333333333 79.99999999999999 A 66.66666666666667 66.66666666666667 0 0 1 100 13.333333333333329 L 100 12.333333333333329 Z"></path><path fill="#000" d="M 167.66666666666669 80 A 67.66666666666667 67.66666666666667 0 0 0 98.81905383107716 12.343639294417514 L 98.83650623751444 13.343486989573904 A 66.66666666666667 66.66666666666667 0 0 1 166.66666666666669 80 L 167.66666666666669 80 Z"></path><rect x="32.33333333333333" y="79" width="1" height="200" fill="#000"></rect><rect x="166.66666666666669" y="79" width="1" height="200" fill="#000"></rect><path fill="#000" d="M 100 14.333333333333329 A 65.66666666666667 65.66666666666667 0 0 0 34.33333333333333 79.99999999999999 L 35.33333333333333 79.99999999999999 A 64.66666666666667 64.66666666666667 0 0 1 100 15.333333333333329 L 100 14.333333333333329 Z"></path><path fill="#000" d="M 165.66666666666669 80 A 65.66666666666667 65.66666666666667 0 0 0 98.85395864395171 14.343334684730308 L 98.871411050389 15.343182379886699 A 64.66666666666667 64.66666666666667 0 0 1 164.66666666666669 80 L 165.66666666666669 80 Z"></path><rect x="34.33333333333333" y="79" width="1" height="200" fill="#000"></rect><rect x="164.66666666666669" y="79" width="1" height="200" fill="#000"></rect><path fill="#000" d="M 100 16.33333333333333 A 63.66666666666667 63.66666666666667 0 0 0 36.33333333333333 79.99999999999999 L 37.33333333333333 79.99999999999999 A 62.66666666666667 62.66666666666667 0 0 1 100 17.33333333333333 L 100 16.33333333333333 Z"></path><path fill="#000" d="M 163.66666666666669 80 A 63.66666666666667 63.66666666666667 0 0 0 98.88886345682629 16.34303007504308 L 98.90631586326357 17.34287777019948 A 62.66666666666667 62.66666666666667 0 0 1 162.66666666666669 80 L 163.66666666666669 80 Z"></path><rect x="36.33333333333333" y="79" width="1" height="200" fill="#000"></rect><rect x="162.66666666666669" y="79" width="1" height="200" fill="#000"></rect><path fill="#000" d="M 100 18.33333333333333 A 61.66666666666667 61.66666666666667 0 0 0 38.33333333333333 79.99999999999999 L 39.33333333333333 79.99999999999999 A 60.66666666666667 60.66666666666667 0 0 1 100 19.33333333333333 L 100 18.33333333333333 Z"></path><path fill="#000" d="M 161.66666666666669 80 A 61.66666666666667 61.66666666666667 0 0 0 98.92376826970086 18.34272546535587 L 98.94122067613813 19.34257316051226 A 60.66666666666667 60.66666666666667 0 0 1 160.66666666666669 80 L 161.66666666666669 80 Z"></path><rect x="38.33333333333333" y="79" width="1" height="200" fill="#000"></rect><rect x="160.66666666666669" y="79" width="1" height="200" fill="#000"></rect><path fill="#000" d="M 100 20.33333333333333 A 59.66666666666667 59.66666666666667 0 0 0 40.33333333333333 79.99999999999999 L 41.33333333333333 79.99999999999999 A 58.66666666666667 58.66666666666667 0 0 1 100 21.33333333333333 L 100 20.33333333333333 Z"></path><path fill="#000" d="M 159.66666666666669 80 A 59.66666666666667 59.66666666666667 0 0 0 98.95867308257542 20.34242085566865 L 98.9761254890127 21.34226855082504 A 58.66666666666667 58.66666666666667 0 0 1 158.66666666666669 80 L 159.66666666666669 80 Z"></path><rect x="40.33333333333333" y="79" width="1" height="200" fill="#000"></rect><rect x="158.66666666666669" y="79" width="1" height="200" fill="#000"></rect><path fill="#000" d="M 100 22.33333333333333 A 57.66666666666667 57.66666666666667 0 0 0 42.33333333333333 80 L 43.33333333333333 80 A 56.66666666666667 56.66666666666667 0 0 1 100 23.33333333333333 L 100 22.33333333333333 Z"></path><path fill="#000" d="M 157.66666666666669 80 A 57.66666666666667 57.66666666666667 0 0 0 98.99357789544999 22.34211624598143 L 99.01103030188727 23.34196394113782 A 56.66666666666667 56.66666666666667 0 0 1 156.66666666666669 80 L 157.66666666666669 80 Z"></path><rect x="42.33333333333333" y="79" width="1" height="200" fill="#000"></rect><rect x="156.66666666666669" y="79" width="1" height="200" fill="#000"></rect><path fill="#000" d="M 100 24.33333333333333 A 55.66666666666667 55.66666666666667 0 0 0 44.33333333333333 80 L 45.33333333333333 80 A 54.66666666666667 54.66666666666667 0 0 1 100 25.33333333333333 L 100 24.33333333333333 Z"></path><path fill="#000" d="M 155.66666666666669 80 A 55.66666666666667 55.66666666666667 0 0 0 99.02848270832455 24.341811636294217 L 99.04593511476183 25.341659331450607 A 54.66666666666667 54.66666666666667 0 0 1 154.66666666666669 80 L 155.66666666666669 80 Z"></path><rect x="44.33333333333333" y="79" width="1" height="200" fill="#000"></rect><rect x="154.66666666666669" y="79" width="1" height="200" fill="#000"></rect><path fill="#000" d="M 100 26.33333333333333 A 53.66666666666667 53.66666666666667 0 0 0 46.33333333333333 80 L 47.33333333333333 80 A 52.66666666666667 52.66666666666667 0 0 1 100 27.33333333333333 L 100 26.33333333333333 Z"></path><path fill="#000" d="M 153.66666666666669 80 A 53.66666666666667 53.66666666666667 0 0 0 99.06338752119912 26.341507026606997 L 99.0808399276364 27.341354721763388 A 52.66666666666667 52.66666666666667 0 0 1 152.66666666666669 80 L 153.66666666666669 80 Z"></path><rect x="46.33333333333333" y="79" width="1" height="200" fill="#000"></rect><rect x="152.66666666666669" y="79" width="1" height="200" fill="#000"></rect><path fill="#000" d="M 100 28.33333333333333 A 51.66666666666667 51.66666666666667 0 0 0 48.33333333333333 80 L 49.33333333333333 80 A 50.66666666666667 50.66666666666667 0 0 1 100 29.33333333333333 L 100 28.33333333333333 Z"></path><path fill="#000" d="M 151.66666666666669 80 A 51.66666666666667 51.66666666666667 0 0 0 99.09829233407369 28.341202416919778 L 99.11574474051098 29.341050112076168 A 50.66666666666667 50.66666666666667 0 0 1 150.66666666666669 80 L 151.66666666666669 80 Z"></path><rect x="48.33333333333333" y="79" width="1" height="200" fill="#000"></rect><rect x="150.66666666666669" y="79" width="1" height="200" fill="#000"></rect><defs><pattern id="cap-449889" x="33.33333333333333" y="13.333333333333329" width="2.9629629629629632" height="14.814814814814817" patternUnits="userSpaceOnUse"><rect x="0" y="0" width="140" height="14.814814814814817" fill="#000"></rect><line x1="0" y1="0" x2="0" y2="14.814814814814817" stroke="#aa0000" stroke-width="2.9629629629629632"></line></pattern></defs><clipPath id="head_clip-449889"><circle id="head_clip" cx="100" cy="80" r="71"></circle></clipPath><rect x="33.33333333333333" y="26.801346801346796" width="140" height="14.814814814814817" fill="url(#cap-449889)" clip-path="url(#head_clip-449889)"></rect></svg>