<svg xmlns="http://www.w3.org/2000/svg" id="natnerd-449914" viewBox="0 0 200 200" style="width: 200px; height: 200px;"><path stroke="#000000" stroke-width="2" transform="translate(50, 133.33333333333331)" fill="#01ff70" d="
        M10.81081081081081,0
        h78.37837837837839
        a10.81081081081081,10.81081081081081 0 0 1 10.81081081081081,10.81081081081081
        v58.37837837837838
        a10.81081081081081,10.81081081081081 0 0 1 -10.81081081081081,10.81081081081081
        h-78.37837837837839
        a10.81081081081081,10.81081081081081 0 0 1 -10.81081081081081,-10.81081081081081
        v-58.37837837837838
        a10.81081081081081,10.81081081081081 0 0 1 10.81081081081081,-10.81081081081081
        z
    "></path><line x1="70" y1="200" x2="70" y2="160" stroke="#000000" stroke-width="2"></line><line x1="130" y1="200" x2="130" y2="160" stroke="#000000" stroke-width="2"></line><circle id="head-449914" cx="100" cy="80" r="66.66666666666667" fill="#3d2618"></circle><circle id="left-eye-white" cx="80" cy="60" r="16.666666666666668" fill="white"></circle><circle id="left-eye" cx="71.3" cy="60" r="7.000000000000001" fill="#7bc4c4"></circle><circle id="left-eye-black" cx="69.46666666666667" cy="60" r="3.5000000000000004" fill="black"></circle><circle id="left-eye-light" cx="73.05" cy="56.5" r="1.7500000000000002" fill="white"></circle><circle cx="120" cy="60" r="16.666666666666668" fill="white"></circle><circle cx="111.3" cy="60" r="7.000000000000001" fill="#7bc4c4"></circle><circle cx="109.46666666666667" cy="60" r="3.5000000000000004" fill="black"></circle><circle cx="113.05" cy="56.5" r="1.7500000000000002" fill="white"></circle><clipPath id="beard-cut-off-449914"><circle cx="100" cy="80" r="66.66666666666667"></circle></clipPath><defs><pattern id="beard-449914" x="0" y="0" width="2.5" height="2.5" patternUnits="userSpaceOnUse" patternTransform="rotate(45)"><circle cx="0.5" cy="0.5" r="0.5" stroke="none" fill="#000"></circle></pattern></defs><rect x="33.33333333333333" y="92" width="133.33333333333334" height="66.66666666666667" fill="url(#beard-449914)" clip-path="url(#beard-cut-off-449914)"></rect><path stroke-width="6.666666666666667" stroke="#3d2618" fill="none" stroke-linecap="round" d="M 86.66666666666667 108.16901408450704 C 96.66666666666667 108.16901408450704, 103.33333333333333 108.16901408450704, 113.33333333333333 108.16901408450704"></path><path stroke-width="2" stroke="#000000" fill="none" stroke-linecap="round" d="M 89 108.16901408450704 C 99 108.16901408450704, 101 108.16901408450704, 111 108.16901408450704"></path><circle id="head-449914-stroke" cx="100" cy="80" r="66.66666666666667" fill="none" stroke-width="4" stroke="#000000"></circle><defs><pattern id="cap-449914" x="33.33333333333333" y="13.333333333333329" width="2.9629629629629632" height="14.814814814814817" patternUnits="userSpaceOnUse"><rect x="0" y="0" width="133.33333333333334" height="14.814814814814817" fill="#000"></rect><line x1="0" y1="0" x2="0" y2="14.814814814814817" stroke="#583101" stroke-width="2.9629629629629632"></line></pattern></defs><clipPath id="head_clip-449914"><circle id="head_clip" cx="100" cy="80" r="68.66666666666667"></circle></clipPath><rect x="33.33333333333333" y="26.801346801346796" width="133.33333333333334" height="14.814814814814817" fill="url(#cap-449914)" clip-path="url(#head_clip-449914)"></rect></svg>