<svg xmlns="http://www.w3.org/2000/svg" id="natnerd-450675" class="natnerd" viewBox="0 0 200 200" style="width: 200px; height: 200px;"><defs><pattern id="pattern_450675" class="pattern" x="0" y="0" width="15" height="15" patternUnits="userSpaceOnUse" patternTransform="rotate(45)"><rect class="shirt-pattern-background" x="0" y="0" width="200" height="200" stroke="none" fill="#444444"></rect><rect class="shirt-rect-pattern" x="0" y="0" width="7.5" height="7.5" stroke="none" fill="#ffdc00"></rect></pattern></defs><path class="shirt" stroke="#000000" stroke-width="2" transform="translate(50, 133.33333333333331)" fill="url(#pattern_450675)" d="
    M10.81081081081081,0
    h78.37837837837839
    a10.81081081081081,10.81081081081081 0 0 1 10.81081081081081,10.81081081081081
    v58.37837837837838
    a10.81081081081081,10.81081081081081 0 0 1 -10.81081081081081,10.81081081081081
    h-78.37837837837839
    a10.81081081081081,10.81081081081081 0 0 1 -10.81081081081081,-10.81081081081081
    v-58.37837837837838
    a10.81081081081081,10.81081081081081 0 0 1 10.81081081081081,-10.81081081081081
    z
"></path><line class="left-inner-arm" x1="70" y1="200" x2="70" y2="160" stroke="#000000" stroke-width="2"></line><line class="right-inner-arm" x1="130" y1="200" x2="130" y2="160" stroke="#000000" stroke-width="2"></line><circle id="head-450675" class="head" cx="100" cy="80" r="66.66666666666667" fill="#704734"></circle><circle class="left-eye-white" cx="80" cy="60" r="16.666666666666668" fill="white"></circle><circle class="left-eye" cx="88.25" cy="60" r="7.5" fill="#0bda51"></circle><circle class="left-eye-black" cx="90.33333333333334" cy="60" r="3.75" fill="black"></circle><circle class="left-eye-light" cx="86.375" cy="56.25" r="1.875" fill="white"></circle><circle class="right-eye-white" cx="120" cy="60" r="16.666666666666668" fill="white"></circle><circle class="right-eye" cx="128.25" cy="60" r="7.5" fill="#0bda51"></circle><circle class="right-eye-black" cx="130.33333333333334" cy="60" r="3.75" fill="black"></circle><circle class="right-eye-light" cx="126.375" cy="56.25" r="1.875" fill="white"></circle><circle class="mouth-lips" cx="100" cy="108.16901408450704" r="11.9999999976" fill="#704734"></circle><circle class="mouth" cx="100" cy="108.16901408450704" r="10" fill="#000000"></circle><clipPath id="cut-off-450675"><circle cx="100" cy="108.16901408450704" r="10"></circle></clipPath><rect class="upper-teeth" x="90" y="98.16901408450704" width="20" height="5" fill="white" stroke="none" clip-path="url(#cut-off-450675)"></rect><circle class="mouth-stroke" cx="100" cy="108.16901408450704" r="10" fill="none" stroke="#000000" stroke-width="2"></circle><path class="head-stroke" fill="#000000" d="M 33.33333333333333 80.10000000000001 A 66.66666666666667 66.66666666666667 0 0 0 166.66666666666669 80.1 L 164 80.1 A 64 64 0 0 1 36 80.10000000000001 L 33.33333333333333 80.10000000000001 Z"></path><g class="headband"><defs><pattern id="cap-450675" x="33.33333333333333" y="13.333333333333329" width="2.9629629629629632" height="14.814814814814817" patternUnits="userSpaceOnUse"><rect x="0" y="0" width="133.33333333333334" height="14.814814814814817" fill="#000"></rect><line x1="0" y1="0" x2="0" y2="14.814814814814817" stroke="#aa0000" stroke-width="2.9629629629629632"></line></pattern></defs><clipPath id="head_clip-450675"><circle id="head_clip" cx="100" cy="80" r="66.66666666666667"></circle></clipPath><rect x="33.33333333333333" y="26.801346801346796" width="133.33333333333334" height="14.814814814814817" fill="url(#cap-450675)" clip-path="url(#head_clip-450675)"></rect></g></svg>