<svg xmlns="http://www.w3.org/2000/svg" id="natnerd-450696" class="natnerd" viewBox="0 0 200 200" style="width: 200px; height: 200px;"><defs><pattern id="pattern_450696" class="pattern rainbow-flag-pattern" x="0" y="0" width="1" height="68.96551724137932" patternUnits="userSpaceOnUse"><g x="0" y="0" width="1" height="68.96551724137932"><rect x="0" y="0" width="1" height="11.49425287356322" stroke="none" fill="#e40303"></rect><rect x="0" y="11.49425287356322" width="1" height="11.49425287356322" stroke="none" fill="#ff8c00"></rect><rect x="0" y="22.98850574712644" width="1" height="11.49425287356322" stroke="none" fill="#ffed00"></rect><rect x="0" y="34.48275862068966" width="1" height="11.49425287356322" stroke="none" fill="#008026"></rect><rect x="0" y="45.97701149425288" width="1" height="11.49425287356322" stroke="none" fill="#24408e"></rect><rect x="0" y="57.4712643678161" width="1" height="11.49425287356322" stroke="none" fill="#732982"></rect></g></pattern></defs><path class="shirt" stroke="#000000" stroke-width="2" transform="translate(50, 133.33333333333331)" fill="url(#pattern_450696)" d="
    M10.81081081081081,0
    h78.37837837837839
    a10.81081081081081,10.81081081081081 0 0 1 10.81081081081081,10.81081081081081
    v58.37837837837838
    a10.81081081081081,10.81081081081081 0 0 1 -10.81081081081081,10.81081081081081
    h-78.37837837837839
    a10.81081081081081,10.81081081081081 0 0 1 -10.81081081081081,-10.81081081081081
    v-58.37837837837838
    a10.81081081081081,10.81081081081081 0 0 1 10.81081081081081,-10.81081081081081
    z
"></path><g class="buttons"><circle cx="100" cy="166.66666666666669" r="2.99999999985" fill="#000000"></circle><circle cx="99.300000000735" cy="165.96666666740168" r="0.299999999985" fill="#ffffff"></circle><circle cx="99.300000000735" cy="167.3666666659317" r="0.299999999985" fill="#ffffff"></circle><circle cx="100.699999999265" cy="165.96666666740168" r="0.299999999985" fill="#ffffff"></circle><circle cx="100.699999999265" cy="167.3666666659317" r="0.299999999985" fill="#ffffff"></circle><circle cx="100" cy="180.00000000000003" r="2.99999999985" fill="#000000"></circle><circle cx="99.300000000735" cy="179.30000000073503" r="0.299999999985" fill="#ffffff"></circle><circle cx="99.300000000735" cy="180.69999999926503" r="0.299999999985" fill="#ffffff"></circle><circle cx="100.699999999265" cy="179.30000000073503" r="0.299999999985" fill="#ffffff"></circle><circle cx="100.699999999265" cy="180.69999999926503" r="0.299999999985" fill="#ffffff"></circle><circle cx="100" cy="193.33333333333337" r="2.99999999985" fill="#000000"></circle><circle cx="99.300000000735" cy="192.63333333406837" r="0.299999999985" fill="#ffffff"></circle><circle cx="99.300000000735" cy="194.03333333259837" r="0.299999999985" fill="#ffffff"></circle><circle cx="100.699999999265" cy="192.63333333406837" r="0.299999999985" fill="#ffffff"></circle><circle cx="100.699999999265" cy="194.03333333259837" r="0.299999999985" fill="#ffffff"></circle></g><line class="left-inner-arm" x1="70" y1="200" x2="70" y2="160" stroke="#000000" stroke-width="2"></line><line class="right-inner-arm" x1="130" y1="200" x2="130" y2="160" stroke="#000000" stroke-width="2"></line><circle id="head-450696" class="head" cx="100" cy="80" r="66.66666666666667" fill="#704734"></circle><rect class="left-eye-white" x="63.33333333333333" y="43.33333333333333" width="33.333333333333336" height="33.333333333333336" fill="white"></rect><circle class="left-eye" cx="87.8" cy="60" r="8" fill="#008080"></circle><circle class="left-eye-black" cx="90.13333333333334" cy="60" r="4" fill="black"></circle><circle class="left-eye-light" cx="85.8" cy="56" r="2" fill="white"></circle><rect class="right-eye-white" x="103.33333333333333" y="43.33333333333333" width="33.333333333333336" height="33.333333333333336" fill="white"></rect><circle class="right-eye" cx="127.8" cy="60" r="8" fill="#008080"></circle><circle class="right-eye-black" cx="130.13333333333333" cy="60" r="4" fill="black"></circle><circle class="right-eye-light" cx="125.8" cy="56" r="2" fill="white"></circle><circle class="mouth-lips" cx="100" cy="108.16901408450704" r="11.9999999976" fill="#704734"></circle><circle class="mouth" cx="100" cy="108.16901408450704" r="10" fill="#000000"></circle><clipPath id="cut-off-450696"><circle cx="100" cy="108.16901408450704" r="10"></circle></clipPath><rect class="upper-teeth" x="90" y="98.16901408450704" width="20" height="5" fill="white" stroke="none" clip-path="url(#cut-off-450696)"></rect><circle class="mouth-stroke" cx="100" cy="108.16901408450704" r="10" fill="none" stroke="#000000" stroke-width="2"></circle><g class="glasses"><clipPath id="glasses-450696-cut-off"><circle cx="100" cy="80" r="66.66666666666667"></circle></clipPath><line x1="30.162204875047678" y1="59.662757570437094" x2="63.33333333333333" y2="60" stroke="#000000" stroke-width="4" clip-path="url(#glasses-450696-cut-off)"></line><rect x="63.33333333333333" y="43.33333333333333" width="33.333333333333336" height="33.333333333333336" fill="none" stroke="#000000" stroke-width="4"></rect><rect x="103.33333333333333" y="43.33333333333333" width="33.333333333333336" height="33.333333333333336" fill="none" stroke="#000000" stroke-width="4"></rect><line x1="169.83779512495232" y1="59.662757570437094" x2="136.66666666666666" y2="60" stroke="#000000" stroke-width="4" clip-path="url(#glasses-450696-cut-off)"></line><line x1="96.66666666666667" y1="60" x2="103.33333333333333" y2="60" stroke="#000000" stroke-width="4"></line></g><circle class="head-stroke" cx="100" cy="80" r="66.66666666666667" fill="none" stroke-width="4" stroke="#000000"></circle><g class="headband"><defs><pattern id="cap-450696" x="33.33333333333333" y="13.333333333333329" width="2.9629629629629632" height="14.814814814814817" patternUnits="userSpaceOnUse"><rect x="0" y="0" width="133.33333333333334" height="14.814814814814817" fill="#000"></rect><line x1="0" y1="0" x2="0" y2="14.814814814814817" stroke="#ffdc00" stroke-width="2.9629629629629632"></line></pattern></defs><clipPath id="head_clip-450696"><circle id="head_clip" cx="100" cy="80" r="68.66666666666667"></circle></clipPath><rect x="33.33333333333333" y="26.801346801346796" width="133.33333333333334" height="14.814814814814817" fill="url(#cap-450696)" clip-path="url(#head_clip-450696)"></rect></g></svg>