<svg xmlns="http://www.w3.org/2000/svg" id="natnerd-450736" viewBox="0 0 200 200" style="width: 200px; height: 200px;"><path stroke="#000000" stroke-width="2" transform="translate(50, 133.33333333333331)" fill="#01ff70" d="
        M10.81081081081081,0
        h78.37837837837839
        a10.81081081081081,10.81081081081081 0 0 1 10.81081081081081,10.81081081081081
        v58.37837837837838
        a10.81081081081081,10.81081081081081 0 0 1 -10.81081081081081,10.81081081081081
        h-78.37837837837839
        a10.81081081081081,10.81081081081081 0 0 1 -10.81081081081081,-10.81081081081081
        v-58.37837837837838
        a10.81081081081081,10.81081081081081 0 0 1 10.81081081081081,-10.81081081081081
        z
    "></path><text x="0" y="0" fill="#01ff70" stroke="#000000" stroke-width="10" letter-spacing="2" font-size="36" text-anchor="middle" paint-order="stroke fill" font-weight="700" stroke-linejoin="round" font-family="Verdana" transform="translate(100,168.8888888888889) scale(0.2)">N4TN3RD5</text><line x1="70" y1="200" x2="70" y2="160" stroke="#000000" stroke-width="2"></line><line x1="130" y1="200" x2="130" y2="160" stroke="#000000" stroke-width="2"></line><circle id="head-450736" cx="100" cy="80" r="66.66666666666667" fill="#5e3a27"></circle><circle id="left-eye-white" cx="80" cy="60" r="16.666666666666668" fill="white"></circle><circle id="left-eye" cx="87.8" cy="60" r="8" fill="#8e7618"></circle><circle id="left-eye-black" cx="90.13333333333334" cy="60" r="4" fill="black"></circle><circle id="left-eye-light" cx="85.8" cy="56" r="2" fill="white"></circle><circle cx="120" cy="60" r="16.666666666666668" fill="white"></circle><circle cx="127.8" cy="60" r="8" fill="#8e7618"></circle><circle cx="130.13333333333333" cy="60" r="4" fill="black"></circle><circle cx="125.8" cy="56" r="2" fill="white"></circle><circle cx="100" cy="108.16901408450704" r="11.9999999976" fill="#5e3a27"></circle><circle cx="100" cy="108.16901408450704" r="10" fill="#000000"></circle><clipPath id="cut-off-450736"><circle cx="100" cy="108.16901408450704" r="10"></circle></clipPath><rect x="90" y="98.16901408450704" width="20" height="5" fill="white" stroke="none" clip-path="url(#cut-off-450736)"></rect><clipPath id="cut-off"><circle cx="100" cy="108.16901408450704" r="10"></circle></clipPath><rect x="90.83333333333333" y="100.47670639219935" width="2.2222222222222223" height="2" fill="#aaa9ad" stroke="#000000" stroke-width="0.1" clip-path="url(#cut-off)"></rect><rect x="94.16666666666667" y="100.47670639219935" width="2.2222222222222223" height="2" fill="#aaa9ad" stroke="#000000" stroke-width="0.1" clip-path="url(#cut-off)"></rect><rect x="97.5" y="100.47670639219935" width="2.2222222222222223" height="2" fill="#aaa9ad" stroke="#000000" stroke-width="0.1" clip-path="url(#cut-off)"></rect><rect x="100.83333333333333" y="100.47670639219935" width="2.2222222222222223" height="2" fill="#aaa9ad" stroke="#000000" stroke-width="0.1" clip-path="url(#cut-off)"></rect><rect x="104.16666666666667" y="100.47670639219935" width="2.2222222222222223" height="2" fill="#aaa9ad" stroke="#000000" stroke-width="0.1" clip-path="url(#cut-off)"></rect><rect x="107.5" y="100.47670639219935" width="2.2222222222222223" height="2" fill="#aaa9ad" stroke="#000000" stroke-width="0.1" clip-path="url(#cut-off)"></rect><line x1="90" y1="101.50234741784037" x2="110" y2="101.50234741784037" clip-path="url(#cut-off)" stroke="#000000" stroke-width="0.2"></line><circle cx="100" cy="108.16901408450704" r="10" fill="none" stroke="#000000" stroke-width="2"></circle><clipPath id="glasses-450736-cut-off"><circle cx="100" cy="80" r="66.66666666666667"></circle></clipPath><line x1="30.162204875047678" y1="59.662757570437094" x2="63.33333333333333" y2="60" stroke="#8b0000" stroke-width="4" clip-path="url(#glasses-450736-cut-off)"></line><circle id="mouth_stroke" cx="80" cy="60" r="16.666666666666668" fill="none" stroke="#8b0000" stroke-width="4"></circle><circle id="mouth_stroke" cx="120" cy="60" r="16.666666666666668" fill="none" stroke="#8b0000" stroke-width="4"></circle><line x1="169.83779512495232" y1="59.662757570437094" x2="136.66666666666666" y2="60" stroke="#8b0000" stroke-width="4" clip-path="url(#glasses-450736-cut-off)"></line><line x1="96.66666666666667" y1="60" x2="103.33333333333333" y2="60" stroke="#8b0000" stroke-width="4"></line><circle id="head-450736-stroke" cx="100" cy="80" r="66.66666666666667" fill="none" stroke-width="4" stroke="#000000"></circle><defs><pattern id="cap-450736" x="33.33333333333333" y="13.333333333333329" width="2.9629629629629632" height="14.814814814814817" patternUnits="userSpaceOnUse"><rect x="0" y="0" width="133.33333333333334" height="14.814814814814817" fill="#000"></rect><line x1="0" y1="0" x2="0" y2="14.814814814814817" stroke="#008000" stroke-width="2.9629629629629632"></line></pattern></defs><clipPath id="head_clip-450736"><circle id="head_clip" cx="100" cy="80" r="68.66666666666667"></circle></clipPath><rect x="33.33333333333333" y="26.801346801346796" width="133.33333333333334" height="14.814814814814817" fill="url(#cap-450736)" clip-path="url(#head_clip-450736)"></rect></svg>