<svg xmlns="http://www.w3.org/2000/svg" id="natnerd-450910" class="natnerd" viewBox="0 0 200 200" style="width: 200px; height: 200px;"><path class="shirt" stroke="#000000" stroke-width="2" transform="translate(50, 133.33333333333331)" fill="#01ff70" d="
    M10.81081081081081,0
    h78.37837837837839
    a10.81081081081081,10.81081081081081 0 0 1 10.81081081081081,10.81081081081081
    v58.37837837837838
    a10.81081081081081,10.81081081081081 0 0 1 -10.81081081081081,10.81081081081081
    h-78.37837837837839
    a10.81081081081081,10.81081081081081 0 0 1 -10.81081081081081,-10.81081081081081
    v-58.37837837837838
    a10.81081081081081,10.81081081081081 0 0 1 10.81081081081081,-10.81081081081081
    z
"></path><line class="left-inner-arm" x1="70" y1="200" x2="70" y2="160" stroke="#000000" stroke-width="2"></line><line class="right-inner-arm" x1="130" y1="200" x2="130" y2="160" stroke="#000000" stroke-width="2"></line><circle id="head-450910" class="head" cx="100" cy="80" r="66.66666666666667" fill="#3d2618"></circle><circle class="left-eye-white" cx="80" cy="60" r="16.666666666666668" fill="white"></circle><circle class="left-eye" cx="90.5" cy="60" r="5" fill="#7bc4c4"></circle><circle class="left-eye-black" cx="91.33333333333334" cy="60" r="2.5" fill="black"></circle><circle class="left-eye-light" cx="89.25" cy="57.5" r="1.25" fill="white"></circle><circle class="right-eye-white" cx="120" cy="60" r="16.666666666666668" fill="white"></circle><circle class="right-eye" cx="130.5" cy="60" r="5" fill="#7bc4c4"></circle><circle class="right-eye-black" cx="131.33333333333334" cy="60" r="2.5" fill="black"></circle><circle class="right-eye-light" cx="129.25" cy="57.5" r="1.25" fill="white"></circle><circle class="mouth-lips" cx="100" cy="108.16901408450704" r="11.9999999976" fill="#3d2618"></circle><circle class="mouth" cx="100" cy="108.16901408450704" r="10" fill="#000000"></circle><clipPath id="cut-off-450910"><circle cx="100" cy="108.16901408450704" r="10"></circle></clipPath><rect class="upper-teeth" x="90" y="98.16901408450704" width="20" height="5" fill="white" stroke="none" clip-path="url(#cut-off-450910)"></rect><circle class="mouth-stroke" cx="100" cy="108.16901408450704" r="10" fill="none" stroke="#000000" stroke-width="2"></circle><circle class="head-stroke" cx="100" cy="80" r="66.66666666666667" fill="none" stroke-width="4" stroke="#000000"></circle><g class="headband"><defs><pattern id="cap-450910" x="33.33333333333333" y="13.333333333333329" width="2.9629629629629632" height="14.814814814814817" patternUnits="userSpaceOnUse"><rect x="0" y="0" width="133.33333333333334" height="14.814814814814817" fill="#000"></rect><line x1="0" y1="0" x2="0" y2="14.814814814814817" stroke="#583101" stroke-width="2.9629629629629632"></line></pattern></defs><clipPath id="head_clip-450910"><circle id="head_clip" cx="100" cy="80" r="68.66666666666667"></circle></clipPath><rect x="33.33333333333333" y="26.801346801346796" width="133.33333333333334" height="14.814814814814817" fill="url(#cap-450910)" clip-path="url(#head_clip-450910)"></rect></g></svg>