<svg xmlns="http://www.w3.org/2000/svg" id="natnerd-451062" class="natnerd" viewBox="0 0 200 200" style="width: 200px; height: 200px;"><defs><pattern id="pattern_451062" class="pattern" x="0" y="0" width="5" height="5" patternUnits="userSpaceOnUse" patternTransform="rotate(0)"><rect class="shirt-pattern-background" x="0" y="0" width="200" height="200" stroke="none" fill="#001f3f"></rect><circle class="shirt-circle-pattern" cx="2.5" cy="2.5" r="2.5" stroke="none" fill="#ffdc00"></circle></pattern></defs><path class="shirt" stroke="#000000" stroke-width="2" transform="translate(50, 133.33333333333331)" fill="url(#pattern_451062)" d="
    M10.81081081081081,0
    h78.37837837837839
    a10.81081081081081,10.81081081081081 0 0 1 10.81081081081081,10.81081081081081
    v58.37837837837838
    a10.81081081081081,10.81081081081081 0 0 1 -10.81081081081081,10.81081081081081
    h-78.37837837837839
    a10.81081081081081,10.81081081081081 0 0 1 -10.81081081081081,-10.81081081081081
    v-58.37837837837838
    a10.81081081081081,10.81081081081081 0 0 1 10.81081081081081,-10.81081081081081
    z
"></path><rect class="left-collar" x="80" y="91.66666666458333" width="40" height="15.00000000375" fill="#ffdc00" stroke="#000000" transform-origin="center" transform="translate(-20, 40) rotate(45)" stroke-width="2"></rect><rect class="right-collar" x="80" y="91.66666666458333" width="40" height="15.00000000375" fill="#ffdc00" stroke="#000000" transform-origin="center" transform="translate(20, 40) rotate(-45)" stroke-width="2"></rect><line class="left-inner-arm" x1="70" y1="200" x2="70" y2="160" stroke="#000000" stroke-width="2"></line><line class="right-inner-arm" x1="130" y1="200" x2="130" y2="160" stroke="#000000" stroke-width="2"></line><circle id="head-451062" class="head" cx="100" cy="80" r="66.66666666666667" fill="#ffc3a0"></circle><circle class="left-eye-white" cx="80" cy="60" r="16.666666666666668" fill="white"></circle><circle class="left-eye" cx="89.6" cy="60" r="6" fill="#778899"></circle><circle class="left-eye-black" cx="90.93333333333334" cy="60" r="3" fill="black"></circle><circle class="left-eye-light" cx="88.1" cy="57" r="1.5" fill="white"></circle><circle class="right-eye-white" cx="120" cy="60" r="16.666666666666668" fill="white"></circle><circle class="right-eye" cx="129.6" cy="60" r="6" fill="#778899"></circle><circle class="right-eye-black" cx="130.93333333333334" cy="60" r="3" fill="black"></circle><circle class="right-eye-light" cx="128.1" cy="57" r="1.5" fill="white"></circle><path class="mouth-lips" stroke-width="6.666666666666667" stroke="#ffc3a0" fill="none" stroke-linecap="round" d="M 90 101.50234741784037 C 86.66666666666667 114.83568075117371, 113.33333333333333 114.83568075117371, 110 101.50234741784037"></path><path class="mouth" stroke-width="2" stroke="#000000" fill="none" stroke-linecap="round" d="M 90 102.66901408450704 C 89 113.66901408450704, 111 113.66901408450704, 110 102.66901408450704"></path><circle class="head-stroke" cx="100" cy="80" r="66.66666666666667" fill="none" stroke-width="2" stroke="#000000"></circle><g class="hair"><path fill="#debe99" d="M 100 10.333333333333329 A 69.66666666666667 69.66666666666667 0 0 0 30.33333333333333 79.99999999999999 L 42.33333333333333 80 A 57.66666666666667 57.66666666666667 0 0 1 100 22.33333333333333 L 100 10.333333333333329 Z"></path><path fill="#debe99" d="M 169.66666666666669 80 A 69.66666666666667 69.66666666666667 0 0 0 98.78414901820258 10.343943904104734 L 98.99357789544999 22.34211624598143 A 57.66666666666667 57.66666666666667 0 0 1 157.66666666666669 80 L 169.66666666666669 80 Z"></path><rect x="30.33333333333333" y="79" width="12" height="50.314465408805034" fill="#debe99"></rect><rect x="157.66666666666669" y="79" width="12" height="50.314465408805034" fill="#debe99"></rect><path fill="#000" d="M 100 10.333333333333329 A 69.66666666666667 69.66666666666667 0 0 0 30.33333333333333 79.99999999999999 L 31.33333333333333 79.99999999999999 A 68.66666666666667 68.66666666666667 0 0 1 100 11.333333333333329 L 100 10.333333333333329 Z"></path><path fill="#000" d="M 169.66666666666669 80 A 69.66666666666667 69.66666666666667 0 0 0 98.78414901820258 10.343943904104734 L 98.80160142463987 11.343791599261124 A 68.66666666666667 68.66666666666667 0 0 1 168.66666666666669 80 L 169.66666666666669 80 Z"></path><rect x="30.33333333333333" y="79" width="1" height="50.314465408805034" fill="#000"></rect><rect x="168.66666666666669" y="79" width="1" height="50.314465408805034" fill="#000"></rect><path fill="#000" d="M 100 12.333333333333329 A 67.66666666666667 67.66666666666667 0 0 0 32.33333333333333 79.99999999999999 L 33.33333333333333 79.99999999999999 A 66.66666666666667 66.66666666666667 0 0 1 100 13.333333333333329 L 100 12.333333333333329 Z"></path><path fill="#000" d="M 167.66666666666669 80 A 67.66666666666667 67.66666666666667 0 0 0 98.81905383107716 12.343639294417514 L 98.83650623751444 13.343486989573904 A 66.66666666666667 66.66666666666667 0 0 1 166.66666666666669 80 L 167.66666666666669 80 Z"></path><rect x="32.33333333333333" y="79" width="1" height="50.314465408805034" fill="#000"></rect><rect x="166.66666666666669" y="79" width="1" height="50.314465408805034" fill="#000"></rect><path fill="#000" d="M 100 14.333333333333329 A 65.66666666666667 65.66666666666667 0 0 0 34.33333333333333 79.99999999999999 L 35.33333333333333 79.99999999999999 A 64.66666666666667 64.66666666666667 0 0 1 100 15.333333333333329 L 100 14.333333333333329 Z"></path><path fill="#000" d="M 165.66666666666669 80 A 65.66666666666667 65.66666666666667 0 0 0 98.85395864395171 14.343334684730308 L 98.871411050389 15.343182379886699 A 64.66666666666667 64.66666666666667 0 0 1 164.66666666666669 80 L 165.66666666666669 80 Z"></path><rect x="34.33333333333333" y="79" width="1" height="50.314465408805034" fill="#000"></rect><rect x="164.66666666666669" y="79" width="1" height="50.314465408805034" fill="#000"></rect><path fill="#000" d="M 100 16.33333333333333 A 63.66666666666667 63.66666666666667 0 0 0 36.33333333333333 79.99999999999999 L 37.33333333333333 79.99999999999999 A 62.66666666666667 62.66666666666667 0 0 1 100 17.33333333333333 L 100 16.33333333333333 Z"></path><path fill="#000" d="M 163.66666666666669 80 A 63.66666666666667 63.66666666666667 0 0 0 98.88886345682629 16.34303007504308 L 98.90631586326357 17.34287777019948 A 62.66666666666667 62.66666666666667 0 0 1 162.66666666666669 80 L 163.66666666666669 80 Z"></path><rect x="36.33333333333333" y="79" width="1" height="50.314465408805034" fill="#000"></rect><rect x="162.66666666666669" y="79" width="1" height="50.314465408805034" fill="#000"></rect><path fill="#000" d="M 100 18.33333333333333 A 61.66666666666667 61.66666666666667 0 0 0 38.33333333333333 79.99999999999999 L 39.33333333333333 79.99999999999999 A 60.66666666666667 60.66666666666667 0 0 1 100 19.33333333333333 L 100 18.33333333333333 Z"></path><path fill="#000" d="M 161.66666666666669 80 A 61.66666666666667 61.66666666666667 0 0 0 98.92376826970086 18.34272546535587 L 98.94122067613813 19.34257316051226 A 60.66666666666667 60.66666666666667 0 0 1 160.66666666666669 80 L 161.66666666666669 80 Z"></path><rect x="38.33333333333333" y="79" width="1" height="50.314465408805034" fill="#000"></rect><rect x="160.66666666666669" y="79" width="1" height="50.314465408805034" fill="#000"></rect><path fill="#000" d="M 100 20.33333333333333 A 59.66666666666667 59.66666666666667 0 0 0 40.33333333333333 79.99999999999999 L 41.33333333333333 79.99999999999999 A 58.66666666666667 58.66666666666667 0 0 1 100 21.33333333333333 L 100 20.33333333333333 Z"></path><path fill="#000" d="M 159.66666666666669 80 A 59.66666666666667 59.66666666666667 0 0 0 98.95867308257542 20.34242085566865 L 98.9761254890127 21.34226855082504 A 58.66666666666667 58.66666666666667 0 0 1 158.66666666666669 80 L 159.66666666666669 80 Z"></path><rect x="40.33333333333333" y="79" width="1" height="50.314465408805034" fill="#000"></rect><rect x="158.66666666666669" y="79" width="1" height="50.314465408805034" fill="#000"></rect><path fill="#000" d="M 100 22.33333333333333 A 57.66666666666667 57.66666666666667 0 0 0 42.33333333333333 80 L 43.33333333333333 80 A 56.66666666666667 56.66666666666667 0 0 1 100 23.33333333333333 L 100 22.33333333333333 Z"></path><path fill="#000" d="M 157.66666666666669 80 A 57.66666666666667 57.66666666666667 0 0 0 98.99357789544999 22.34211624598143 L 99.01103030188727 23.34196394113782 A 56.66666666666667 56.66666666666667 0 0 1 156.66666666666669 80 L 157.66666666666669 80 Z"></path><rect x="42.33333333333333" y="79" width="1" height="50.314465408805034" fill="#000"></rect><rect x="156.66666666666669" y="79" width="1" height="50.314465408805034" fill="#000"></rect></g><g class="headband"><defs><pattern id="cap-451062" x="33.33333333333333" y="13.333333333333329" width="2.9629629629629632" height="14.814814814814817" patternUnits="userSpaceOnUse"><rect x="0" y="0" width="137.33333333333334" height="14.814814814814817" fill="#000"></rect><line x1="0" y1="0" x2="0" y2="14.814814814814817" stroke="#aa0000" stroke-width="2.9629629629629632"></line></pattern></defs><clipPath id="head_clip-451062"><circle id="head_clip" cx="100" cy="80" r="69.66666666666667"></circle></clipPath><rect x="33.33333333333333" y="26.801346801346796" width="137.33333333333334" height="14.814814814814817" fill="url(#cap-451062)" clip-path="url(#head_clip-451062)"></rect></g></svg>