<svg xmlns="http://www.w3.org/2000/svg" id="natnerd-451152" viewBox="0 0 200 200" style="width: 200px; height: 200px;"><defs><pattern id="pattern_451152" x="0" y="0" width="5" height="5" patternUnits="userSpaceOnUse" patternTransform="rotate(0)"><rect x="0" y="0" width="200" height="200" stroke="none" fill="#0074d9"></rect><circle cx="2.5" cy="2.5" r="2.5" stroke="none" fill="#ffdc00"></circle></pattern></defs><path stroke="#000000" stroke-width="2" transform="translate(50, 133.33333333333331)" fill="url(#pattern_451152)" d="
        M10.81081081081081,0
        h78.37837837837839
        a10.81081081081081,10.81081081081081 0 0 1 10.81081081081081,10.81081081081081
        v58.37837837837838
        a10.81081081081081,10.81081081081081 0 0 1 -10.81081081081081,10.81081081081081
        h-78.37837837837839
        a10.81081081081081,10.81081081081081 0 0 1 -10.81081081081081,-10.81081081081081
        v-58.37837837837838
        a10.81081081081081,10.81081081081081 0 0 1 10.81081081081081,-10.81081081081081
        z
    "></path><rect x="80" y="92.499999998125" width="40" height="15.00000000375" fill="#ffdc00" stroke="#000000" transform-origin="center" transform="translate(-20, 40) rotate(45)" stroke-width="2"></rect><rect x="80" y="92.499999998125" width="40" height="15.00000000375" fill="#ffdc00" stroke="#000000" transform-origin="center" transform="translate(20, 40) rotate(-45)" stroke-width="2"></rect><line x1="70" y1="200" x2="70" y2="160" stroke="#000000" stroke-width="2"></line><line x1="130" y1="200" x2="130" y2="160" stroke="#000000" stroke-width="2"></line><circle id="head-451152" cx="100" cy="80" r="66.66666666666667" fill="#ffb181"></circle><circle id="left-eye-white" cx="80" cy="60" r="16.666666666666668" fill="white"></circle><circle id="left-eye" cx="89.6" cy="60" r="6" fill="#593e1a"></circle><circle id="left-eye-black" cx="90.93333333333334" cy="60" r="3" fill="black"></circle><circle id="left-eye-light" cx="88.1" cy="57" r="1.5" fill="white"></circle><circle cx="120" cy="60" r="16.666666666666668" fill="white"></circle><circle cx="129.6" cy="60" r="6" fill="#593e1a"></circle><circle cx="130.93333333333334" cy="60" r="3" fill="black"></circle><circle cx="128.1" cy="57" r="1.5" fill="white"></circle><clipPath id="beard-cut-off-451152"><circle cx="100" cy="80" r="66.66666666666667"></circle></clipPath><defs><pattern id="beard-451152" x="0" y="0" width="2.5" height="2.5" patternUnits="userSpaceOnUse" patternTransform="rotate(45)"><circle cx="0.5" cy="0.5" r="0.5" stroke="none" fill="#4e3629"></circle></pattern></defs><rect x="33.33333333333333" y="92" width="133.33333333333334" height="66.66666666666667" fill="url(#beard-451152)" clip-path="url(#beard-cut-off-451152)"></rect><path stroke-width="6.666666666666667" stroke="#ffb181" fill="none" stroke-linecap="round" d="M 90 101.50234741784037 C 86.66666666666667 114.83568075117371, 113.33333333333333 114.83568075117371, 110 101.50234741784037"></path><path stroke-width="2" stroke="#000000" fill="none" stroke-linecap="round" d="M 90 102.66901408450704 C 89 113.66901408450704, 111 113.66901408450704, 110 102.66901408450704"></path><clipPath id="glasses-451152-cut-off"><circle cx="100" cy="80" r="66.66666666666667"></circle></clipPath><line x1="30.162204875047678" y1="59.662757570437094" x2="63.33333333333333" y2="60" stroke="#001f3f" stroke-width="4" clip-path="url(#glasses-451152-cut-off)"></line><circle id="mouth_stroke" cx="80" cy="60" r="16.666666666666668" fill="none" stroke="#001f3f" stroke-width="4"></circle><circle id="mouth_stroke" cx="120" cy="60" r="16.666666666666668" fill="none" stroke="#001f3f" stroke-width="4"></circle><line x1="169.83779512495232" y1="59.662757570437094" x2="136.66666666666666" y2="60" stroke="#001f3f" stroke-width="4" clip-path="url(#glasses-451152-cut-off)"></line><line x1="96.66666666666667" y1="60" x2="103.33333333333333" y2="60" stroke="#001f3f" stroke-width="4"></line><circle id="head-451152-stroke" cx="100" cy="80" r="66.66666666666667" fill="none" stroke-width="4" stroke="#000000"></circle><defs><pattern id="cap-451152" x="33.33333333333333" y="13.333333333333329" width="2.9629629629629632" height="14.814814814814817" patternUnits="userSpaceOnUse"><rect x="0" y="0" width="133.33333333333334" height="14.814814814814817" fill="#000"></rect><line x1="0" y1="0" x2="0" y2="14.814814814814817" stroke="#008000" stroke-width="2.9629629629629632"></line></pattern></defs><clipPath id="head_clip-451152"><circle id="head_clip" cx="100" cy="80" r="68.66666666666667"></circle></clipPath><rect x="33.33333333333333" y="26.801346801346796" width="133.33333333333334" height="14.814814814814817" fill="url(#cap-451152)" clip-path="url(#head_clip-451152)"></rect></svg>