<svg xmlns="http://www.w3.org/2000/svg" id="natnerd-742512" class="natnerd" viewBox="0 0 200 200" style="width: 200px; height: 200px;"><defs><pattern id="pattern_742512" class="pattern" x="0" y="0" width="15" height="15" patternUnits="userSpaceOnUse" patternTransform="rotate(0)"><rect class="shirt-pattern-background" x="0" y="0" width="200" height="200" stroke="none" fill="#b10dc9"></rect><line class="shirt-line-pattern" x1="0" y1="0" x2="200" y2="0" stroke="#f012be" stroke-width="7"></line></pattern></defs><path class="shirt" stroke="#000000" stroke-width="2" transform="translate(50, 133.33333333333331)" fill="url(#pattern_742512)" d="
    M10.81081081081081,0
    h78.37837837837839
    a10.81081081081081,10.81081081081081 0 0 1 10.81081081081081,10.81081081081081
    v58.37837837837838
    a10.81081081081081,10.81081081081081 0 0 1 -10.81081081081081,10.81081081081081
    h-78.37837837837839
    a10.81081081081081,10.81081081081081 0 0 1 -10.81081081081081,-10.81081081081081
    v-58.37837837837838
    a10.81081081081081,10.81081081081081 0 0 1 10.81081081081081,-10.81081081081081
    z
"></path><line class="left-inner-arm" x1="70" y1="200" x2="70" y2="160" stroke="#000000" stroke-width="2"></line><line class="right-inner-arm" x1="130" y1="200" x2="130" y2="160" stroke="#000000" stroke-width="2"></line><rect class="left-arm" x="50" y="174.28571428571428" width="20" height="40" fill="#945245" stroke="#000000" stroke-width="2"></rect><rect class="right-arm" x="130" y="174.28571428571428" width="20" height="40" fill="#945245" stroke="#000000" stroke-width="2"></rect><circle id="head-742512" class="head" cx="100" cy="80" r="66.66666666666667" fill="#945245"></circle><circle class="left-eye-white" cx="80" cy="60" r="16.666666666666668" fill="white"></circle><circle class="left-eye" cx="89.6" cy="60" r="6" fill="#7bc4c4"></circle><circle class="left-eye-black" cx="90.93333333333334" cy="60" r="3" fill="black"></circle><circle class="left-eye-light" cx="88.1" cy="57" r="1.5" fill="white"></circle><circle class="right-eye-white" cx="120" cy="60" r="16.666666666666668" fill="white"></circle><circle class="right-eye" cx="129.6" cy="60" r="6" fill="#7bc4c4"></circle><circle class="right-eye-black" cx="130.93333333333334" cy="60" r="3" fill="black"></circle><circle class="right-eye-light" cx="128.1" cy="57" r="1.5" fill="white"></circle><path class="mouth-lips" stroke-width="6.666666666666667" stroke="#945245" fill="none" stroke-linecap="round" d="M 86.66666666666667 108.16901408450704 C 96.66666666666667 108.16901408450704, 103.33333333333333 108.16901408450704, 113.33333333333333 108.16901408450704"></path><path class="mouth" stroke-width="2" stroke="#000000" fill="none" stroke-linecap="round" d="M 89 108.16901408450704 C 99 108.16901408450704, 101 108.16901408450704, 111 108.16901408450704"></path><g class="glasses"><clipPath id="glasses-742512-cut-off"><circle cx="100" cy="80" r="66.66666666666667"></circle></clipPath><line x1="30.162204875047678" y1="59.662757570437094" x2="63.33333333333333" y2="60" stroke="#8b0000" stroke-width="4" clip-path="url(#glasses-742512-cut-off)"></line><circle id="mouth_stroke" cx="80" cy="60" r="16.666666666666668" fill="none" stroke="#8b0000" stroke-width="4"></circle><circle id="mouth_stroke" cx="120" cy="60" r="16.666666666666668" fill="none" stroke="#8b0000" stroke-width="4"></circle><line x1="169.83779512495232" y1="59.662757570437094" x2="136.66666666666666" y2="60" stroke="#8b0000" stroke-width="4" clip-path="url(#glasses-742512-cut-off)"></line><line x1="96.66666666666667" y1="60" x2="103.33333333333333" y2="60" stroke="#8b0000" stroke-width="4"></line></g><circle class="head-stroke" cx="100" cy="80" r="66.66666666666667" fill="none" stroke-width="4" stroke="#000000"></circle><g class="headband"><defs><pattern id="cap-742512" x="33.33333333333333" y="13.333333333333329" width="2.9629629629629632" height="14.814814814814817" patternUnits="userSpaceOnUse"><rect x="0" y="0" width="133.33333333333334" height="14.814814814814817" fill="#000"></rect><line x1="0" y1="0" x2="0" y2="14.814814814814817" stroke="#583101" stroke-width="2.9629629629629632"></line></pattern></defs><clipPath id="head_clip-742512"><circle id="head_clip" cx="100" cy="80" r="68.66666666666667"></circle></clipPath><rect x="33.33333333333333" y="26.801346801346796" width="133.33333333333334" height="14.814814814814817" fill="url(#cap-742512)" clip-path="url(#head_clip-742512)"></rect></g></svg>