<svg xmlns="http://www.w3.org/2000/svg" id="natnerd-742915" viewBox="0 0 200 200" style="width: 200px; height: 200px;"><path stroke="#000000" stroke-width="2" transform="translate(50, 133.33333333333331)" fill="#f012be" d="
        M10.81081081081081,0
        h78.37837837837839
        a10.81081081081081,10.81081081081081 0 0 1 10.81081081081081,10.81081081081081
        v58.37837837837838
        a10.81081081081081,10.81081081081081 0 0 1 -10.81081081081081,10.81081081081081
        h-78.37837837837839
        a10.81081081081081,10.81081081081081 0 0 1 -10.81081081081081,-10.81081081081081
        v-58.37837837837838
        a10.81081081081081,10.81081081081081 0 0 1 10.81081081081081,-10.81081081081081
        z
    "></path><text x="0" y="0" fill="#f012be" stroke="#000000" stroke-width="10" letter-spacing="2" font-size="36" text-anchor="middle" paint-order="stroke fill" font-weight="700" stroke-linejoin="round" font-family="Verdana" transform="translate(100,168.8888888888889) scale(0.2)">N4TN3RD5</text><line x1="70" y1="200" x2="70" y2="160" stroke="#000000" stroke-width="2"></line><line x1="130" y1="200" x2="130" y2="160" stroke="#000000" stroke-width="2"></line><rect x="50" y="174.28571428571428" width="20" height="40" fill="#3d2618" stroke="#000000" stroke-width="2"></rect><rect x="130" y="174.28571428571428" width="20" height="40" fill="#3d2618" stroke="#000000" stroke-width="2"></rect><circle id="head-742915" cx="100" cy="80" r="66.66666666666667" fill="#3d2618"></circle><circle id="left-eye-white" cx="80" cy="60" r="16.666666666666668" fill="white"></circle><circle id="left-eye" cx="80" cy="51.75" r="7.5" fill="#7bc4c4"></circle><circle id="left-eye-black" cx="80" cy="49.666666666666664" r="3.75" fill="black"></circle><circle id="left-eye-light" cx="76.25" cy="48" r="1.875" fill="white"></circle><circle cx="120" cy="60" r="16.666666666666668" fill="white"></circle><circle cx="120" cy="51.75" r="7.5" fill="#7bc4c4"></circle><circle cx="120" cy="49.666666666666664" r="3.75" fill="black"></circle><circle cx="116.25" cy="48" r="1.875" fill="white"></circle><path stroke-width="6.666666666666667" stroke="#3d2618" fill="none" stroke-linecap="round" d="M 86.66666666666667 108.16901408450704 C 96.66666666666667 108.16901408450704, 103.33333333333333 108.16901408450704, 113.33333333333333 108.16901408450704"></path><path stroke-width="2" stroke="#000000" fill="none" stroke-linecap="round" d="M 89 108.16901408450704 C 99 108.16901408450704, 101 108.16901408450704, 111 108.16901408450704"></path><path fill="#000000" d="M 33.33333333333333 80.10000000000001 A 66.66666666666667 66.66666666666667 0 0 0 166.66666666666669 80.1 L 164 80.1 A 64 64 0 0 1 36 80.10000000000001 L 33.33333333333333 80.10000000000001 Z"></path><defs><pattern id="cap-742915" x="33.33333333333333" y="13.333333333333329" width="2.089318359885088" height="2.61164794985636" patternUnits="userSpaceOnUse"><rect id="cap_bg_rect" x="0" y="0" width="133.33333333333334" height="23.504831548707237" fill="#000"></rect><line x1="0" y1="0" x2="0" y2="23.504831548707237" stroke="#583101" stroke-width="2.350483154870724"></line></pattern></defs><clipPath id="cap-742915_clip2"><rect id="cap_rect2" x="33.33333333333333" y="13.333333333333329" width="133.33333333333334" height="23.504831548707237" fill="#583101"></rect></clipPath><clipPath id="cap-742915_clip-742915"><circle id="cap_clip_circle" cx="100" cy="80" r="66.66666666666667"></circle></clipPath><rect id="cap_rect" x="33.33333333333333" y="13.333333333333329" width="133.33333333333334" height="23.504831548707237" fill="#583101" clip-path="url(#cap-742915_clip-742915)"></rect><circle id="cap_clip_stroke_circle" cx="100" cy="80" r="66.66666666666667" stroke-width="0.7834943849569079" stroke="#000" fill="none" clip-path="url(#cap-742915_clip2)"></circle><path stroke="#000" stroke-width="0.7834943849569079" transform="translate(43.33333333333333, 35.6629233046052)" fill="url(#cap-742915)" d="
        M1.7410986332375733,0
        h109.8511360668582
        a1.7410986332375733,1.7410986332375733 0 0 1 1.7410986332375733,1.7410986332375733
        v1.741098633237573
        a1.7410986332375733,1.7410986332375733 0 0 1 -1.7410986332375733,1.7410986332375733
        h-109.8511360668582
        a1.7410986332375733,1.7410986332375733 0 0 1 -1.7410986332375733,-1.7410986332375733
        v-1.741098633237573
        a1.7410986332375733,1.7410986332375733 0 0 1 1.7410986332375733,-1.7410986332375733
        z
    "></path><circle cx="100" cy="7.272727272727268" r="6.666666666666667" fill="#583101" stroke-width="0.7834943849569079" stroke="#000"></circle></svg>