<svg xmlns="http://www.w3.org/2000/svg" id="natnerd-743132" viewBox="0 0 200 200" style="width: 200px; height: 200px;"><path stroke="#000000" stroke-width="2" transform="translate(50, 133.33333333333331)" fill="#b10dc9" d="
        M10.81081081081081,0
        h78.37837837837839
        a10.81081081081081,10.81081081081081 0 0 1 10.81081081081081,10.81081081081081
        v58.37837837837838
        a10.81081081081081,10.81081081081081 0 0 1 -10.81081081081081,10.81081081081081
        h-78.37837837837839
        a10.81081081081081,10.81081081081081 0 0 1 -10.81081081081081,-10.81081081081081
        v-58.37837837837838
        a10.81081081081081,10.81081081081081 0 0 1 10.81081081081081,-10.81081081081081
        z
    "></path><rect x="80" y="92.499999998125" width="40" height="15.00000000375" fill="#b10dc9" stroke="#000000" transform-origin="center" transform="translate(-20, 40) rotate(45)" stroke-width="2"></rect><rect x="80" y="92.499999998125" width="40" height="15.00000000375" fill="#b10dc9" stroke="#000000" transform-origin="center" transform="translate(20, 40) rotate(-45)" stroke-width="2"></rect><line x1="70" y1="200" x2="70" y2="160" stroke="#000000" stroke-width="2"></line><line x1="130" y1="200" x2="130" y2="160" stroke="#000000" stroke-width="2"></line><rect x="50" y="174.28571428571428" width="20" height="40" fill="#ffb181" stroke="#000000" stroke-width="2"></rect><rect x="130" y="174.28571428571428" width="20" height="40" fill="#ffb181" stroke="#000000" stroke-width="2"></rect><circle id="head-743132" cx="100" cy="80" r="66.66666666666667" fill="#ffb181"></circle><circle id="left-eye-white" cx="80" cy="60" r="16.666666666666668" fill="white"></circle><circle id="left-eye" cx="80" cy="69.6" r="6" fill="#8e7618"></circle><circle id="left-eye-black" cx="80" cy="70.93333333333334" r="3" fill="black"></circle><circle id="left-eye-light" cx="77" cy="66.6" r="1.5" fill="white"></circle><circle cx="120" cy="60" r="16.666666666666668" fill="white"></circle><circle cx="120" cy="69.6" r="6" fill="#8e7618"></circle><circle cx="120" cy="70.93333333333334" r="3" fill="black"></circle><circle cx="117" cy="66.6" r="1.5" fill="white"></circle><clipPath id="beard-cut-off-743132"><circle cx="100" cy="80" r="66.66666666666667"></circle></clipPath><defs><pattern id="beard-743132" x="0" y="0" width="2.5" height="2.5" patternUnits="userSpaceOnUse" patternTransform="rotate(45)"><circle cx="0.5" cy="0.5" r="0.5" stroke="none" fill="#4e3629"></circle></pattern></defs><rect x="33.33333333333333" y="92" width="133.33333333333334" height="66.66666666666667" fill="url(#beard-743132)" clip-path="url(#beard-cut-off-743132)"></rect><path stroke-width="6.666666666666667" stroke="#ffb181" fill="none" stroke-linecap="round" d="M 90 101.50234741784037 C 86.66666666666667 114.83568075117371, 113.33333333333333 114.83568075117371, 110 101.50234741784037"></path><path stroke-width="2" stroke="#000000" fill="none" stroke-linecap="round" d="M 90 102.66901408450704 C 89 113.66901408450704, 111 113.66901408450704, 110 102.66901408450704"></path><clipPath id="glasses-743132-cut-off"><circle cx="100" cy="80" r="66.66666666666667"></circle></clipPath><line x1="30.162204875047678" y1="59.662757570437094" x2="63.33333333333333" y2="60" stroke="#8b0000" stroke-width="4" clip-path="url(#glasses-743132-cut-off)"></line><circle id="mouth_stroke" cx="80" cy="60" r="16.666666666666668" fill="none" stroke="#8b0000" stroke-width="4"></circle><circle id="mouth_stroke" cx="120" cy="60" r="16.666666666666668" fill="none" stroke="#8b0000" stroke-width="4"></circle><line x1="169.83779512495232" y1="59.662757570437094" x2="136.66666666666666" y2="60" stroke="#8b0000" stroke-width="4" clip-path="url(#glasses-743132-cut-off)"></line><line x1="96.66666666666667" y1="60" x2="103.33333333333333" y2="60" stroke="#8b0000" stroke-width="4"></line><circle id="head-743132-stroke" cx="100" cy="80" r="66.66666666666667" fill="none" stroke-width="4" stroke="#000000"></circle><defs><pattern id="cap-743132" x="33.33333333333333" y="13.333333333333329" width="2.089318359885088" height="2.61164794985636" patternUnits="userSpaceOnUse"><rect id="cap_bg_rect" x="0" y="0" width="133.33333333333334" height="23.504831548707237" fill="#000"></rect><line x1="0" y1="0" x2="0" y2="23.504831548707237" stroke="#008000" stroke-width="2.350483154870724"></line></pattern></defs><clipPath id="cap-743132_clip2"><rect id="cap_rect2" x="33.33333333333333" y="9.333333333333329" width="133.33333333333334" height="27.504831548707237" fill="#008000"></rect></clipPath><clipPath id="cap-743132_clip-743132"><circle id="cap_clip_circle" cx="100" cy="80" r="68.66666666666667"></circle></clipPath><rect id="cap_rect" x="33.33333333333333" y="11.333333333333329" width="133.33333333333334" height="27.504831548707237" fill="#008000" clip-path="url(#cap-743132_clip-743132)"></rect><circle id="cap_clip_stroke_circle" cx="100" cy="80" r="68.66666666666667" stroke-width="0.7834943849569079" stroke="#000" fill="none" clip-path="url(#cap-743132_clip2)"></circle><path stroke="#000" stroke-width="0.7834943849569079" transform="translate(41.33333333333333, 35.6629233046052)" fill="url(#cap-743132)" d="
        M1.7410986332375733,0
        h113.8511360668582
        a1.7410986332375733,1.7410986332375733 0 0 1 1.7410986332375733,1.7410986332375733
        v1.741098633237573
        a1.7410986332375733,1.7410986332375733 0 0 1 -1.7410986332375733,1.7410986332375733
        h-113.8511360668582
        a1.7410986332375733,1.7410986332375733 0 0 1 -1.7410986332375733,-1.7410986332375733
        v-1.741098633237573
        a1.7410986332375733,1.7410986332375733 0 0 1 1.7410986332375733,-1.7410986332375733
        z
    "></path><circle cx="100" cy="7.272727272727268" r="6.666666666666667" fill="#008000" stroke-width="0.7834943849569079" stroke="#000"></circle></svg>