<svg xmlns="http://www.w3.org/2000/svg" id="natnerd-743705" class="natnerd" viewBox="0 0 200 200" style="width: 200px; height: 200px;"><path class="shirt" stroke="#000000" stroke-width="2" transform="translate(50, 133.33333333333331)" fill="#f012be" d="
    M10.81081081081081,0
    h78.37837837837839
    a10.81081081081081,10.81081081081081 0 0 1 10.81081081081081,10.81081081081081
    v58.37837837837838
    a10.81081081081081,10.81081081081081 0 0 1 -10.81081081081081,10.81081081081081
    h-78.37837837837839
    a10.81081081081081,10.81081081081081 0 0 1 -10.81081081081081,-10.81081081081081
    v-58.37837837837838
    a10.81081081081081,10.81081081081081 0 0 1 10.81081081081081,-10.81081081081081
    z
"></path><line class="left-inner-arm" x1="70" y1="200" x2="70" y2="160" stroke="#000000" stroke-width="2"></line><line class="right-inner-arm" x1="130" y1="200" x2="130" y2="160" stroke="#000000" stroke-width="2"></line><rect class="left-arm" x="50" y="174.28571428571428" width="20" height="40" fill="#5e3a27" stroke="#000000" stroke-width="2"></rect><rect class="right-arm" x="130" y="174.28571428571428" width="20" height="40" fill="#5e3a27" stroke="#000000" stroke-width="2"></rect><path class="cleavage" stroke="#000000" stroke-width="2" fill="#5e3a27" transform="translate(100, 142.85714285714286)" d=" M  24.79483370507571   -14.196575366963907  A  28.571428571428573 28.571428571428573 -29.793805346802806 1 1 -24.674603296873315 -14.404529938674624"></path><path class="left-boob" stroke="#000000" stroke-width="2" fill="none" transform="translate(84.78270270105759, 173.33333333333334)" d=" M  12.946923979293256   -7.412914489713361  A  14.918918920531777 14.918918920531777 -29.793805346802806 1 1 -12.884144209381866 -7.521500498521075"></path><path class="right-boob" stroke="#000000" stroke-width="2" fill="none" transform="translate(115.21729729894241, 173.33333333333334)" d=" M  12.946923979293256   -7.412914489713361  A  14.918918920531777 14.918918920531777 -29.793805346802806 1 1 -12.884144209381866 -7.521500498521075"></path><rect class="belly" x="70" y="190.76923076923077" width="60" height="40" fill="#5e3a27" stroke="#000000" stroke-width="2"></rect><circle class="belly-button" cx="100" cy="200" r="1.3333333333333333" fill="#000000"></circle><circle id="head-743705" class="head" cx="100" cy="80" r="66.66666666666667" fill="#5e3a27"></circle><circle class="left-eye-white" cx="80" cy="60" r="16.666666666666668" fill="white"></circle><circle class="left-eye" cx="80" cy="51.75" r="7.5" fill="#000000"></circle><circle class="left-eye-black" cx="80" cy="49.666666666666664" r="3.75" fill="black"></circle><circle class="left-eye-light" cx="76.25" cy="48" r="1.875" fill="white"></circle><circle class="right-eye-white" cx="120" cy="60" r="16.666666666666668" fill="white"></circle><circle class="right-eye" cx="120" cy="51.75" r="7.5" fill="#000000"></circle><circle class="right-eye-black" cx="120" cy="49.666666666666664" r="3.75" fill="black"></circle><circle class="right-eye-light" cx="116.25" cy="48" r="1.875" fill="white"></circle><circle class="left-cheek" cx="60" cy="91.11111111111111" r="12.5" fill="#ff000044"></circle><circle class="right-cheek" cx="140" cy="91.11111111111111" r="12.5" fill="#ff000044"></circle><path class="mouth-lips" stroke-width="6.666666666666667" stroke="#5e3a27" fill="none" stroke-linecap="round" d="M 90 101.50234741784037 C 86.66666666666667 114.83568075117371, 113.33333333333333 114.83568075117371, 110 101.50234741784037"></path><path class="mouth" stroke-width="2" stroke="#000000" fill="none" stroke-linecap="round" d="M 90 102.66901408450704 C 89 113.66901408450704, 111 113.66901408450704, 110 102.66901408450704"></path><circle class="head-stroke" cx="100" cy="80" r="66.66666666666667" fill="none" stroke-width="2" stroke="#000000"></circle><g class="hair"><path fill="#712e1a" d="M 100 9.333333333333329 A 70.66666666666667 70.66666666666667 0 0 0 29.33333333333333 79.99999999999999 L 45.33333333333333 80 A 54.66666666666667 54.66666666666667 0 0 1 100 25.33333333333333 L 100 9.333333333333329 Z"></path><path fill="#712e1a" d="M 170.66666666666669 80 A 70.66666666666667 70.66666666666667 0 0 0 98.7666966117653 9.344096208948343 L 99.04593511476183 25.341659331450607 A 54.66666666666667 54.66666666666667 0 0 1 154.66666666666669 80 L 170.66666666666669 80 Z"></path><rect x="29.33333333333333" y="79" width="16" height="200" fill="#712e1a"></rect><rect x="154.66666666666669" y="79" width="16" height="200" fill="#712e1a"></rect><path fill="#000" d="M 100 9.333333333333329 A 70.66666666666667 70.66666666666667 0 0 0 29.33333333333333 79.99999999999999 L 30.33333333333333 79.99999999999999 A 69.66666666666667 69.66666666666667 0 0 1 100 10.333333333333329 L 100 9.333333333333329 Z"></path><path fill="#000" d="M 170.66666666666669 80 A 70.66666666666667 70.66666666666667 0 0 0 98.7666966117653 9.344096208948343 L 98.78414901820258 10.343943904104734 A 69.66666666666667 69.66666666666667 0 0 1 169.66666666666669 80 L 170.66666666666669 80 Z"></path><rect x="29.33333333333333" y="79" width="1" height="200" fill="#000"></rect><rect x="169.66666666666669" y="79" width="1" height="200" fill="#000"></rect><path fill="#000" d="M 100 11.333333333333329 A 68.66666666666667 68.66666666666667 0 0 0 31.33333333333333 79.99999999999999 L 32.33333333333333 79.99999999999999 A 67.66666666666667 67.66666666666667 0 0 1 100 12.333333333333329 L 100 11.333333333333329 Z"></path><path fill="#000" d="M 168.66666666666669 80 A 68.66666666666667 68.66666666666667 0 0 0 98.80160142463987 11.343791599261124 L 98.81905383107716 12.343639294417514 A 67.66666666666667 67.66666666666667 0 0 1 167.66666666666669 80 L 168.66666666666669 80 Z"></path><rect x="31.33333333333333" y="79" width="1" height="200" fill="#000"></rect><rect x="167.66666666666669" y="79" width="1" height="200" fill="#000"></rect><path fill="#000" d="M 100 13.333333333333329 A 66.66666666666667 66.66666666666667 0 0 0 33.33333333333333 79.99999999999999 L 34.33333333333333 79.99999999999999 A 65.66666666666667 65.66666666666667 0 0 1 100 14.333333333333329 L 100 13.333333333333329 Z"></path><path fill="#000" d="M 166.66666666666669 80 A 66.66666666666667 66.66666666666667 0 0 0 98.83650623751444 13.343486989573904 L 98.85395864395171 14.343334684730308 A 65.66666666666667 65.66666666666667 0 0 1 165.66666666666669 80 L 166.66666666666669 80 Z"></path><rect x="33.33333333333333" y="79" width="1" height="200" fill="#000"></rect><rect x="165.66666666666669" y="79" width="1" height="200" fill="#000"></rect><path fill="#000" d="M 100 15.333333333333329 A 64.66666666666667 64.66666666666667 0 0 0 35.33333333333333 79.99999999999999 L 36.33333333333333 79.99999999999999 A 63.66666666666667 63.66666666666667 0 0 1 100 16.33333333333333 L 100 15.333333333333329 Z"></path><path fill="#000" d="M 164.66666666666669 80 A 64.66666666666667 64.66666666666667 0 0 0 98.871411050389 15.343182379886699 L 98.88886345682629 16.34303007504308 A 63.66666666666667 63.66666666666667 0 0 1 163.66666666666669 80 L 164.66666666666669 80 Z"></path><rect x="35.33333333333333" y="79" width="1" height="200" fill="#000"></rect><rect x="163.66666666666669" y="79" width="1" height="200" fill="#000"></rect><path fill="#000" d="M 100 17.33333333333333 A 62.66666666666667 62.66666666666667 0 0 0 37.33333333333333 79.99999999999999 L 38.33333333333333 79.99999999999999 A 61.66666666666667 61.66666666666667 0 0 1 100 18.33333333333333 L 100 17.33333333333333 Z"></path><path fill="#000" d="M 162.66666666666669 80 A 62.66666666666667 62.66666666666667 0 0 0 98.90631586326357 17.34287777019948 L 98.92376826970086 18.34272546535587 A 61.66666666666667 61.66666666666667 0 0 1 161.66666666666669 80 L 162.66666666666669 80 Z"></path><rect x="37.33333333333333" y="79" width="1" height="200" fill="#000"></rect><rect x="161.66666666666669" y="79" width="1" height="200" fill="#000"></rect><path fill="#000" d="M 100 19.33333333333333 A 60.66666666666667 60.66666666666667 0 0 0 39.33333333333333 79.99999999999999 L 40.33333333333333 79.99999999999999 A 59.66666666666667 59.66666666666667 0 0 1 100 20.33333333333333 L 100 19.33333333333333 Z"></path><path fill="#000" d="M 160.66666666666669 80 A 60.66666666666667 60.66666666666667 0 0 0 98.94122067613813 19.34257316051226 L 98.95867308257542 20.34242085566865 A 59.66666666666667 59.66666666666667 0 0 1 159.66666666666669 80 L 160.66666666666669 80 Z"></path><rect x="39.33333333333333" y="79" width="1" height="200" fill="#000"></rect><rect x="159.66666666666669" y="79" width="1" height="200" fill="#000"></rect><path fill="#000" d="M 100 21.33333333333333 A 58.66666666666667 58.66666666666667 0 0 0 41.33333333333333 79.99999999999999 L 42.33333333333333 80 A 57.66666666666667 57.66666666666667 0 0 1 100 22.33333333333333 L 100 21.33333333333333 Z"></path><path fill="#000" d="M 158.66666666666669 80 A 58.66666666666667 58.66666666666667 0 0 0 98.9761254890127 21.34226855082504 L 98.99357789544999 22.34211624598143 A 57.66666666666667 57.66666666666667 0 0 1 157.66666666666669 80 L 158.66666666666669 80 Z"></path><rect x="41.33333333333333" y="79" width="1" height="200" fill="#000"></rect><rect x="157.66666666666669" y="79" width="1" height="200" fill="#000"></rect><path fill="#000" d="M 100 23.33333333333333 A 56.66666666666667 56.66666666666667 0 0 0 43.33333333333333 80 L 44.33333333333333 80 A 55.66666666666667 55.66666666666667 0 0 1 100 24.33333333333333 L 100 23.33333333333333 Z"></path><path fill="#000" d="M 156.66666666666669 80 A 56.66666666666667 56.66666666666667 0 0 0 99.01103030188727 23.34196394113782 L 99.02848270832455 24.341811636294217 A 55.66666666666667 55.66666666666667 0 0 1 155.66666666666669 80 L 156.66666666666669 80 Z"></path><rect x="43.33333333333333" y="79" width="1" height="200" fill="#000"></rect><rect x="155.66666666666669" y="79" width="1" height="200" fill="#000"></rect><path fill="#000" d="M 100 25.33333333333333 A 54.66666666666667 54.66666666666667 0 0 0 45.33333333333333 80 L 46.33333333333333 80 A 53.66666666666667 53.66666666666667 0 0 1 100 26.33333333333333 L 100 25.33333333333333 Z"></path><path fill="#000" d="M 154.66666666666669 80 A 54.66666666666667 54.66666666666667 0 0 0 99.04593511476183 25.341659331450607 L 99.06338752119912 26.341507026606997 A 53.66666666666667 53.66666666666667 0 0 1 153.66666666666669 80 L 154.66666666666669 80 Z"></path><rect x="45.33333333333333" y="79" width="1" height="200" fill="#000"></rect><rect x="153.66666666666669" y="79" width="1" height="200" fill="#000"></rect></g><g g="knitted-cap"><defs><pattern id="cap-743705" x="33.33333333333333" y="13.333333333333329" width="2.089318359885088" height="3.204240542448952" patternUnits="userSpaceOnUse"><rect id="cap_bg_rect" x="0" y="0" width="133.33333333333334" height="28.83816488204057" fill="#000"></rect><line x1="0" y1="0" x2="0" y2="28.83816488204057" stroke="#583101" stroke-width="2.350483154870724"></line></pattern></defs><clipPath id="cap-743705_clip2"><rect id="cap_rect2" x="33.33333333333333" y="7.777777777777773" width="149.33333333333334" height="30.83816488204057" fill="#583101"></rect></clipPath><clipPath id="cap-743705_clip-743705"><circle id="cap_clip_circle" cx="100" cy="80" r="71.66666666666667"></circle></clipPath><rect id="cap_rect" x="33.33333333333333" y="8.777777777777773" width="149.33333333333334" height="30.83816488204057" fill="#583101" clip-path="url(#cap-743705_clip-743705)"></rect><circle id="cap_clip_stroke_circle" cx="100" cy="80" r="71.66666666666667" stroke-width="0.9612721627346856" stroke="#000" fill="none" clip-path="url(#cap-743705_clip2)"></circle><path stroke="#000" stroke-width="0.9612721627346856" transform="translate(36.666666666666664, 37.174034415716314)" fill="url(#cap-743705)" d="
    M1.7410986332375733,0
    h123.18446940019153
    a1.7410986332375733,1.7410986332375733 0 0 1 1.7410986332375733,1.7410986332375733
    v1.741098633237573
    a1.7410986332375733,1.7410986332375733 0 0 1 -1.7410986332375733,1.7410986332375733
    h-123.18446940019153
    a1.7410986332375733,1.7410986332375733 0 0 1 -1.7410986332375733,-1.7410986332375733
    v-1.741098633237573
    a1.7410986332375733,1.7410986332375733 0 0 1 1.7410986332375733,-1.7410986332375733
    z
"></path><circle cx="100" cy="7.272727272727268" r="6.666666666666667" fill="#583101" stroke-width="0.9612721627346856" stroke="#000"></circle></g></svg>