<svg xmlns="http://www.w3.org/2000/svg" id="natnerd-743762" viewBox="0 0 200 200" style="width: 200px; height: 200px;"><path stroke="#000000" stroke-width="2" transform="translate(50, 133.33333333333331)" fill="#b10dc9" d="
        M10.81081081081081,0
        h78.37837837837839
        a10.81081081081081,10.81081081081081 0 0 1 10.81081081081081,10.81081081081081
        v58.37837837837838
        a10.81081081081081,10.81081081081081 0 0 1 -10.81081081081081,10.81081081081081
        h-78.37837837837839
        a10.81081081081081,10.81081081081081 0 0 1 -10.81081081081081,-10.81081081081081
        v-58.37837837837838
        a10.81081081081081,10.81081081081081 0 0 1 10.81081081081081,-10.81081081081081
        z
    "></path><line x1="70" y1="200" x2="70" y2="160" stroke="#000000" stroke-width="2"></line><line x1="130" y1="200" x2="130" y2="160" stroke="#000000" stroke-width="2"></line><rect x="50" y="174.28571428571428" width="20" height="40" fill="#5e3a27" stroke="#000000" stroke-width="2"></rect><rect x="130" y="174.28571428571428" width="20" height="40" fill="#5e3a27" stroke="#000000" stroke-width="2"></rect><path stroke="#000000" stroke-width="2" fill="none" transform="translate(84.78270270105759, 173.33333333333334)" d=" M  12.946923979293256   -7.412914489713361  A  14.918918920531777 14.918918920531777 -29.793805346802806 1 1 -12.884144209381866 -7.521500498521075"></path><path stroke="#000000" stroke-width="2" fill="none" transform="translate(115.21729729894241, 173.33333333333334)" d=" M  12.946923979293256   -7.412914489713361  A  14.918918920531777 14.918918920531777 -29.793805346802806 1 1 -12.884144209381866 -7.521500498521075"></path><rect x="70" y="190.76923076923077" width="60" height="40" fill="#5e3a27" stroke="#000000" stroke-width="2"></rect><circle cx="100" cy="200" r="1.3333333333333333" fill="#000000"></circle><circle id="head-743762" cx="100" cy="80" r="66.66666666666667" fill="#5e3a27"></circle><circle id="left-eye-white" cx="80" cy="60" r="16.666666666666668" fill="white"></circle><circle id="left-eye" cx="80" cy="69.6" r="6" fill="#778899"></circle><circle id="left-eye-black" cx="80" cy="70.93333333333334" r="3" fill="black"></circle><circle id="left-eye-light" cx="77" cy="66.6" r="1.5" fill="white"></circle><circle cx="120" cy="60" r="16.666666666666668" fill="white"></circle><circle cx="120" cy="69.6" r="6" fill="#778899"></circle><circle cx="120" cy="70.93333333333334" r="3" fill="black"></circle><circle cx="117" cy="66.6" r="1.5" fill="white"></circle><circle cx="60" cy="91.11111111111111" r="12.5" fill="#ff000044"></circle><circle cx="140" cy="91.11111111111111" r="12.5" fill="#ff000044"></circle><path stroke-width="6.666666666666667" stroke="#5e3a27" fill="none" stroke-linecap="round" d="M 90 101.50234741784037 C 86.66666666666667 114.83568075117371, 113.33333333333333 114.83568075117371, 110 101.50234741784037"></path><path stroke-width="2" stroke="#000000" fill="none" stroke-linecap="round" d="M 90 102.66901408450704 C 89 113.66901408450704, 111 113.66901408450704, 110 102.66901408450704"></path><circle id="head-743762-stroke" cx="100" cy="80" r="66.66666666666667" fill="none" stroke-width="2" stroke="#000000"></circle><path fill="#debe99" d="M 100 10.333333333333329 A 69.66666666666667 69.66666666666667 0 0 0 30.33333333333333 79.99999999999999 L 42.33333333333333 80 A 57.66666666666667 57.66666666666667 0 0 1 100 22.33333333333333 L 100 10.333333333333329 Z"></path><path fill="#debe99" d="M 169.66666666666669 80 A 69.66666666666667 69.66666666666667 0 0 0 98.78414901820258 10.343943904104734 L 98.99357789544999 22.34211624598143 A 57.66666666666667 57.66666666666667 0 0 1 157.66666666666669 80 L 169.66666666666669 80 Z"></path><rect x="30.33333333333333" y="79" width="12" height="50.314465408805034" fill="#debe99"></rect><rect x="157.66666666666669" y="79" width="12" height="50.314465408805034" fill="#debe99"></rect><path fill="#000" d="M 100 10.333333333333329 A 69.66666666666667 69.66666666666667 0 0 0 30.33333333333333 79.99999999999999 L 31.33333333333333 79.99999999999999 A 68.66666666666667 68.66666666666667 0 0 1 100 11.333333333333329 L 100 10.333333333333329 Z"></path><path fill="#000" d="M 169.66666666666669 80 A 69.66666666666667 69.66666666666667 0 0 0 98.78414901820258 10.343943904104734 L 98.80160142463987 11.343791599261124 A 68.66666666666667 68.66666666666667 0 0 1 168.66666666666669 80 L 169.66666666666669 80 Z"></path><rect x="30.33333333333333" y="79" width="1" height="50.314465408805034" fill="#000"></rect><rect x="168.66666666666669" y="79" width="1" height="50.314465408805034" fill="#000"></rect><path fill="#000" d="M 100 12.333333333333329 A 67.66666666666667 67.66666666666667 0 0 0 32.33333333333333 79.99999999999999 L 33.33333333333333 79.99999999999999 A 66.66666666666667 66.66666666666667 0 0 1 100 13.333333333333329 L 100 12.333333333333329 Z"></path><path fill="#000" d="M 167.66666666666669 80 A 67.66666666666667 67.66666666666667 0 0 0 98.81905383107716 12.343639294417514 L 98.83650623751444 13.343486989573904 A 66.66666666666667 66.66666666666667 0 0 1 166.66666666666669 80 L 167.66666666666669 80 Z"></path><rect x="32.33333333333333" y="79" width="1" height="50.314465408805034" fill="#000"></rect><rect x="166.66666666666669" y="79" width="1" height="50.314465408805034" fill="#000"></rect><path fill="#000" d="M 100 14.333333333333329 A 65.66666666666667 65.66666666666667 0 0 0 34.33333333333333 79.99999999999999 L 35.33333333333333 79.99999999999999 A 64.66666666666667 64.66666666666667 0 0 1 100 15.333333333333329 L 100 14.333333333333329 Z"></path><path fill="#000" d="M 165.66666666666669 80 A 65.66666666666667 65.66666666666667 0 0 0 98.85395864395171 14.343334684730308 L 98.871411050389 15.343182379886699 A 64.66666666666667 64.66666666666667 0 0 1 164.66666666666669 80 L 165.66666666666669 80 Z"></path><rect x="34.33333333333333" y="79" width="1" height="50.314465408805034" fill="#000"></rect><rect x="164.66666666666669" y="79" width="1" height="50.314465408805034" fill="#000"></rect><path fill="#000" d="M 100 16.33333333333333 A 63.66666666666667 63.66666666666667 0 0 0 36.33333333333333 79.99999999999999 L 37.33333333333333 79.99999999999999 A 62.66666666666667 62.66666666666667 0 0 1 100 17.33333333333333 L 100 16.33333333333333 Z"></path><path fill="#000" d="M 163.66666666666669 80 A 63.66666666666667 63.66666666666667 0 0 0 98.88886345682629 16.34303007504308 L 98.90631586326357 17.34287777019948 A 62.66666666666667 62.66666666666667 0 0 1 162.66666666666669 80 L 163.66666666666669 80 Z"></path><rect x="36.33333333333333" y="79" width="1" height="50.314465408805034" fill="#000"></rect><rect x="162.66666666666669" y="79" width="1" height="50.314465408805034" fill="#000"></rect><path fill="#000" d="M 100 18.33333333333333 A 61.66666666666667 61.66666666666667 0 0 0 38.33333333333333 79.99999999999999 L 39.33333333333333 79.99999999999999 A 60.66666666666667 60.66666666666667 0 0 1 100 19.33333333333333 L 100 18.33333333333333 Z"></path><path fill="#000" d="M 161.66666666666669 80 A 61.66666666666667 61.66666666666667 0 0 0 98.92376826970086 18.34272546535587 L 98.94122067613813 19.34257316051226 A 60.66666666666667 60.66666666666667 0 0 1 160.66666666666669 80 L 161.66666666666669 80 Z"></path><rect x="38.33333333333333" y="79" width="1" height="50.314465408805034" fill="#000"></rect><rect x="160.66666666666669" y="79" width="1" height="50.314465408805034" fill="#000"></rect><path fill="#000" d="M 100 20.33333333333333 A 59.66666666666667 59.66666666666667 0 0 0 40.33333333333333 79.99999999999999 L 41.33333333333333 79.99999999999999 A 58.66666666666667 58.66666666666667 0 0 1 100 21.33333333333333 L 100 20.33333333333333 Z"></path><path fill="#000" d="M 159.66666666666669 80 A 59.66666666666667 59.66666666666667 0 0 0 98.95867308257542 20.34242085566865 L 98.9761254890127 21.34226855082504 A 58.66666666666667 58.66666666666667 0 0 1 158.66666666666669 80 L 159.66666666666669 80 Z"></path><rect x="40.33333333333333" y="79" width="1" height="50.314465408805034" fill="#000"></rect><rect x="158.66666666666669" y="79" width="1" height="50.314465408805034" fill="#000"></rect><path fill="#000" d="M 100 22.33333333333333 A 57.66666666666667 57.66666666666667 0 0 0 42.33333333333333 80 L 43.33333333333333 80 A 56.66666666666667 56.66666666666667 0 0 1 100 23.33333333333333 L 100 22.33333333333333 Z"></path><path fill="#000" d="M 157.66666666666669 80 A 57.66666666666667 57.66666666666667 0 0 0 98.99357789544999 22.34211624598143 L 99.01103030188727 23.34196394113782 A 56.66666666666667 56.66666666666667 0 0 1 156.66666666666669 80 L 157.66666666666669 80 Z"></path><rect x="42.33333333333333" y="79" width="1" height="50.314465408805034" fill="#000"></rect><rect x="156.66666666666669" y="79" width="1" height="50.314465408805034" fill="#000"></rect><defs><pattern id="cap-743762" x="33.33333333333333" y="13.333333333333329" width="2.089318359885088" height="3.056092394300804" patternUnits="userSpaceOnUse"><rect id="cap_bg_rect" x="0" y="0" width="133.33333333333334" height="27.504831548707237" fill="#000"></rect><line x1="0" y1="0" x2="0" y2="27.504831548707237" stroke="#aa0000" stroke-width="2.350483154870724"></line></pattern></defs><clipPath id="cap-743762_clip2"><rect id="cap_rect2" x="33.33333333333333" y="8.666666666666663" width="145.33333333333334" height="29.504831548707237" fill="#aa0000"></rect></clipPath><clipPath id="cap-743762_clip-743762"><circle id="cap_clip_circle" cx="100" cy="80" r="70.66666666666667"></circle></clipPath><rect id="cap_rect" x="33.33333333333333" y="9.666666666666663" width="145.33333333333334" height="29.504831548707237" fill="#aa0000" clip-path="url(#cap-743762_clip-743762)"></rect><circle id="cap_clip_stroke_circle" cx="100" cy="80" r="70.66666666666667" stroke-width="0.9168277182902412" stroke="#000" fill="none" clip-path="url(#cap-743762_clip2)"></circle><path stroke="#000" stroke-width="0.9168277182902412" transform="translate(36.666666666666664, 36.796256637938534)" fill="url(#cap-743762)" d="
        M1.7410986332375733,0
        h123.18446940019153
        a1.7410986332375733,1.7410986332375733 0 0 1 1.7410986332375733,1.7410986332375733
        v1.741098633237573
        a1.7410986332375733,1.7410986332375733 0 0 1 -1.7410986332375733,1.7410986332375733
        h-123.18446940019153
        a1.7410986332375733,1.7410986332375733 0 0 1 -1.7410986332375733,-1.7410986332375733
        v-1.741098633237573
        a1.7410986332375733,1.7410986332375733 0 0 1 1.7410986332375733,-1.7410986332375733
        z
    "></path><circle cx="100" cy="7.272727272727268" r="6.666666666666667" fill="#aa0000" stroke-width="0.9168277182902412" stroke="#000"></circle></svg>